G04 #@! TF.GenerationSoftware,KiCad,Pcbnew,(6.0.7-1)-1*
G04 #@! TF.CreationDate,2022-09-10T13:51:06+09:00*
G04 #@! TF.ProjectId,MEZ6800,4d455a36-3830-4302-9e6b-696361645f70,A*
G04 #@! TF.SameCoordinates,PX5f5e100PY8f0d180*
G04 #@! TF.FileFunction,Legend,Bot*
G04 #@! TF.FilePolarity,Positive*
%FSLAX46Y46*%
G04 Gerber Fmt 4.6, Leading zero omitted, Abs format (unit mm)*
G04 Created by KiCad (PCBNEW (6.0.7-1)-1) date 2022-09-10 13:51:06*
%MOMM*%
%LPD*%
G01*
G04 APERTURE LIST*
%ADD10C,0.150000*%
%ADD11C,0.120000*%
G04 APERTURE END LIST*
D10*
X12812380Y34416667D02*
X11812380Y34416667D01*
X12526666Y34083334D01*
X11812380Y33750000D01*
X12812380Y33750000D01*
X12288571Y33273810D02*
X12288571Y32940477D01*
X12812380Y32797620D02*
X12812380Y33273810D01*
X11812380Y33273810D01*
X11812380Y32797620D01*
X11812380Y32464286D02*
X11812380Y31797620D01*
X12812380Y32464286D01*
X12812380Y31797620D01*
X11812380Y30988096D02*
X11812380Y31178572D01*
X11860000Y31273810D01*
X11907619Y31321429D01*
X12050476Y31416667D01*
X12240952Y31464286D01*
X12621904Y31464286D01*
X12717142Y31416667D01*
X12764761Y31369048D01*
X12812380Y31273810D01*
X12812380Y31083334D01*
X12764761Y30988096D01*
X12717142Y30940477D01*
X12621904Y30892858D01*
X12383809Y30892858D01*
X12288571Y30940477D01*
X12240952Y30988096D01*
X12193333Y31083334D01*
X12193333Y31273810D01*
X12240952Y31369048D01*
X12288571Y31416667D01*
X12383809Y31464286D01*
X12240952Y30321429D02*
X12193333Y30416667D01*
X12145714Y30464286D01*
X12050476Y30511905D01*
X12002857Y30511905D01*
X11907619Y30464286D01*
X11860000Y30416667D01*
X11812380Y30321429D01*
X11812380Y30130953D01*
X11860000Y30035715D01*
X11907619Y29988096D01*
X12002857Y29940477D01*
X12050476Y29940477D01*
X12145714Y29988096D01*
X12193333Y30035715D01*
X12240952Y30130953D01*
X12240952Y30321429D01*
X12288571Y30416667D01*
X12336190Y30464286D01*
X12431428Y30511905D01*
X12621904Y30511905D01*
X12717142Y30464286D01*
X12764761Y30416667D01*
X12812380Y30321429D01*
X12812380Y30130953D01*
X12764761Y30035715D01*
X12717142Y29988096D01*
X12621904Y29940477D01*
X12431428Y29940477D01*
X12336190Y29988096D01*
X12288571Y30035715D01*
X12240952Y30130953D01*
X11812380Y29321429D02*
X11812380Y29226191D01*
X11860000Y29130953D01*
X11907619Y29083334D01*
X12002857Y29035715D01*
X12193333Y28988096D01*
X12431428Y28988096D01*
X12621904Y29035715D01*
X12717142Y29083334D01*
X12764761Y29130953D01*
X12812380Y29226191D01*
X12812380Y29321429D01*
X12764761Y29416667D01*
X12717142Y29464286D01*
X12621904Y29511905D01*
X12431428Y29559524D01*
X12193333Y29559524D01*
X12002857Y29511905D01*
X11907619Y29464286D01*
X11860000Y29416667D01*
X11812380Y29321429D01*
X11812380Y28369048D02*
X11812380Y28273810D01*
X11860000Y28178572D01*
X11907619Y28130953D01*
X12002857Y28083334D01*
X12193333Y28035715D01*
X12431428Y28035715D01*
X12621904Y28083334D01*
X12717142Y28130953D01*
X12764761Y28178572D01*
X12812380Y28273810D01*
X12812380Y28369048D01*
X12764761Y28464286D01*
X12717142Y28511905D01*
X12621904Y28559524D01*
X12431428Y28607143D01*
X12193333Y28607143D01*
X12002857Y28559524D01*
X11907619Y28511905D01*
X11860000Y28464286D01*
X11812380Y28369048D01*
X14422380Y45488096D02*
X13422380Y45488096D01*
X14136666Y45154762D01*
X13422380Y44821429D01*
X14422380Y44821429D01*
X14327142Y43773810D02*
X14374761Y43821429D01*
X14422380Y43964286D01*
X14422380Y44059524D01*
X14374761Y44202381D01*
X14279523Y44297620D01*
X14184285Y44345239D01*
X13993809Y44392858D01*
X13850952Y44392858D01*
X13660476Y44345239D01*
X13565238Y44297620D01*
X13470000Y44202381D01*
X13422380Y44059524D01*
X13422380Y43964286D01*
X13470000Y43821429D01*
X13517619Y43773810D01*
X13422380Y42916667D02*
X13422380Y43107143D01*
X13470000Y43202381D01*
X13517619Y43250001D01*
X13660476Y43345239D01*
X13850952Y43392858D01*
X14231904Y43392858D01*
X14327142Y43345239D01*
X14374761Y43297620D01*
X14422380Y43202381D01*
X14422380Y43011905D01*
X14374761Y42916667D01*
X14327142Y42869048D01*
X14231904Y42821429D01*
X13993809Y42821429D01*
X13898571Y42869048D01*
X13850952Y42916667D01*
X13803333Y43011905D01*
X13803333Y43202381D01*
X13850952Y43297620D01*
X13898571Y43345239D01*
X13993809Y43392858D01*
X13850952Y42250001D02*
X13803333Y42345239D01*
X13755714Y42392858D01*
X13660476Y42440477D01*
X13612857Y42440477D01*
X13517619Y42392858D01*
X13470000Y42345239D01*
X13422380Y42250001D01*
X13422380Y42059524D01*
X13470000Y41964286D01*
X13517619Y41916667D01*
X13612857Y41869048D01*
X13660476Y41869048D01*
X13755714Y41916667D01*
X13803333Y41964286D01*
X13850952Y42059524D01*
X13850952Y42250001D01*
X13898571Y42345239D01*
X13946190Y42392858D01*
X14041428Y42440477D01*
X14231904Y42440477D01*
X14327142Y42392858D01*
X14374761Y42345239D01*
X14422380Y42250001D01*
X14422380Y42059524D01*
X14374761Y41964286D01*
X14327142Y41916667D01*
X14231904Y41869048D01*
X14041428Y41869048D01*
X13946190Y41916667D01*
X13898571Y41964286D01*
X13850952Y42059524D01*
X13422380Y41250001D02*
X13422380Y41154762D01*
X13470000Y41059524D01*
X13517619Y41011905D01*
X13612857Y40964286D01*
X13803333Y40916667D01*
X14041428Y40916667D01*
X14231904Y40964286D01*
X14327142Y41011905D01*
X14374761Y41059524D01*
X14422380Y41154762D01*
X14422380Y41250001D01*
X14374761Y41345239D01*
X14327142Y41392858D01*
X14231904Y41440477D01*
X14041428Y41488096D01*
X13803333Y41488096D01*
X13612857Y41440477D01*
X13517619Y41392858D01*
X13470000Y41345239D01*
X13422380Y41250001D01*
X13422380Y40297620D02*
X13422380Y40202381D01*
X13470000Y40107143D01*
X13517619Y40059524D01*
X13612857Y40011905D01*
X13803333Y39964286D01*
X14041428Y39964286D01*
X14231904Y40011905D01*
X14327142Y40059524D01*
X14374761Y40107143D01*
X14422380Y40202381D01*
X14422380Y40297620D01*
X14374761Y40392858D01*
X14327142Y40440477D01*
X14231904Y40488096D01*
X14041428Y40535715D01*
X13803333Y40535715D01*
X13612857Y40488096D01*
X13517619Y40440477D01*
X13470000Y40392858D01*
X13422380Y40297620D01*
X14422380Y38773810D02*
X13422380Y38773810D01*
X14136666Y38440477D01*
X13422380Y38107143D01*
X14422380Y38107143D01*
X14374761Y37250001D02*
X14422380Y37345239D01*
X14422380Y37535715D01*
X14374761Y37630953D01*
X14279523Y37678572D01*
X13898571Y37678572D01*
X13803333Y37630953D01*
X13755714Y37535715D01*
X13755714Y37345239D01*
X13803333Y37250001D01*
X13898571Y37202381D01*
X13993809Y37202381D01*
X14089047Y37678572D01*
X13755714Y36869048D02*
X13755714Y36345239D01*
X14422380Y36869048D01*
X14422380Y36345239D01*
X13755714Y36059524D02*
X13755714Y35535715D01*
X14422380Y36059524D01*
X14422380Y35535715D01*
X14422380Y34726191D02*
X13898571Y34726191D01*
X13803333Y34773810D01*
X13755714Y34869048D01*
X13755714Y35059524D01*
X13803333Y35154762D01*
X14374761Y34726191D02*
X14422380Y34821429D01*
X14422380Y35059524D01*
X14374761Y35154762D01*
X14279523Y35202381D01*
X14184285Y35202381D01*
X14089047Y35154762D01*
X14041428Y35059524D01*
X14041428Y34821429D01*
X13993809Y34726191D01*
X13755714Y34250001D02*
X14422380Y34250001D01*
X13850952Y34250001D02*
X13803333Y34202381D01*
X13755714Y34107143D01*
X13755714Y33964286D01*
X13803333Y33869048D01*
X13898571Y33821429D01*
X14422380Y33821429D01*
X14422380Y33345239D02*
X13755714Y33345239D01*
X13422380Y33345239D02*
X13470000Y33392858D01*
X13517619Y33345239D01*
X13470000Y33297620D01*
X13422380Y33345239D01*
X13517619Y33345239D01*
X13755714Y32869048D02*
X14422380Y32869048D01*
X13850952Y32869048D02*
X13803333Y32821429D01*
X13755714Y32726191D01*
X13755714Y32583334D01*
X13803333Y32488096D01*
X13898571Y32440477D01*
X14422380Y32440477D01*
X14374761Y31583334D02*
X14422380Y31678572D01*
X14422380Y31869048D01*
X14374761Y31964286D01*
X14279523Y32011905D01*
X13898571Y32011905D01*
X13803333Y31964286D01*
X13755714Y31869048D01*
X13755714Y31678572D01*
X13803333Y31583334D01*
X13898571Y31535715D01*
X13993809Y31535715D01*
X14089047Y32011905D01*
X14422380Y30345239D02*
X13422380Y30345239D01*
X13803333Y30345239D02*
X13755714Y30250001D01*
X13755714Y30059524D01*
X13803333Y29964286D01*
X13850952Y29916667D01*
X13946190Y29869048D01*
X14231904Y29869048D01*
X14327142Y29916667D01*
X14374761Y29964286D01*
X14422380Y30059524D01*
X14422380Y30250001D01*
X14374761Y30345239D01*
X14422380Y29297620D02*
X14374761Y29392858D01*
X14327142Y29440477D01*
X14231904Y29488096D01*
X13946190Y29488096D01*
X13850952Y29440477D01*
X13803333Y29392858D01*
X13755714Y29297620D01*
X13755714Y29154762D01*
X13803333Y29059524D01*
X13850952Y29011905D01*
X13946190Y28964286D01*
X14231904Y28964286D01*
X14327142Y29011905D01*
X14374761Y29059524D01*
X14422380Y29154762D01*
X14422380Y29297620D01*
X14422380Y28107143D02*
X13898571Y28107143D01*
X13803333Y28154762D01*
X13755714Y28250001D01*
X13755714Y28440477D01*
X13803333Y28535715D01*
X14374761Y28107143D02*
X14422380Y28202381D01*
X14422380Y28440477D01*
X14374761Y28535715D01*
X14279523Y28583334D01*
X14184285Y28583334D01*
X14089047Y28535715D01*
X14041428Y28440477D01*
X14041428Y28202381D01*
X13993809Y28107143D01*
X14422380Y27630953D02*
X13755714Y27630953D01*
X13946190Y27630953D02*
X13850952Y27583334D01*
X13803333Y27535715D01*
X13755714Y27440477D01*
X13755714Y27345239D01*
X14422380Y26583334D02*
X13422380Y26583334D01*
X14374761Y26583334D02*
X14422380Y26678572D01*
X14422380Y26869048D01*
X14374761Y26964286D01*
X14327142Y27011905D01*
X14231904Y27059524D01*
X13946190Y27059524D01*
X13850952Y27011905D01*
X13803333Y26964286D01*
X13755714Y26869048D01*
X13755714Y26678572D01*
X13803333Y26583334D01*
X13755714Y25488096D02*
X13755714Y25107143D01*
X14422380Y25345239D02*
X13565238Y25345239D01*
X13470000Y25297620D01*
X13422380Y25202381D01*
X13422380Y25107143D01*
X14422380Y24630953D02*
X14374761Y24726191D01*
X14327142Y24773810D01*
X14231904Y24821429D01*
X13946190Y24821429D01*
X13850952Y24773810D01*
X13803333Y24726191D01*
X13755714Y24630953D01*
X13755714Y24488096D01*
X13803333Y24392858D01*
X13850952Y24345239D01*
X13946190Y24297620D01*
X14231904Y24297620D01*
X14327142Y24345239D01*
X14374761Y24392858D01*
X14422380Y24488096D01*
X14422380Y24630953D01*
X14422380Y23869048D02*
X13755714Y23869048D01*
X13946190Y23869048D02*
X13850952Y23821429D01*
X13803333Y23773810D01*
X13755714Y23678572D01*
X13755714Y23583334D01*
X13898571Y22488096D02*
X13898571Y22154762D01*
X14422380Y22011905D02*
X14422380Y22488096D01*
X13422380Y22488096D01*
X13422380Y22011905D01*
X14422380Y21583334D02*
X13422380Y21583334D01*
X14136666Y21250001D01*
X13422380Y20916667D01*
X14422380Y20916667D01*
X13422380Y20440477D02*
X14231904Y20440477D01*
X14327142Y20392858D01*
X14374761Y20345239D01*
X14422380Y20250001D01*
X14422380Y20059524D01*
X14374761Y19964286D01*
X14327142Y19916667D01*
X14231904Y19869048D01*
X13422380Y19869048D01*
X13422380Y19488096D02*
X13422380Y18821429D01*
X14422380Y19488096D01*
X14422380Y18821429D01*
X13850952Y18297620D02*
X13803333Y18392858D01*
X13755714Y18440477D01*
X13660476Y18488096D01*
X13612857Y18488096D01*
X13517619Y18440477D01*
X13470000Y18392858D01*
X13422380Y18297620D01*
X13422380Y18107143D01*
X13470000Y18011905D01*
X13517619Y17964286D01*
X13612857Y17916667D01*
X13660476Y17916667D01*
X13755714Y17964286D01*
X13803333Y18011905D01*
X13850952Y18107143D01*
X13850952Y18297620D01*
X13898571Y18392858D01*
X13946190Y18440477D01*
X14041428Y18488096D01*
X14231904Y18488096D01*
X14327142Y18440477D01*
X14374761Y18392858D01*
X14422380Y18297620D01*
X14422380Y18107143D01*
X14374761Y18011905D01*
X14327142Y17964286D01*
X14231904Y17916667D01*
X14041428Y17916667D01*
X13946190Y17964286D01*
X13898571Y18011905D01*
X13850952Y18107143D01*
X13422380Y17297620D02*
X13422380Y17202381D01*
X13470000Y17107143D01*
X13517619Y17059524D01*
X13612857Y17011905D01*
X13803333Y16964286D01*
X14041428Y16964286D01*
X14231904Y17011905D01*
X14327142Y17059524D01*
X14374761Y17107143D01*
X14422380Y17202381D01*
X14422380Y17297620D01*
X14374761Y17392858D01*
X14327142Y17440477D01*
X14231904Y17488096D01*
X14041428Y17535715D01*
X13803333Y17535715D01*
X13612857Y17488096D01*
X13517619Y17440477D01*
X13470000Y17392858D01*
X13422380Y17297620D01*
X16032380Y49273810D02*
X15032380Y49273810D01*
X16032380Y48845239D02*
X15508571Y48845239D01*
X15413333Y48892858D01*
X15365714Y48988096D01*
X15365714Y49130953D01*
X15413333Y49226191D01*
X15460952Y49273810D01*
X15365714Y48511905D02*
X15365714Y48130953D01*
X15032380Y48369048D02*
X15889523Y48369048D01*
X15984761Y48321429D01*
X16032380Y48226191D01*
X16032380Y48130953D01*
X15365714Y47940477D02*
X15365714Y47559524D01*
X15032380Y47797620D02*
X15889523Y47797620D01*
X15984761Y47750000D01*
X16032380Y47654762D01*
X16032380Y47559524D01*
X15365714Y47226191D02*
X16365714Y47226191D01*
X15413333Y47226191D02*
X15365714Y47130953D01*
X15365714Y46940477D01*
X15413333Y46845239D01*
X15460952Y46797620D01*
X15556190Y46750000D01*
X15841904Y46750000D01*
X15937142Y46797620D01*
X15984761Y46845239D01*
X16032380Y46940477D01*
X16032380Y47130953D01*
X15984761Y47226191D01*
X15984761Y46369048D02*
X16032380Y46273810D01*
X16032380Y46083334D01*
X15984761Y45988096D01*
X15889523Y45940477D01*
X15841904Y45940477D01*
X15746666Y45988096D01*
X15699047Y46083334D01*
X15699047Y46226191D01*
X15651428Y46321429D01*
X15556190Y46369048D01*
X15508571Y46369048D01*
X15413333Y46321429D01*
X15365714Y46226191D01*
X15365714Y46083334D01*
X15413333Y45988096D01*
X15937142Y45511905D02*
X15984761Y45464286D01*
X16032380Y45511905D01*
X15984761Y45559524D01*
X15937142Y45511905D01*
X16032380Y45511905D01*
X15413333Y45511905D02*
X15460952Y45464286D01*
X15508571Y45511905D01*
X15460952Y45559524D01*
X15413333Y45511905D01*
X15508571Y45511905D01*
X14984761Y44321429D02*
X16270476Y45178572D01*
X14984761Y43273810D02*
X16270476Y44130953D01*
X15365714Y42511905D02*
X16175238Y42511905D01*
X16270476Y42559524D01*
X16318095Y42607143D01*
X16365714Y42702381D01*
X16365714Y42845239D01*
X16318095Y42940477D01*
X15984761Y42511905D02*
X16032380Y42607143D01*
X16032380Y42797620D01*
X15984761Y42892858D01*
X15937142Y42940477D01*
X15841904Y42988096D01*
X15556190Y42988096D01*
X15460952Y42940477D01*
X15413333Y42892858D01*
X15365714Y42797620D01*
X15365714Y42607143D01*
X15413333Y42511905D01*
X16032380Y42035715D02*
X15365714Y42035715D01*
X15032380Y42035715D02*
X15080000Y42083334D01*
X15127619Y42035715D01*
X15080000Y41988096D01*
X15032380Y42035715D01*
X15127619Y42035715D01*
X15365714Y41702381D02*
X15365714Y41321429D01*
X15032380Y41559524D02*
X15889523Y41559524D01*
X15984761Y41511905D01*
X16032380Y41416667D01*
X16032380Y41321429D01*
X16032380Y40988096D02*
X15032380Y40988096D01*
X16032380Y40559524D02*
X15508571Y40559524D01*
X15413333Y40607143D01*
X15365714Y40702381D01*
X15365714Y40845239D01*
X15413333Y40940477D01*
X15460952Y40988096D01*
X15365714Y39654762D02*
X16032380Y39654762D01*
X15365714Y40083334D02*
X15889523Y40083334D01*
X15984761Y40035715D01*
X16032380Y39940477D01*
X16032380Y39797620D01*
X15984761Y39702381D01*
X15937142Y39654762D01*
X16032380Y39178572D02*
X15032380Y39178572D01*
X15413333Y39178572D02*
X15365714Y39083334D01*
X15365714Y38892858D01*
X15413333Y38797620D01*
X15460952Y38750000D01*
X15556190Y38702381D01*
X15841904Y38702381D01*
X15937142Y38750000D01*
X15984761Y38797620D01*
X16032380Y38892858D01*
X16032380Y39083334D01*
X15984761Y39178572D01*
X15937142Y38273810D02*
X15984761Y38226191D01*
X16032380Y38273810D01*
X15984761Y38321429D01*
X15937142Y38273810D01*
X16032380Y38273810D01*
X15984761Y37369048D02*
X16032380Y37464286D01*
X16032380Y37654762D01*
X15984761Y37750000D01*
X15937142Y37797620D01*
X15841904Y37845239D01*
X15556190Y37845239D01*
X15460952Y37797620D01*
X15413333Y37750000D01*
X15365714Y37654762D01*
X15365714Y37464286D01*
X15413333Y37369048D01*
X16032380Y36797620D02*
X15984761Y36892858D01*
X15937142Y36940477D01*
X15841904Y36988096D01*
X15556190Y36988096D01*
X15460952Y36940477D01*
X15413333Y36892858D01*
X15365714Y36797620D01*
X15365714Y36654762D01*
X15413333Y36559524D01*
X15460952Y36511905D01*
X15556190Y36464286D01*
X15841904Y36464286D01*
X15937142Y36511905D01*
X15984761Y36559524D01*
X16032380Y36654762D01*
X16032380Y36797620D01*
X16032380Y36035715D02*
X15365714Y36035715D01*
X15460952Y36035715D02*
X15413333Y35988096D01*
X15365714Y35892858D01*
X15365714Y35750000D01*
X15413333Y35654762D01*
X15508571Y35607143D01*
X16032380Y35607143D01*
X15508571Y35607143D02*
X15413333Y35559524D01*
X15365714Y35464286D01*
X15365714Y35321429D01*
X15413333Y35226191D01*
X15508571Y35178572D01*
X16032380Y35178572D01*
X14984761Y33988096D02*
X16270476Y34845239D01*
X15984761Y33702381D02*
X16032380Y33607143D01*
X16032380Y33416667D01*
X15984761Y33321429D01*
X15889523Y33273810D01*
X15841904Y33273810D01*
X15746666Y33321429D01*
X15699047Y33416667D01*
X15699047Y33559524D01*
X15651428Y33654762D01*
X15556190Y33702381D01*
X15508571Y33702381D01*
X15413333Y33654762D01*
X15365714Y33559524D01*
X15365714Y33416667D01*
X15413333Y33321429D01*
X16032380Y32416667D02*
X15508571Y32416667D01*
X15413333Y32464286D01*
X15365714Y32559524D01*
X15365714Y32750000D01*
X15413333Y32845239D01*
X15984761Y32416667D02*
X16032380Y32511905D01*
X16032380Y32750000D01*
X15984761Y32845239D01*
X15889523Y32892858D01*
X15794285Y32892858D01*
X15699047Y32845239D01*
X15651428Y32750000D01*
X15651428Y32511905D01*
X15603809Y32416667D01*
X15365714Y32083334D02*
X15365714Y31702381D01*
X15032380Y31940477D02*
X15889523Y31940477D01*
X15984761Y31892858D01*
X16032380Y31797620D01*
X16032380Y31702381D01*
X16032380Y31226191D02*
X15984761Y31321429D01*
X15937142Y31369048D01*
X15841904Y31416667D01*
X15556190Y31416667D01*
X15460952Y31369048D01*
X15413333Y31321429D01*
X15365714Y31226191D01*
X15365714Y31083334D01*
X15413333Y30988096D01*
X15460952Y30940477D01*
X15556190Y30892858D01*
X15841904Y30892858D01*
X15937142Y30940477D01*
X15984761Y30988096D01*
X16032380Y31083334D01*
X16032380Y31226191D01*
X15984761Y30511905D02*
X16032380Y30416667D01*
X16032380Y30226191D01*
X15984761Y30130953D01*
X15889523Y30083334D01*
X15841904Y30083334D01*
X15746666Y30130953D01*
X15699047Y30226191D01*
X15699047Y30369048D01*
X15651428Y30464286D01*
X15556190Y30511905D01*
X15508571Y30511905D01*
X15413333Y30464286D01*
X15365714Y30369048D01*
X15365714Y30226191D01*
X15413333Y30130953D01*
X16032380Y29654762D02*
X15032380Y29654762D01*
X16032380Y29226191D02*
X15508571Y29226191D01*
X15413333Y29273810D01*
X15365714Y29369048D01*
X15365714Y29511905D01*
X15413333Y29607143D01*
X15460952Y29654762D01*
X16032380Y28750000D02*
X15365714Y28750000D01*
X15032380Y28750000D02*
X15080000Y28797620D01*
X15127619Y28750000D01*
X15080000Y28702381D01*
X15032380Y28750000D01*
X15127619Y28750000D01*
X16032380Y28130953D02*
X15984761Y28226191D01*
X15937142Y28273810D01*
X15841904Y28321429D01*
X15556190Y28321429D01*
X15460952Y28273810D01*
X15413333Y28226191D01*
X15365714Y28130953D01*
X15365714Y27988096D01*
X15413333Y27892858D01*
X15460952Y27845239D01*
X15556190Y27797620D01*
X15841904Y27797620D01*
X15937142Y27845239D01*
X15984761Y27892858D01*
X16032380Y27988096D01*
X16032380Y28130953D01*
X16032380Y27369048D02*
X15032380Y27369048D01*
X15651428Y27273810D02*
X16032380Y26988096D01*
X15365714Y26988096D02*
X15746666Y27369048D01*
X15365714Y26130953D02*
X16032380Y26130953D01*
X15365714Y26559524D02*
X15889523Y26559524D01*
X15984761Y26511905D01*
X16032380Y26416667D01*
X16032380Y26273810D01*
X15984761Y26178572D01*
X15937142Y26130953D01*
X15984761Y25273810D02*
X16032380Y25369048D01*
X16032380Y25559524D01*
X15984761Y25654762D01*
X15889523Y25702381D01*
X15508571Y25702381D01*
X15413333Y25654762D01*
X15365714Y25559524D01*
X15365714Y25369048D01*
X15413333Y25273810D01*
X15508571Y25226191D01*
X15603809Y25226191D01*
X15699047Y25702381D01*
X14984761Y24083334D02*
X16270476Y24940477D01*
X15508571Y23750000D02*
X15508571Y23416667D01*
X16032380Y23273810D02*
X16032380Y23750000D01*
X15032380Y23750000D01*
X15032380Y23273810D01*
X16032380Y22845239D02*
X15032380Y22845239D01*
X15746666Y22511905D01*
X15032380Y22178572D01*
X16032380Y22178572D01*
X15032380Y21702381D02*
X15841904Y21702381D01*
X15937142Y21654762D01*
X15984761Y21607143D01*
X16032380Y21511905D01*
X16032380Y21321429D01*
X15984761Y21226191D01*
X15937142Y21178572D01*
X15841904Y21130953D01*
X15032380Y21130953D01*
X15032380Y20750000D02*
X15032380Y20083334D01*
X16032380Y20750000D01*
X16032380Y20083334D01*
X15460952Y19559524D02*
X15413333Y19654762D01*
X15365714Y19702381D01*
X15270476Y19750000D01*
X15222857Y19750000D01*
X15127619Y19702381D01*
X15080000Y19654762D01*
X15032380Y19559524D01*
X15032380Y19369048D01*
X15080000Y19273810D01*
X15127619Y19226191D01*
X15222857Y19178572D01*
X15270476Y19178572D01*
X15365714Y19226191D01*
X15413333Y19273810D01*
X15460952Y19369048D01*
X15460952Y19559524D01*
X15508571Y19654762D01*
X15556190Y19702381D01*
X15651428Y19750000D01*
X15841904Y19750000D01*
X15937142Y19702381D01*
X15984761Y19654762D01*
X16032380Y19559524D01*
X16032380Y19369048D01*
X15984761Y19273810D01*
X15937142Y19226191D01*
X15841904Y19178572D01*
X15651428Y19178572D01*
X15556190Y19226191D01*
X15508571Y19273810D01*
X15460952Y19369048D01*
X15032380Y18559524D02*
X15032380Y18464286D01*
X15080000Y18369048D01*
X15127619Y18321429D01*
X15222857Y18273810D01*
X15413333Y18226191D01*
X15651428Y18226191D01*
X15841904Y18273810D01*
X15937142Y18321429D01*
X15984761Y18369048D01*
X16032380Y18464286D01*
X16032380Y18559524D01*
X15984761Y18654762D01*
X15937142Y18702381D01*
X15841904Y18750000D01*
X15651428Y18797620D01*
X15413333Y18797620D01*
X15222857Y18750000D01*
X15127619Y18702381D01*
X15080000Y18654762D01*
X15032380Y18559524D01*
X15651428Y17797620D02*
X15651428Y17035715D01*
X15032380Y16130953D02*
X15032380Y16321429D01*
X15080000Y16416667D01*
X15127619Y16464286D01*
X15270476Y16559524D01*
X15460952Y16607143D01*
X15841904Y16607143D01*
X15937142Y16559524D01*
X15984761Y16511905D01*
X16032380Y16416667D01*
X16032380Y16226191D01*
X15984761Y16130953D01*
X15937142Y16083334D01*
X15841904Y16035715D01*
X15603809Y16035715D01*
X15508571Y16083334D01*
X15460952Y16130953D01*
X15413333Y16226191D01*
X15413333Y16416667D01*
X15460952Y16511905D01*
X15508571Y16559524D01*
X15603809Y16607143D01*
X15460952Y15464286D02*
X15413333Y15559524D01*
X15365714Y15607143D01*
X15270476Y15654762D01*
X15222857Y15654762D01*
X15127619Y15607143D01*
X15080000Y15559524D01*
X15032380Y15464286D01*
X15032380Y15273810D01*
X15080000Y15178572D01*
X15127619Y15130953D01*
X15222857Y15083334D01*
X15270476Y15083334D01*
X15365714Y15130953D01*
X15413333Y15178572D01*
X15460952Y15273810D01*
X15460952Y15464286D01*
X15508571Y15559524D01*
X15556190Y15607143D01*
X15651428Y15654762D01*
X15841904Y15654762D01*
X15937142Y15607143D01*
X15984761Y15559524D01*
X16032380Y15464286D01*
X16032380Y15273810D01*
X15984761Y15178572D01*
X15937142Y15130953D01*
X15841904Y15083334D01*
X15651428Y15083334D01*
X15556190Y15130953D01*
X15508571Y15178572D01*
X15460952Y15273810D01*
X15032380Y14464286D02*
X15032380Y14369048D01*
X15080000Y14273810D01*
X15127619Y14226191D01*
X15222857Y14178572D01*
X15413333Y14130953D01*
X15651428Y14130953D01*
X15841904Y14178572D01*
X15937142Y14226191D01*
X15984761Y14273810D01*
X16032380Y14369048D01*
X16032380Y14464286D01*
X15984761Y14559524D01*
X15937142Y14607143D01*
X15841904Y14654762D01*
X15651428Y14702381D01*
X15413333Y14702381D01*
X15222857Y14654762D01*
X15127619Y14607143D01*
X15080000Y14559524D01*
X15032380Y14464286D01*
X15032380Y13511905D02*
X15032380Y13416667D01*
X15080000Y13321429D01*
X15127619Y13273810D01*
X15222857Y13226191D01*
X15413333Y13178572D01*
X15651428Y13178572D01*
X15841904Y13226191D01*
X15937142Y13273810D01*
X15984761Y13321429D01*
X16032380Y13416667D01*
X16032380Y13511905D01*
X15984761Y13607143D01*
X15937142Y13654762D01*
X15841904Y13702381D01*
X15651428Y13750000D01*
X15413333Y13750000D01*
X15222857Y13702381D01*
X15127619Y13654762D01*
X15080000Y13607143D01*
X15032380Y13511905D01*
X24463333Y58252620D02*
X24463333Y57538334D01*
X24510952Y57395477D01*
X24606190Y57300239D01*
X24749047Y57252620D01*
X24844285Y57252620D01*
X24034761Y58157381D02*
X23987142Y58205000D01*
X23891904Y58252620D01*
X23653809Y58252620D01*
X23558571Y58205000D01*
X23510952Y58157381D01*
X23463333Y58062143D01*
X23463333Y57966905D01*
X23510952Y57824048D01*
X24082380Y57252620D01*
X23463333Y57252620D01*
X4143333Y58252620D02*
X4143333Y57538334D01*
X4190952Y57395477D01*
X4286190Y57300239D01*
X4429047Y57252620D01*
X4524285Y57252620D01*
X3143333Y57252620D02*
X3714761Y57252620D01*
X3429047Y57252620D02*
X3429047Y58252620D01*
X3524285Y58109762D01*
X3619523Y58014524D01*
X3714761Y57966905D01*
D11*
X25460000Y55375000D02*
X25460000Y56705000D01*
X25460000Y54105000D02*
X25460000Y5785000D01*
X25460000Y5785000D02*
X22800000Y5785000D01*
X25460000Y54105000D02*
X22800000Y54105000D01*
X25460000Y56705000D02*
X24130000Y56705000D01*
X22800000Y54105000D02*
X22800000Y5785000D01*
X5140000Y56705000D02*
X3810000Y56705000D01*
X5140000Y54105000D02*
X5140000Y5785000D01*
X5140000Y5785000D02*
X2480000Y5785000D01*
X5140000Y55375000D02*
X5140000Y56705000D01*
X5140000Y54105000D02*
X2480000Y54105000D01*
X2480000Y54105000D02*
X2480000Y5785000D01*
M02*
