G04 #@! TF.GenerationSoftware,KiCad,Pcbnew,(6.0.7-1)-1*
G04 #@! TF.CreationDate,2022-09-10T00:17:00+09:00*
G04 #@! TF.ProjectId,MEZ6800,4d455a36-3830-4302-9e6b-696361645f70,A*
G04 #@! TF.SameCoordinates,PX5f5e100PY8f0d180*
G04 #@! TF.FileFunction,Copper,L2,Bot*
G04 #@! TF.FilePolarity,Positive*
%FSLAX46Y46*%
G04 Gerber Fmt 4.6, Leading zero omitted, Abs format (unit mm)*
G04 Created by KiCad (PCBNEW (6.0.7-1)-1) date 2022-09-10 00:17:00*
%MOMM*%
%LPD*%
G01*
G04 APERTURE LIST*
G04 #@! TA.AperFunction,ComponentPad*
%ADD10O,1.600000X1.600000*%
G04 #@! TD*
G04 #@! TA.AperFunction,ComponentPad*
%ADD11R,1.600000X1.600000*%
G04 #@! TD*
G04 #@! TA.AperFunction,ComponentPad*
%ADD12C,1.600000*%
G04 #@! TD*
G04 #@! TA.AperFunction,ComponentPad*
%ADD13O,1.700000X1.700000*%
G04 #@! TD*
G04 #@! TA.AperFunction,ComponentPad*
%ADD14R,1.700000X1.700000*%
G04 #@! TD*
G04 #@! TA.AperFunction,ViaPad*
%ADD15C,0.605000*%
G04 #@! TD*
G04 #@! TA.AperFunction,Conductor*
%ADD16C,0.152400*%
G04 #@! TD*
G04 APERTURE END LIST*
D10*
X6355000Y7125000D03*
X6355000Y9665000D03*
X6355000Y12205000D03*
X6355000Y14745000D03*
X6355000Y17285000D03*
X6355000Y19825000D03*
X6355000Y22365000D03*
X6355000Y24905000D03*
X6355000Y27445000D03*
X6355000Y29985000D03*
X6355000Y32525000D03*
X6355000Y35065000D03*
X6355000Y37605000D03*
X6355000Y40145000D03*
X6355000Y42685000D03*
X6355000Y45225000D03*
X6355000Y47765000D03*
X6355000Y50305000D03*
X6355000Y52845000D03*
X6355000Y55385000D03*
X21595000Y55385000D03*
X21595000Y52845000D03*
X21595000Y50305000D03*
X21595000Y47765000D03*
X21595000Y45225000D03*
X21595000Y42685000D03*
X21595000Y40145000D03*
X21595000Y37605000D03*
X21595000Y35065000D03*
X21595000Y32525000D03*
X21595000Y29985000D03*
X21595000Y27445000D03*
X21595000Y24905000D03*
X21595000Y22365000D03*
X21595000Y19825000D03*
X21595000Y17285000D03*
X21595000Y14745000D03*
X21595000Y12205000D03*
X21595000Y9665000D03*
D11*
X21595000Y7125000D03*
D12*
X3195000Y2675000D03*
X5695000Y2675000D03*
D13*
X24130000Y7115000D03*
X24130000Y9655000D03*
X24130000Y12195000D03*
X24130000Y14735000D03*
X24130000Y17275000D03*
X24130000Y19815000D03*
X24130000Y22355000D03*
X24130000Y24895000D03*
X24130000Y27435000D03*
X24130000Y29975000D03*
X24130000Y32515000D03*
X24130000Y35055000D03*
X24130000Y37595000D03*
X24130000Y40135000D03*
X24130000Y42675000D03*
X24130000Y45215000D03*
X24130000Y47755000D03*
X24130000Y50295000D03*
X24130000Y52835000D03*
D14*
X24130000Y55375000D03*
D13*
X3810000Y7115000D03*
X3810000Y9655000D03*
X3810000Y12195000D03*
X3810000Y14735000D03*
X3810000Y17275000D03*
X3810000Y19815000D03*
X3810000Y22355000D03*
X3810000Y24895000D03*
X3810000Y27435000D03*
X3810000Y29975000D03*
X3810000Y32515000D03*
X3810000Y35055000D03*
X3810000Y37595000D03*
X3810000Y40135000D03*
X3810000Y42675000D03*
X3810000Y45215000D03*
X3810000Y47755000D03*
X3810000Y50295000D03*
X3810000Y52835000D03*
D14*
X3810000Y55375000D03*
D15*
X19685000Y16010000D03*
X19685000Y52840000D03*
X26035000Y43950000D03*
X9525000Y16010000D03*
X9525000Y52840000D03*
X19685000Y31250000D03*
X26035000Y2675000D03*
X1905000Y33790000D03*
X9525000Y31250000D03*
X26035000Y57920000D03*
D16*
X5969100Y56455200D02*
X19495900Y56455200D01*
X4888900Y55375000D02*
X5969100Y56455200D01*
X19495900Y56455200D02*
X20566100Y55385000D01*
X3810000Y55375000D02*
X4888900Y55375000D01*
X21595000Y55385000D02*
X20566100Y55385000D01*
X5316100Y52835000D02*
X5326100Y52845000D01*
X3810000Y52835000D02*
X5316100Y52835000D01*
X6355000Y52845000D02*
X5326100Y52845000D01*
X5316100Y50295000D02*
X5326100Y50305000D01*
X6355000Y50305000D02*
X5326100Y50305000D01*
X3810000Y50295000D02*
X5316100Y50295000D01*
X3810000Y47755000D02*
X5316100Y47755000D01*
X5316100Y47755000D02*
X5326100Y47765000D01*
X6355000Y47765000D02*
X5326100Y47765000D01*
X5316100Y45215000D02*
X5326100Y45225000D01*
X6355000Y45225000D02*
X5326100Y45225000D01*
X3810000Y45215000D02*
X5316100Y45215000D01*
X4888900Y11677800D02*
X4888900Y19870000D01*
X6355000Y22365000D02*
X6355000Y21336100D01*
X3945000Y10733900D02*
X4888900Y11677800D01*
X3810000Y9655000D02*
X3810000Y10733900D01*
X4888900Y19870000D02*
X6355000Y21336100D01*
X3810000Y10733900D02*
X3945000Y10733900D01*
X3810000Y40135000D02*
X4888900Y40135000D01*
X6355000Y35065000D02*
X6355000Y36093900D01*
X6386900Y39056100D02*
X7404600Y38038400D01*
X7404600Y37143500D02*
X6355000Y36093900D01*
X5967800Y39056100D02*
X6386900Y39056100D01*
X4888900Y40135000D02*
X5967800Y39056100D01*
X7404600Y38038400D02*
X7404600Y37143500D01*
X4066100Y33785000D02*
X5326100Y32525000D01*
X6355000Y32525000D02*
X5326100Y32525000D01*
X3810000Y37595000D02*
X3810000Y36516100D01*
X3514600Y33785000D02*
X4066100Y33785000D01*
X3810000Y36516100D02*
X3675100Y36516100D01*
X2724300Y35565300D02*
X2724300Y34575300D01*
X3675100Y36516100D02*
X2724300Y35565300D01*
X2724300Y34575300D02*
X3514600Y33785000D01*
X6355000Y37605000D02*
X5326100Y37605000D01*
X3810000Y36133900D02*
X3961600Y36133900D01*
X3810000Y35055000D02*
X3810000Y36133900D01*
X5326100Y37498400D02*
X5326100Y37605000D01*
X3961600Y36133900D02*
X5326100Y37498400D01*
X6355000Y42685000D02*
X6355000Y41656100D01*
X6169600Y28715000D02*
X6549200Y28715000D01*
X6549200Y28715000D02*
X7721100Y29886900D01*
X7721100Y40290000D02*
X6355000Y41656100D01*
X4888900Y27434300D02*
X6169600Y28715000D01*
X3945000Y25973900D02*
X4888900Y26917800D01*
X7721100Y29886900D02*
X7721100Y40290000D01*
X4888900Y26917800D02*
X4888900Y27434300D01*
X3810000Y24895000D02*
X3810000Y25973900D01*
X3810000Y25973900D02*
X3945000Y25973900D01*
X3810000Y23433900D02*
X3961600Y23433900D01*
X5326100Y24798400D02*
X5326100Y24905000D01*
X6355000Y24905000D02*
X5326100Y24905000D01*
X3810000Y22355000D02*
X3810000Y23433900D01*
X3961600Y23433900D02*
X5326100Y24798400D01*
X3810000Y17275000D02*
X3810000Y16196100D01*
X3487100Y8385000D02*
X4066100Y8385000D01*
X2711600Y15232600D02*
X2711600Y9160500D01*
X2711600Y9160500D02*
X3487100Y8385000D01*
X4066100Y8385000D02*
X5326100Y7125000D01*
X3810000Y16196100D02*
X3675100Y16196100D01*
X3675100Y16196100D02*
X2711600Y15232600D01*
X6355000Y7125000D02*
X5326100Y7125000D01*
X23051100Y55375000D02*
X23051100Y55330000D01*
X24130000Y55375000D02*
X23051100Y55375000D01*
X23051100Y55330000D02*
X21595000Y53873900D01*
X21595000Y52845000D02*
X21595000Y53873900D01*
X23051100Y52790000D02*
X21595000Y51333900D01*
X23051100Y52835000D02*
X23051100Y52790000D01*
X21595000Y50305000D02*
X21595000Y51333900D01*
X24130000Y52835000D02*
X23051100Y52835000D01*
X21595000Y47765000D02*
X21595000Y48793900D01*
X23051100Y50295000D02*
X23051100Y50250000D01*
X23051100Y50250000D02*
X21595000Y48793900D01*
X24130000Y50295000D02*
X23051100Y50295000D01*
X21595000Y45225000D02*
X21595000Y46253900D01*
X24130000Y47755000D02*
X23051100Y47755000D01*
X23051100Y47755000D02*
X23051100Y47710000D01*
X23051100Y47710000D02*
X21595000Y46253900D01*
X21595000Y42685000D02*
X21595000Y43713900D01*
X23051100Y45215000D02*
X23051100Y45170000D01*
X24130000Y45215000D02*
X23051100Y45215000D01*
X23051100Y45170000D02*
X21595000Y43713900D01*
X24130000Y42675000D02*
X23051100Y42675000D01*
X23051100Y42630000D02*
X21595000Y41173900D01*
X23051100Y42675000D02*
X23051100Y42630000D01*
X21595000Y40145000D02*
X21595000Y41173900D01*
X23051100Y40090000D02*
X21595000Y38633900D01*
X24130000Y40135000D02*
X23051100Y40135000D01*
X21595000Y37605000D02*
X21595000Y38633900D01*
X23051100Y40135000D02*
X23051100Y40090000D01*
X21595000Y35065000D02*
X21595000Y36093900D01*
X24130000Y37595000D02*
X23051100Y37595000D01*
X23051100Y37595000D02*
X23051100Y37550000D01*
X23051100Y37550000D02*
X21595000Y36093900D01*
X21595000Y32525000D02*
X21595000Y33553900D01*
X24130000Y35055000D02*
X23051100Y35055000D01*
X23051100Y35055000D02*
X23051100Y35010000D01*
X23051100Y35010000D02*
X21595000Y33553900D01*
X21595000Y29985000D02*
X21595000Y31013900D01*
X23051100Y32515000D02*
X23051100Y32470000D01*
X24130000Y32515000D02*
X23051100Y32515000D01*
X23051100Y32470000D02*
X21595000Y31013900D01*
X24130000Y29975000D02*
X23051100Y29975000D01*
X23051100Y29930000D02*
X21595000Y28473900D01*
X23051100Y29975000D02*
X23051100Y29930000D01*
X21595000Y27445000D02*
X21595000Y28473900D01*
X24130000Y19815000D02*
X22633900Y19815000D01*
X22633900Y19815000D02*
X22623900Y19825000D01*
X21595000Y19825000D02*
X22623900Y19825000D01*
X24130000Y14735000D02*
X22633900Y14735000D01*
X22633900Y14735000D02*
X22623900Y14745000D01*
X21595000Y14745000D02*
X22623900Y14745000D01*
X23051100Y9720000D02*
X21595000Y11176100D01*
X24130000Y8193900D02*
X23995000Y8193900D01*
X23995000Y8193900D02*
X23051100Y9137800D01*
X21595000Y12205000D02*
X21595000Y11176100D01*
X24130000Y7115000D02*
X24130000Y8193900D01*
X23051100Y9137800D02*
X23051100Y9720000D01*
G04 #@! TA.AperFunction,Conductor*
G36*
X27442121Y59479998D02*
G01*
X27488614Y59426342D01*
X27500000Y59374000D01*
X27500000Y626000D01*
X27479998Y557879D01*
X27426342Y511386D01*
X27374000Y500000D01*
X626000Y500000D01*
X557879Y520002D01*
X511386Y573658D01*
X500000Y626000D01*
X500000Y1588938D01*
X2473493Y1588938D01*
X2482789Y1576923D01*
X2533994Y1541069D01*
X2543489Y1535586D01*
X2740947Y1443510D01*
X2751239Y1439764D01*
X2961688Y1383375D01*
X2972481Y1381472D01*
X3189525Y1362483D01*
X3200475Y1362483D01*
X3417519Y1381472D01*
X3428312Y1383375D01*
X3638761Y1439764D01*
X3649053Y1443510D01*
X3846511Y1535586D01*
X3856006Y1541069D01*
X3908048Y1577509D01*
X3916424Y1587988D01*
X3909356Y1601434D01*
X3207812Y2302978D01*
X3193868Y2310592D01*
X3192035Y2310461D01*
X3185420Y2306210D01*
X2479923Y1600713D01*
X2473493Y1588938D01*
X500000Y1588938D01*
X500000Y2669525D01*
X1882483Y2669525D01*
X1901472Y2452481D01*
X1903375Y2441688D01*
X1959764Y2231239D01*
X1963510Y2220947D01*
X2055586Y2023489D01*
X2061069Y2013994D01*
X2097509Y1961952D01*
X2107988Y1953576D01*
X2121434Y1960644D01*
X2822978Y2662188D01*
X2829356Y2673868D01*
X3559408Y2673868D01*
X3559539Y2672035D01*
X3563790Y2665420D01*
X4269287Y1959923D01*
X4281062Y1953493D01*
X4293077Y1962789D01*
X4328931Y2013994D01*
X4334414Y2023489D01*
X4417680Y2202054D01*
X4464597Y2255339D01*
X4532875Y2274800D01*
X4600835Y2254258D01*
X4646300Y2201556D01*
X4694369Y2097286D01*
X4816405Y1924609D01*
X4967865Y1777063D01*
X4972661Y1773858D01*
X4972664Y1773856D01*
X5115936Y1678125D01*
X5143677Y1659589D01*
X5148985Y1657308D01*
X5148986Y1657308D01*
X5332650Y1578400D01*
X5332653Y1578399D01*
X5337953Y1576122D01*
X5343582Y1574848D01*
X5343583Y1574848D01*
X5538550Y1530731D01*
X5538553Y1530731D01*
X5544186Y1529456D01*
X5549957Y1529229D01*
X5549959Y1529229D01*
X5611989Y1526792D01*
X5755470Y1521154D01*
X5761179Y1521982D01*
X5761183Y1521982D01*
X5959015Y1550667D01*
X5959019Y1550668D01*
X5964730Y1551496D01*
X6043987Y1578400D01*
X6159483Y1617605D01*
X6159488Y1617607D01*
X6164955Y1619463D01*
X6169998Y1622287D01*
X6344395Y1719954D01*
X6344399Y1719957D01*
X6349442Y1722781D01*
X6512012Y1857988D01*
X6647219Y2020558D01*
X6650043Y2025601D01*
X6650046Y2025605D01*
X6747713Y2200002D01*
X6747714Y2200004D01*
X6750537Y2205045D01*
X6752393Y2210512D01*
X6752395Y2210517D01*
X6816647Y2399800D01*
X6818504Y2405270D01*
X6823785Y2441688D01*
X6848314Y2610860D01*
X6848314Y2610862D01*
X6848846Y2614530D01*
X6850429Y2675000D01*
X6831081Y2885560D01*
X6773686Y3089069D01*
X6767455Y3101706D01*
X6682719Y3273531D01*
X6680165Y3278710D01*
X6553651Y3448133D01*
X6398381Y3591663D01*
X6219554Y3704495D01*
X6023160Y3782848D01*
X6017503Y3783973D01*
X6017497Y3783975D01*
X5821442Y3822972D01*
X5821440Y3822972D01*
X5815775Y3824099D01*
X5810000Y3824175D01*
X5809996Y3824175D01*
X5703976Y3825563D01*
X5604346Y3826867D01*
X5598649Y3825888D01*
X5598648Y3825888D01*
X5401650Y3792038D01*
X5401649Y3792038D01*
X5395953Y3791059D01*
X5197575Y3717873D01*
X5192614Y3714921D01*
X5192613Y3714921D01*
X5175089Y3704495D01*
X5015856Y3609762D01*
X4856881Y3470345D01*
X4725976Y3304292D01*
X4723284Y3299176D01*
X4723283Y3299174D01*
X4642201Y3145063D01*
X4592782Y3094090D01*
X4523649Y3077927D01*
X4456753Y3101706D01*
X4416498Y3150480D01*
X4334414Y3326511D01*
X4328931Y3336006D01*
X4292491Y3388048D01*
X4282012Y3396424D01*
X4268566Y3389356D01*
X3567022Y2687812D01*
X3559408Y2673868D01*
X2829356Y2673868D01*
X2830592Y2676132D01*
X2830461Y2677965D01*
X2826210Y2684580D01*
X2120713Y3390077D01*
X2108938Y3396507D01*
X2096923Y3387211D01*
X2061069Y3336006D01*
X2055586Y3326511D01*
X1963510Y3129053D01*
X1959764Y3118761D01*
X1903375Y2908312D01*
X1901472Y2897519D01*
X1882483Y2680475D01*
X1882483Y2669525D01*
X500000Y2669525D01*
X500000Y3762012D01*
X2473576Y3762012D01*
X2480644Y3748566D01*
X3182188Y3047022D01*
X3196132Y3039408D01*
X3197965Y3039539D01*
X3204580Y3043790D01*
X3910077Y3749287D01*
X3916507Y3761062D01*
X3907211Y3773077D01*
X3856006Y3808931D01*
X3846511Y3814414D01*
X3649053Y3906490D01*
X3638761Y3910236D01*
X3428312Y3966625D01*
X3417519Y3968528D01*
X3200475Y3987517D01*
X3189525Y3987517D01*
X2972481Y3968528D01*
X2961688Y3966625D01*
X2751239Y3910236D01*
X2740947Y3906490D01*
X2543489Y3814414D01*
X2533994Y3808931D01*
X2481952Y3772491D01*
X2473576Y3762012D01*
X500000Y3762012D01*
X500000Y9146945D01*
X2280292Y9146945D01*
X2281984Y9137683D01*
X2281984Y9137674D01*
X2290263Y9092348D01*
X2290914Y9088440D01*
X2299156Y9033616D01*
X2302116Y9027452D01*
X2303345Y9020723D01*
X2328922Y8971485D01*
X2330679Y8967969D01*
X2350620Y8926441D01*
X2350622Y8926437D01*
X2354698Y8917950D01*
X2359341Y8912928D01*
X2362493Y8906859D01*
X2366574Y8902081D01*
X2401749Y8866906D01*
X2405178Y8863341D01*
X2441795Y8823729D01*
X2447887Y8820190D01*
X2453424Y8815231D01*
X3047200Y8221455D01*
X3081226Y8159143D01*
X3076161Y8088328D01*
X3041182Y8037628D01*
X2935457Y7944910D01*
X2798863Y7771640D01*
X2696131Y7576380D01*
X2630703Y7365667D01*
X2604770Y7146560D01*
X2619200Y6926396D01*
X2620621Y6920800D01*
X2620622Y6920795D01*
X2666190Y6741373D01*
X2673511Y6712548D01*
X2675928Y6707306D01*
X2675928Y6707305D01*
X2714046Y6624621D01*
X2765883Y6512179D01*
X2893222Y6331998D01*
X3051264Y6178039D01*
X3056060Y6174834D01*
X3056063Y6174832D01*
X3140261Y6118573D01*
X3234717Y6055460D01*
X3240020Y6053182D01*
X3240023Y6053180D01*
X3362251Y6000667D01*
X3437436Y5968365D01*
X3517088Y5950342D01*
X3646995Y5920946D01*
X3647001Y5920945D01*
X3652632Y5919671D01*
X3658403Y5919444D01*
X3658405Y5919444D01*
X3726211Y5916780D01*
X3873098Y5911009D01*
X3982275Y5926839D01*
X4085738Y5941840D01*
X4085743Y5941841D01*
X4091452Y5942669D01*
X4096916Y5944524D01*
X4096921Y5944525D01*
X4294907Y6011732D01*
X4294912Y6011734D01*
X4300379Y6013590D01*
X4322757Y6026122D01*
X4405190Y6072287D01*
X4492884Y6121398D01*
X4559112Y6176479D01*
X4658086Y6258796D01*
X4662518Y6262482D01*
X4724256Y6336713D01*
X4799908Y6427674D01*
X4799910Y6427677D01*
X4803602Y6432116D01*
X4911410Y6624621D01*
X4913266Y6630088D01*
X4913268Y6630093D01*
X4930980Y6682273D01*
X4971817Y6740349D01*
X5037569Y6767128D01*
X5109259Y6753123D01*
X5116602Y6749235D01*
X5124179Y6743638D01*
X5130629Y6741373D01*
X5136257Y6737483D01*
X5145232Y6734645D01*
X5145237Y6734642D01*
X5189146Y6720756D01*
X5192902Y6719503D01*
X5240490Y6702791D01*
X5298135Y6661348D01*
X5313167Y6636660D01*
X5318717Y6624621D01*
X5354369Y6547286D01*
X5476405Y6374609D01*
X5627865Y6227063D01*
X5632661Y6223858D01*
X5632664Y6223856D01*
X5775936Y6128125D01*
X5803677Y6109589D01*
X5808985Y6107308D01*
X5808986Y6107308D01*
X5992650Y6028400D01*
X5992653Y6028399D01*
X5997953Y6026122D01*
X6003582Y6024848D01*
X6003583Y6024848D01*
X6198550Y5980731D01*
X6198553Y5980731D01*
X6204186Y5979456D01*
X6209957Y5979229D01*
X6209959Y5979229D01*
X6271989Y5976792D01*
X6415470Y5971154D01*
X6421179Y5971982D01*
X6421183Y5971982D01*
X6619015Y6000667D01*
X6619019Y6000668D01*
X6624730Y6001496D01*
X6703987Y6028400D01*
X6819483Y6067605D01*
X6819488Y6067607D01*
X6824955Y6069463D01*
X6829998Y6072287D01*
X7004395Y6169954D01*
X7004399Y6169957D01*
X7009442Y6172781D01*
X7138758Y6280331D01*
X20287001Y6280331D01*
X20287371Y6273510D01*
X20292895Y6222648D01*
X20296521Y6207396D01*
X20341676Y6086946D01*
X20350214Y6071351D01*
X20426715Y5969276D01*
X20439276Y5956715D01*
X20541351Y5880214D01*
X20556946Y5871676D01*
X20677394Y5826522D01*
X20692649Y5822895D01*
X20743514Y5817369D01*
X20750328Y5817000D01*
X21322885Y5817000D01*
X21338124Y5821475D01*
X21339329Y5822865D01*
X21341000Y5830548D01*
X21341000Y6852885D01*
X21336525Y6868124D01*
X21335135Y6869329D01*
X21327452Y6871000D01*
X20305116Y6871000D01*
X20289877Y6866525D01*
X20288672Y6865135D01*
X20287001Y6857452D01*
X20287001Y6280331D01*
X7138758Y6280331D01*
X7172012Y6307988D01*
X7307219Y6470558D01*
X7310043Y6475601D01*
X7310046Y6475605D01*
X7407713Y6650002D01*
X7407714Y6650004D01*
X7410537Y6655045D01*
X7412393Y6660512D01*
X7412395Y6660517D01*
X7476647Y6849800D01*
X7478504Y6855270D01*
X7479379Y6861300D01*
X7508314Y7060860D01*
X7508314Y7060862D01*
X7508846Y7064530D01*
X7510429Y7125000D01*
X7491081Y7335560D01*
X7478359Y7380671D01*
X7435255Y7533504D01*
X7433686Y7539069D01*
X7429744Y7547064D01*
X7342719Y7723531D01*
X7340165Y7728710D01*
X7213651Y7898133D01*
X7073863Y8027352D01*
X7062622Y8037743D01*
X7062620Y8037745D01*
X7058381Y8041663D01*
X6879554Y8154495D01*
X6786657Y8191557D01*
X6730798Y8235378D01*
X6707498Y8302442D01*
X6724154Y8371457D01*
X6775478Y8420512D01*
X6793701Y8427568D01*
X6793587Y8427881D01*
X6809053Y8433510D01*
X7006511Y8525586D01*
X7016007Y8531069D01*
X7194467Y8656028D01*
X7202875Y8663084D01*
X7356916Y8817125D01*
X7363972Y8825533D01*
X7488931Y9003993D01*
X7494414Y9013489D01*
X7586490Y9210947D01*
X7590236Y9221239D01*
X7636394Y9393503D01*
X7636058Y9407599D01*
X7628116Y9411000D01*
X6227000Y9411000D01*
X6158879Y9431002D01*
X6112386Y9484658D01*
X6101000Y9537000D01*
X6101000Y9793000D01*
X6121002Y9861121D01*
X6174658Y9907614D01*
X6227000Y9919000D01*
X7622967Y9919000D01*
X7636498Y9922973D01*
X7637727Y9931522D01*
X7590236Y10108761D01*
X7586490Y10119053D01*
X7494414Y10316511D01*
X7488931Y10326007D01*
X7363972Y10504467D01*
X7356916Y10512875D01*
X7202875Y10666916D01*
X7194467Y10673972D01*
X7016007Y10798931D01*
X7006511Y10804414D01*
X6809050Y10896491D01*
X6793783Y10902048D01*
X6736611Y10944142D01*
X6711273Y11010463D01*
X6725814Y11079955D01*
X6775616Y11130554D01*
X6796368Y11139759D01*
X6824955Y11149463D01*
X6829998Y11152287D01*
X7004395Y11249954D01*
X7004399Y11249957D01*
X7009442Y11252781D01*
X7172012Y11387988D01*
X7307219Y11550558D01*
X7310043Y11555601D01*
X7310046Y11555605D01*
X7407713Y11730002D01*
X7407714Y11730004D01*
X7410537Y11735045D01*
X7412393Y11740512D01*
X7412395Y11740517D01*
X7473070Y11919262D01*
X7478504Y11935270D01*
X7488855Y12006654D01*
X7508314Y12140860D01*
X7508314Y12140862D01*
X7508846Y12144530D01*
X7510429Y12205000D01*
X7491081Y12415560D01*
X7433686Y12619069D01*
X7429744Y12627064D01*
X7342719Y12803531D01*
X7340165Y12808710D01*
X7213651Y12978133D01*
X7113286Y13070910D01*
X7062622Y13117743D01*
X7062620Y13117745D01*
X7058381Y13121663D01*
X6976478Y13173340D01*
X6884434Y13231416D01*
X6884433Y13231416D01*
X6879554Y13234495D01*
X6683160Y13312848D01*
X6677503Y13313973D01*
X6677497Y13313975D01*
X6480234Y13353212D01*
X6417324Y13386119D01*
X6382192Y13447814D01*
X6385992Y13518709D01*
X6427517Y13576295D01*
X6486734Y13601487D01*
X6619015Y13620667D01*
X6619019Y13620668D01*
X6624730Y13621496D01*
X6703987Y13648400D01*
X6819483Y13687605D01*
X6819488Y13687607D01*
X6824955Y13689463D01*
X6829998Y13692287D01*
X7004395Y13789954D01*
X7004399Y13789957D01*
X7009442Y13792781D01*
X7172012Y13927988D01*
X7307219Y14090558D01*
X7310043Y14095601D01*
X7310046Y14095605D01*
X7407713Y14270002D01*
X7407714Y14270004D01*
X7410537Y14275045D01*
X7412393Y14280512D01*
X7412395Y14280517D01*
X7476647Y14469800D01*
X7478504Y14475270D01*
X7508846Y14684530D01*
X7510429Y14745000D01*
X7491081Y14955560D01*
X7433686Y15159069D01*
X7429744Y15167064D01*
X7342719Y15343531D01*
X7340165Y15348710D01*
X7213651Y15518133D01*
X7113286Y15610910D01*
X7062622Y15657743D01*
X7062620Y15657745D01*
X7058381Y15661663D01*
X6879554Y15774495D01*
X6683160Y15852848D01*
X6677503Y15853973D01*
X6677497Y15853975D01*
X6480234Y15893212D01*
X6417324Y15926119D01*
X6382192Y15987814D01*
X6385992Y16058709D01*
X6427517Y16116295D01*
X6486734Y16141487D01*
X6619015Y16160667D01*
X6619019Y16160668D01*
X6624730Y16161496D01*
X6703987Y16188400D01*
X6819483Y16227605D01*
X6819488Y16227607D01*
X6824955Y16229463D01*
X6829998Y16232287D01*
X7004395Y16329954D01*
X7004399Y16329957D01*
X7009442Y16332781D01*
X7172012Y16467988D01*
X7307219Y16630558D01*
X7310043Y16635601D01*
X7310046Y16635605D01*
X7407713Y16810002D01*
X7407714Y16810004D01*
X7410537Y16815045D01*
X7412393Y16820512D01*
X7412395Y16820517D01*
X7473070Y16999262D01*
X7478504Y17015270D01*
X7488855Y17086654D01*
X7508314Y17220860D01*
X7508314Y17220862D01*
X7508846Y17224530D01*
X7510429Y17285000D01*
X7491081Y17495560D01*
X7433686Y17699069D01*
X7429744Y17707064D01*
X7342719Y17883531D01*
X7340165Y17888710D01*
X7213651Y18058133D01*
X7113286Y18150910D01*
X7062622Y18197743D01*
X7062620Y18197745D01*
X7058381Y18201663D01*
X6879554Y18314495D01*
X6683160Y18392848D01*
X6677503Y18393973D01*
X6677497Y18393975D01*
X6480234Y18433212D01*
X6417324Y18466119D01*
X6382192Y18527814D01*
X6385992Y18598709D01*
X6427517Y18656295D01*
X6486734Y18681487D01*
X6619015Y18700667D01*
X6619019Y18700668D01*
X6624730Y18701496D01*
X6703987Y18728400D01*
X6819483Y18767605D01*
X6819488Y18767607D01*
X6824955Y18769463D01*
X6829998Y18772287D01*
X7004395Y18869954D01*
X7004399Y18869957D01*
X7009442Y18872781D01*
X7172012Y19007988D01*
X7307219Y19170558D01*
X7310043Y19175601D01*
X7310046Y19175605D01*
X7407713Y19350002D01*
X7407714Y19350004D01*
X7410537Y19355045D01*
X7412393Y19360512D01*
X7412395Y19360517D01*
X7476647Y19549800D01*
X7478504Y19555270D01*
X7508846Y19764530D01*
X7510429Y19825000D01*
X7491081Y20035560D01*
X7433686Y20239069D01*
X7429744Y20247064D01*
X7342719Y20423531D01*
X7340165Y20428710D01*
X7213651Y20598133D01*
X7058381Y20741663D01*
X6879554Y20854495D01*
X6761086Y20901759D01*
X6705228Y20945578D01*
X6681927Y21012642D01*
X6698583Y21081658D01*
X6706426Y21093648D01*
X6736363Y21134179D01*
X6738629Y21140631D01*
X6742517Y21146257D01*
X6746760Y21159671D01*
X6759248Y21199161D01*
X6760502Y21202918D01*
X6761699Y21206326D01*
X6775525Y21245695D01*
X6816967Y21303339D01*
X6832840Y21313879D01*
X6853480Y21325438D01*
X7009442Y21412781D01*
X7172012Y21547988D01*
X7307219Y21710558D01*
X7310043Y21715601D01*
X7310046Y21715605D01*
X7407713Y21890002D01*
X7407714Y21890004D01*
X7410537Y21895045D01*
X7412393Y21900512D01*
X7412395Y21900517D01*
X7473070Y22079262D01*
X7478504Y22095270D01*
X7488158Y22161846D01*
X7508314Y22300860D01*
X7508314Y22300862D01*
X7508846Y22304530D01*
X7510429Y22365000D01*
X7491081Y22575560D01*
X7433686Y22779069D01*
X7429744Y22787064D01*
X7342719Y22963531D01*
X7340165Y22968710D01*
X7213651Y23138133D01*
X7113286Y23230910D01*
X7062622Y23277743D01*
X7062620Y23277745D01*
X7058381Y23281663D01*
X6879554Y23394495D01*
X6683160Y23472848D01*
X6677503Y23473973D01*
X6677497Y23473975D01*
X6480234Y23513212D01*
X6417324Y23546119D01*
X6382192Y23607814D01*
X6385992Y23678709D01*
X6427517Y23736295D01*
X6486734Y23761487D01*
X6619015Y23780667D01*
X6619019Y23780668D01*
X6624730Y23781496D01*
X6703987Y23808400D01*
X6819483Y23847605D01*
X6819488Y23847607D01*
X6824955Y23849463D01*
X6829998Y23852287D01*
X7004395Y23949954D01*
X7004399Y23949957D01*
X7009442Y23952781D01*
X7172012Y24087988D01*
X7307219Y24250558D01*
X7310043Y24255601D01*
X7310046Y24255605D01*
X7407713Y24430002D01*
X7407714Y24430004D01*
X7410537Y24435045D01*
X7412393Y24440512D01*
X7412395Y24440517D01*
X7473070Y24619262D01*
X7478504Y24635270D01*
X7488855Y24706654D01*
X7508314Y24840860D01*
X7508314Y24840862D01*
X7508846Y24844530D01*
X7510429Y24905000D01*
X7491081Y25115560D01*
X7433686Y25319069D01*
X7429744Y25327064D01*
X7342719Y25503531D01*
X7340165Y25508710D01*
X7213651Y25678133D01*
X7058381Y25821663D01*
X6879554Y25934495D01*
X6683160Y26012848D01*
X6677503Y26013973D01*
X6677497Y26013975D01*
X6480234Y26053212D01*
X6417324Y26086119D01*
X6382192Y26147814D01*
X6385992Y26218709D01*
X6427517Y26276295D01*
X6486734Y26301487D01*
X6619015Y26320667D01*
X6619019Y26320668D01*
X6624730Y26321496D01*
X6703987Y26348400D01*
X6819483Y26387605D01*
X6819488Y26387607D01*
X6824955Y26389463D01*
X6839951Y26397861D01*
X7004395Y26489954D01*
X7004399Y26489957D01*
X7009442Y26492781D01*
X7172012Y26627988D01*
X7307219Y26790558D01*
X7310043Y26795601D01*
X7310046Y26795605D01*
X7407713Y26970002D01*
X7407714Y26970004D01*
X7410537Y26975045D01*
X7412393Y26980512D01*
X7412395Y26980517D01*
X7476647Y27169800D01*
X7478504Y27175270D01*
X7497605Y27307000D01*
X7508314Y27380860D01*
X7508314Y27380862D01*
X7508846Y27384530D01*
X7510429Y27445000D01*
X7491081Y27655560D01*
X7433686Y27859069D01*
X7423919Y27878876D01*
X7342719Y28043531D01*
X7340165Y28048710D01*
X7213651Y28218133D01*
X7058381Y28361663D01*
X7032902Y28377739D01*
X6985963Y28431005D01*
X6975273Y28501192D01*
X7004227Y28566017D01*
X7011041Y28573396D01*
X7999622Y29561977D01*
X8010712Y29571832D01*
X8028267Y29585671D01*
X8028270Y29585675D01*
X8035665Y29591504D01*
X8041019Y29599251D01*
X8041023Y29599255D01*
X8067215Y29637151D01*
X8069515Y29640371D01*
X8096868Y29677404D01*
X8102463Y29684979D01*
X8104729Y29691431D01*
X8108617Y29697057D01*
X8125348Y29749961D01*
X8126602Y29753719D01*
X8141857Y29797157D01*
X8144977Y29806041D01*
X8145246Y29812877D01*
X8147307Y29819395D01*
X8147800Y29825659D01*
X8147800Y29875420D01*
X8147897Y29880366D01*
X8147908Y29880644D01*
X8150014Y29934252D01*
X8148208Y29941063D01*
X8147800Y29948478D01*
X8147800Y40257197D01*
X8148673Y40272006D01*
X8151300Y40294203D01*
X8152407Y40303555D01*
X8144116Y40348954D01*
X8142442Y40358122D01*
X8141792Y40362025D01*
X8134944Y40407575D01*
X8134943Y40407578D01*
X8133544Y40416884D01*
X8130584Y40423049D01*
X8129355Y40429777D01*
X8103778Y40479015D01*
X8102021Y40482531D01*
X8082080Y40524059D01*
X8082078Y40524063D01*
X8078002Y40532550D01*
X8073359Y40537572D01*
X8070207Y40543641D01*
X8066126Y40548419D01*
X8030951Y40583594D01*
X8027521Y40587160D01*
X8014269Y40601496D01*
X7990905Y40626771D01*
X7984813Y40630310D01*
X7979276Y40635269D01*
X7037394Y41577151D01*
X7003368Y41639463D01*
X7008433Y41710278D01*
X7045917Y41763117D01*
X7172012Y41867988D01*
X7307219Y42030558D01*
X7310043Y42035601D01*
X7310046Y42035605D01*
X7407713Y42210002D01*
X7407714Y42210004D01*
X7410537Y42215045D01*
X7412393Y42220512D01*
X7412395Y42220517D01*
X7476647Y42409800D01*
X7478504Y42415270D01*
X7488158Y42481846D01*
X7508314Y42620860D01*
X7508314Y42620862D01*
X7508846Y42624530D01*
X7510429Y42685000D01*
X7491081Y42895560D01*
X7433686Y43099069D01*
X7430892Y43104736D01*
X7342719Y43283531D01*
X7340165Y43288710D01*
X7213651Y43458133D01*
X7058381Y43601663D01*
X6976478Y43653340D01*
X6884434Y43711416D01*
X6884433Y43711416D01*
X6879554Y43714495D01*
X6683160Y43792848D01*
X6677503Y43793973D01*
X6677497Y43793975D01*
X6480234Y43833212D01*
X6417324Y43866119D01*
X6382192Y43927814D01*
X6385992Y43998709D01*
X6427517Y44056295D01*
X6486734Y44081487D01*
X6619015Y44100667D01*
X6619019Y44100668D01*
X6624730Y44101496D01*
X6703987Y44128400D01*
X6819483Y44167605D01*
X6819488Y44167607D01*
X6824955Y44169463D01*
X6829998Y44172287D01*
X7004395Y44269954D01*
X7004399Y44269957D01*
X7009442Y44272781D01*
X7172012Y44407988D01*
X7307219Y44570558D01*
X7310043Y44575601D01*
X7310046Y44575605D01*
X7407713Y44750002D01*
X7407714Y44750004D01*
X7410537Y44755045D01*
X7412393Y44760512D01*
X7412395Y44760517D01*
X7476647Y44949800D01*
X7478504Y44955270D01*
X7508846Y45164530D01*
X7510429Y45225000D01*
X7491081Y45435560D01*
X7433686Y45639069D01*
X7430892Y45644736D01*
X7342719Y45823531D01*
X7340165Y45828710D01*
X7213651Y45998133D01*
X7058381Y46141663D01*
X6976478Y46193340D01*
X6884434Y46251416D01*
X6884433Y46251416D01*
X6879554Y46254495D01*
X6683160Y46332848D01*
X6677503Y46333973D01*
X6677497Y46333975D01*
X6480234Y46373212D01*
X6417324Y46406119D01*
X6382192Y46467814D01*
X6385992Y46538709D01*
X6427517Y46596295D01*
X6486734Y46621487D01*
X6619015Y46640667D01*
X6619019Y46640668D01*
X6624730Y46641496D01*
X6703987Y46668400D01*
X6819483Y46707605D01*
X6819488Y46707607D01*
X6824955Y46709463D01*
X6829998Y46712287D01*
X7004395Y46809954D01*
X7004399Y46809957D01*
X7009442Y46812781D01*
X7172012Y46947988D01*
X7307219Y47110558D01*
X7310043Y47115601D01*
X7310046Y47115605D01*
X7407713Y47290002D01*
X7407714Y47290004D01*
X7410537Y47295045D01*
X7412393Y47300512D01*
X7412395Y47300517D01*
X7476647Y47489800D01*
X7478504Y47495270D01*
X7508846Y47704530D01*
X7510429Y47765000D01*
X7491081Y47975560D01*
X7433686Y48179069D01*
X7430892Y48184736D01*
X7342719Y48363531D01*
X7340165Y48368710D01*
X7213651Y48538133D01*
X7058381Y48681663D01*
X6976478Y48733340D01*
X6884434Y48791416D01*
X6884433Y48791416D01*
X6879554Y48794495D01*
X6683160Y48872848D01*
X6677503Y48873973D01*
X6677497Y48873975D01*
X6480234Y48913212D01*
X6417324Y48946119D01*
X6382192Y49007814D01*
X6385992Y49078709D01*
X6427517Y49136295D01*
X6486734Y49161487D01*
X6619015Y49180667D01*
X6619019Y49180668D01*
X6624730Y49181496D01*
X6703987Y49208400D01*
X6819483Y49247605D01*
X6819488Y49247607D01*
X6824955Y49249463D01*
X6829998Y49252287D01*
X7004395Y49349954D01*
X7004399Y49349957D01*
X7009442Y49352781D01*
X7172012Y49487988D01*
X7307219Y49650558D01*
X7310043Y49655601D01*
X7310046Y49655605D01*
X7407713Y49830002D01*
X7407714Y49830004D01*
X7410537Y49835045D01*
X7412393Y49840512D01*
X7412395Y49840517D01*
X7476647Y50029800D01*
X7478504Y50035270D01*
X7508846Y50244530D01*
X7510429Y50305000D01*
X7491081Y50515560D01*
X7433686Y50719069D01*
X7430892Y50724736D01*
X7342719Y50903531D01*
X7340165Y50908710D01*
X7213651Y51078133D01*
X7058381Y51221663D01*
X6976478Y51273340D01*
X6884434Y51331416D01*
X6884433Y51331416D01*
X6879554Y51334495D01*
X6683160Y51412848D01*
X6677503Y51413973D01*
X6677497Y51413975D01*
X6480234Y51453212D01*
X6417324Y51486119D01*
X6382192Y51547814D01*
X6385992Y51618709D01*
X6427517Y51676295D01*
X6486734Y51701487D01*
X6619015Y51720667D01*
X6619019Y51720668D01*
X6624730Y51721496D01*
X6703987Y51748400D01*
X6819483Y51787605D01*
X6819488Y51787607D01*
X6824955Y51789463D01*
X6829998Y51792287D01*
X7004395Y51889954D01*
X7004399Y51889957D01*
X7009442Y51892781D01*
X7172012Y52027988D01*
X7307219Y52190558D01*
X7310043Y52195601D01*
X7310046Y52195605D01*
X7407713Y52370002D01*
X7407714Y52370004D01*
X7410537Y52375045D01*
X7412393Y52380512D01*
X7412395Y52380517D01*
X7476647Y52569800D01*
X7478504Y52575270D01*
X7508846Y52784530D01*
X7510429Y52845000D01*
X7491081Y53055560D01*
X7433686Y53259069D01*
X7430892Y53264736D01*
X7342719Y53443531D01*
X7340165Y53448710D01*
X7213651Y53618133D01*
X7058381Y53761663D01*
X6976478Y53813340D01*
X6884434Y53871416D01*
X6884433Y53871416D01*
X6879554Y53874495D01*
X6786657Y53911557D01*
X6730798Y53955378D01*
X6707498Y54022442D01*
X6724154Y54091457D01*
X6775478Y54140512D01*
X6793701Y54147568D01*
X6793587Y54147881D01*
X6809053Y54153510D01*
X7006511Y54245586D01*
X7016007Y54251069D01*
X7194467Y54376028D01*
X7202875Y54383084D01*
X7356916Y54537125D01*
X7363972Y54545533D01*
X7488931Y54723993D01*
X7494414Y54733489D01*
X7586490Y54930947D01*
X7590236Y54941239D01*
X7636394Y55113503D01*
X7636058Y55127599D01*
X7628116Y55131000D01*
X6227000Y55131000D01*
X6158879Y55151002D01*
X6112386Y55204658D01*
X6101000Y55257000D01*
X6101000Y55513000D01*
X6121002Y55581121D01*
X6174658Y55627614D01*
X6227000Y55639000D01*
X7622967Y55639000D01*
X7636498Y55642973D01*
X7637727Y55651522D01*
X7590236Y55828761D01*
X7586488Y55839058D01*
X7581735Y55849251D01*
X7571074Y55919442D01*
X7600054Y55984255D01*
X7659474Y56023111D01*
X7695930Y56028500D01*
X19266965Y56028500D01*
X19335086Y56008498D01*
X19356060Y55991595D01*
X20241177Y55106478D01*
X20251032Y55095388D01*
X20264870Y55077834D01*
X20264874Y55077830D01*
X20270704Y55070435D01*
X20278451Y55065081D01*
X20278453Y55065079D01*
X20316338Y55038896D01*
X20319550Y55036601D01*
X20364178Y55003638D01*
X20370629Y55001372D01*
X20376257Y54997483D01*
X20429214Y54980735D01*
X20432860Y54979519D01*
X20480492Y54962792D01*
X20538135Y54921351D01*
X20553166Y54896662D01*
X20594369Y54807286D01*
X20716405Y54634609D01*
X20746846Y54604955D01*
X20858327Y54496355D01*
X20867865Y54487063D01*
X20872661Y54483858D01*
X20872664Y54483856D01*
X20976173Y54414694D01*
X21043677Y54369589D01*
X21140463Y54328007D01*
X21191346Y54306146D01*
X21246040Y54260878D01*
X21267577Y54193227D01*
X21249120Y54124671D01*
X21242973Y54115537D01*
X21213638Y54075821D01*
X21211373Y54069371D01*
X21207483Y54063743D01*
X21204645Y54054768D01*
X21204642Y54054763D01*
X21190756Y54010854D01*
X21189503Y54007098D01*
X21174730Y53965031D01*
X21133287Y53907386D01*
X21107803Y53893210D01*
X21108209Y53892360D01*
X21102991Y53889871D01*
X21097575Y53887873D01*
X21092614Y53884921D01*
X21092613Y53884921D01*
X20935588Y53791501D01*
X20915856Y53779762D01*
X20756881Y53640345D01*
X20625976Y53474292D01*
X20623287Y53469181D01*
X20623285Y53469178D01*
X20609792Y53443531D01*
X20527523Y53287164D01*
X20464820Y53085227D01*
X20439967Y52875246D01*
X20453796Y52664251D01*
X20455217Y52658655D01*
X20455218Y52658650D01*
X20477784Y52569800D01*
X20505845Y52459310D01*
X20594369Y52267286D01*
X20716405Y52094609D01*
X20867865Y51947063D01*
X20872661Y51943858D01*
X20872664Y51943856D01*
X21015936Y51848125D01*
X21043677Y51829589D01*
X21174974Y51773180D01*
X21191346Y51766146D01*
X21246040Y51720878D01*
X21267577Y51653227D01*
X21249120Y51584671D01*
X21242973Y51575537D01*
X21213638Y51535821D01*
X21211373Y51529371D01*
X21207483Y51523743D01*
X21204645Y51514768D01*
X21204642Y51514763D01*
X21190756Y51470854D01*
X21189503Y51467098D01*
X21174730Y51425031D01*
X21133287Y51367386D01*
X21107803Y51353210D01*
X21108209Y51352360D01*
X21102991Y51349871D01*
X21097575Y51347873D01*
X21092614Y51344921D01*
X21092613Y51344921D01*
X20935588Y51251501D01*
X20915856Y51239762D01*
X20756881Y51100345D01*
X20625976Y50934292D01*
X20623287Y50929181D01*
X20623285Y50929178D01*
X20609792Y50903531D01*
X20527523Y50747164D01*
X20464820Y50545227D01*
X20439967Y50335246D01*
X20453796Y50124251D01*
X20455217Y50118655D01*
X20455218Y50118650D01*
X20477784Y50029800D01*
X20505845Y49919310D01*
X20594369Y49727286D01*
X20716405Y49554609D01*
X20867865Y49407063D01*
X20872661Y49403858D01*
X20872664Y49403856D01*
X21015936Y49308125D01*
X21043677Y49289589D01*
X21174974Y49233180D01*
X21191346Y49226146D01*
X21246040Y49180878D01*
X21267577Y49113227D01*
X21249120Y49044671D01*
X21242973Y49035537D01*
X21213638Y48995821D01*
X21211373Y48989371D01*
X21207483Y48983743D01*
X21204645Y48974768D01*
X21204642Y48974763D01*
X21190756Y48930854D01*
X21189503Y48927098D01*
X21174730Y48885031D01*
X21133287Y48827386D01*
X21107803Y48813210D01*
X21108209Y48812360D01*
X21102991Y48809871D01*
X21097575Y48807873D01*
X21092614Y48804921D01*
X21092613Y48804921D01*
X20935588Y48711501D01*
X20915856Y48699762D01*
X20756881Y48560345D01*
X20625976Y48394292D01*
X20623287Y48389181D01*
X20623285Y48389178D01*
X20609792Y48363531D01*
X20527523Y48207164D01*
X20464820Y48005227D01*
X20439967Y47795246D01*
X20453796Y47584251D01*
X20455217Y47578655D01*
X20455218Y47578650D01*
X20477784Y47489800D01*
X20505845Y47379310D01*
X20594369Y47187286D01*
X20716405Y47014609D01*
X20867865Y46867063D01*
X20872661Y46863858D01*
X20872664Y46863856D01*
X21015936Y46768125D01*
X21043677Y46749589D01*
X21174974Y46693180D01*
X21191346Y46686146D01*
X21246040Y46640878D01*
X21267577Y46573227D01*
X21249120Y46504671D01*
X21242973Y46495537D01*
X21213638Y46455821D01*
X21211373Y46449371D01*
X21207483Y46443743D01*
X21204645Y46434768D01*
X21204642Y46434763D01*
X21190756Y46390854D01*
X21189503Y46387098D01*
X21174730Y46345031D01*
X21133287Y46287386D01*
X21107803Y46273210D01*
X21108209Y46272360D01*
X21102991Y46269871D01*
X21097575Y46267873D01*
X21092614Y46264921D01*
X21092613Y46264921D01*
X20935588Y46171501D01*
X20915856Y46159762D01*
X20756881Y46020345D01*
X20625976Y45854292D01*
X20623287Y45849181D01*
X20623285Y45849178D01*
X20609792Y45823531D01*
X20527523Y45667164D01*
X20464820Y45465227D01*
X20439967Y45255246D01*
X20453796Y45044251D01*
X20455217Y45038655D01*
X20455218Y45038650D01*
X20477784Y44949800D01*
X20505845Y44839310D01*
X20594369Y44647286D01*
X20716405Y44474609D01*
X20867865Y44327063D01*
X20872661Y44323858D01*
X20872664Y44323856D01*
X21015936Y44228125D01*
X21043677Y44209589D01*
X21174974Y44153180D01*
X21191346Y44146146D01*
X21246040Y44100878D01*
X21267577Y44033227D01*
X21249120Y43964671D01*
X21242973Y43955537D01*
X21213638Y43915821D01*
X21211373Y43909371D01*
X21207483Y43903743D01*
X21204645Y43894768D01*
X21204642Y43894763D01*
X21190756Y43850854D01*
X21189503Y43847098D01*
X21174730Y43805031D01*
X21133287Y43747386D01*
X21107803Y43733210D01*
X21108209Y43732360D01*
X21102991Y43729871D01*
X21097575Y43727873D01*
X21092614Y43724921D01*
X21092613Y43724921D01*
X20935588Y43631501D01*
X20915856Y43619762D01*
X20756881Y43480345D01*
X20625976Y43314292D01*
X20623287Y43309181D01*
X20623285Y43309178D01*
X20609792Y43283531D01*
X20527523Y43127164D01*
X20464820Y42925227D01*
X20439967Y42715246D01*
X20453796Y42504251D01*
X20455217Y42498655D01*
X20455218Y42498650D01*
X20477784Y42409800D01*
X20505845Y42299310D01*
X20594369Y42107286D01*
X20716405Y41934609D01*
X20867865Y41787063D01*
X20872661Y41783858D01*
X20872664Y41783856D01*
X20982782Y41710278D01*
X21043677Y41669589D01*
X21174974Y41613180D01*
X21191346Y41606146D01*
X21246040Y41560878D01*
X21267577Y41493227D01*
X21249120Y41424671D01*
X21242973Y41415537D01*
X21213638Y41375821D01*
X21211373Y41369371D01*
X21207483Y41363743D01*
X21204645Y41354768D01*
X21204642Y41354763D01*
X21190756Y41310854D01*
X21189503Y41307098D01*
X21174730Y41265031D01*
X21133287Y41207386D01*
X21107803Y41193210D01*
X21108209Y41192360D01*
X21102991Y41189871D01*
X21097575Y41187873D01*
X21092614Y41184921D01*
X21092613Y41184921D01*
X20935588Y41091501D01*
X20915856Y41079762D01*
X20756881Y40940345D01*
X20625976Y40774292D01*
X20623287Y40769181D01*
X20623285Y40769178D01*
X20609792Y40743531D01*
X20527523Y40587164D01*
X20464820Y40385227D01*
X20439967Y40175246D01*
X20453796Y39964251D01*
X20455217Y39958655D01*
X20455218Y39958650D01*
X20459753Y39940795D01*
X20505845Y39759310D01*
X20594369Y39567286D01*
X20716405Y39394609D01*
X20867865Y39247063D01*
X20872661Y39243858D01*
X20872664Y39243856D01*
X21015936Y39148125D01*
X21043677Y39129589D01*
X21174974Y39073180D01*
X21191346Y39066146D01*
X21246040Y39020878D01*
X21267577Y38953227D01*
X21249120Y38884671D01*
X21242973Y38875537D01*
X21213638Y38835821D01*
X21211373Y38829371D01*
X21207483Y38823743D01*
X21204645Y38814768D01*
X21204642Y38814763D01*
X21190756Y38770854D01*
X21189503Y38767098D01*
X21174730Y38725031D01*
X21133287Y38667386D01*
X21107803Y38653210D01*
X21108209Y38652360D01*
X21102991Y38649871D01*
X21097575Y38647873D01*
X21092614Y38644921D01*
X21092613Y38644921D01*
X20935588Y38551501D01*
X20915856Y38539762D01*
X20756881Y38400345D01*
X20625976Y38234292D01*
X20623287Y38229181D01*
X20623285Y38229178D01*
X20609792Y38203531D01*
X20527523Y38047164D01*
X20464820Y37845227D01*
X20439967Y37635246D01*
X20453796Y37424251D01*
X20455217Y37418655D01*
X20455218Y37418650D01*
X20459753Y37400795D01*
X20505845Y37219310D01*
X20594369Y37027286D01*
X20716405Y36854609D01*
X20867865Y36707063D01*
X20872661Y36703858D01*
X20872664Y36703856D01*
X20941234Y36658039D01*
X21043677Y36589589D01*
X21174974Y36533180D01*
X21191346Y36526146D01*
X21246040Y36480878D01*
X21267577Y36413227D01*
X21249120Y36344671D01*
X21242973Y36335537D01*
X21213638Y36295821D01*
X21211373Y36289371D01*
X21207483Y36283743D01*
X21204645Y36274768D01*
X21204642Y36274763D01*
X21190756Y36230854D01*
X21189503Y36227098D01*
X21174730Y36185031D01*
X21133287Y36127386D01*
X21107803Y36113210D01*
X21108209Y36112360D01*
X21102991Y36109871D01*
X21097575Y36107873D01*
X21092614Y36104921D01*
X21092613Y36104921D01*
X20935588Y36011501D01*
X20915856Y35999762D01*
X20756881Y35860345D01*
X20625976Y35694292D01*
X20623287Y35689181D01*
X20623285Y35689178D01*
X20609792Y35663531D01*
X20527523Y35507164D01*
X20464820Y35305227D01*
X20439967Y35095246D01*
X20453796Y34884251D01*
X20505845Y34679310D01*
X20508262Y34674067D01*
X20586106Y34505209D01*
X20594369Y34487286D01*
X20716405Y34314609D01*
X20755304Y34276715D01*
X20856663Y34177976D01*
X20867865Y34167063D01*
X20872661Y34163858D01*
X20872664Y34163856D01*
X21015936Y34068125D01*
X21043677Y34049589D01*
X21174974Y33993180D01*
X21191346Y33986146D01*
X21246040Y33940878D01*
X21267577Y33873227D01*
X21249120Y33804671D01*
X21242973Y33795537D01*
X21213638Y33755821D01*
X21211373Y33749371D01*
X21207483Y33743743D01*
X21204645Y33734768D01*
X21204642Y33734763D01*
X21190756Y33690854D01*
X21189503Y33687098D01*
X21174730Y33645031D01*
X21133287Y33587386D01*
X21107803Y33573210D01*
X21108209Y33572360D01*
X21102991Y33569871D01*
X21097575Y33567873D01*
X21092614Y33564921D01*
X21092613Y33564921D01*
X20935588Y33471501D01*
X20915856Y33459762D01*
X20756881Y33320345D01*
X20625976Y33154292D01*
X20623287Y33149181D01*
X20623285Y33149178D01*
X20609792Y33123531D01*
X20527523Y32967164D01*
X20464820Y32765227D01*
X20439967Y32555246D01*
X20453796Y32344251D01*
X20455217Y32338655D01*
X20455218Y32338650D01*
X20459753Y32320795D01*
X20505845Y32139310D01*
X20508262Y32134067D01*
X20524751Y32098300D01*
X20594369Y31947286D01*
X20716405Y31774609D01*
X20720539Y31770582D01*
X20856663Y31637976D01*
X20867865Y31627063D01*
X20872661Y31623858D01*
X20872664Y31623856D01*
X21015936Y31528125D01*
X21043677Y31509589D01*
X21174974Y31453180D01*
X21191346Y31446146D01*
X21246040Y31400878D01*
X21267577Y31333227D01*
X21249120Y31264671D01*
X21242973Y31255537D01*
X21213638Y31215821D01*
X21211373Y31209371D01*
X21207483Y31203743D01*
X21204645Y31194768D01*
X21204642Y31194763D01*
X21190756Y31150854D01*
X21189503Y31147098D01*
X21174730Y31105031D01*
X21133287Y31047386D01*
X21107803Y31033210D01*
X21108209Y31032360D01*
X21102991Y31029871D01*
X21097575Y31027873D01*
X21092614Y31024921D01*
X21092613Y31024921D01*
X20935588Y30931501D01*
X20915856Y30919762D01*
X20756881Y30780345D01*
X20625976Y30614292D01*
X20623287Y30609181D01*
X20623285Y30609178D01*
X20609792Y30583531D01*
X20527523Y30427164D01*
X20464820Y30225227D01*
X20439967Y30015246D01*
X20453796Y29804251D01*
X20455217Y29798655D01*
X20455218Y29798650D01*
X20486011Y29677404D01*
X20505845Y29599310D01*
X20594369Y29407286D01*
X20716405Y29234609D01*
X20867865Y29087063D01*
X20872661Y29083858D01*
X20872664Y29083856D01*
X20941234Y29038039D01*
X21043677Y28969589D01*
X21174974Y28913180D01*
X21191346Y28906146D01*
X21246040Y28860878D01*
X21267577Y28793227D01*
X21249120Y28724671D01*
X21242973Y28715537D01*
X21213638Y28675821D01*
X21211373Y28669371D01*
X21207483Y28663743D01*
X21204645Y28654768D01*
X21204642Y28654763D01*
X21190756Y28610854D01*
X21189503Y28607098D01*
X21174730Y28565031D01*
X21133287Y28507386D01*
X21107803Y28493210D01*
X21108209Y28492360D01*
X21102991Y28489871D01*
X21097575Y28487873D01*
X21092614Y28484921D01*
X21092613Y28484921D01*
X20935588Y28391501D01*
X20915856Y28379762D01*
X20756881Y28240345D01*
X20625976Y28074292D01*
X20623287Y28069181D01*
X20623285Y28069178D01*
X20609792Y28043531D01*
X20527523Y27887164D01*
X20464820Y27685227D01*
X20439967Y27475246D01*
X20453796Y27264251D01*
X20455217Y27258655D01*
X20455218Y27258650D01*
X20477784Y27169800D01*
X20505845Y27059310D01*
X20594369Y26867286D01*
X20716405Y26694609D01*
X20867865Y26547063D01*
X20872661Y26543858D01*
X20872664Y26543856D01*
X20990182Y26465333D01*
X21043677Y26429589D01*
X21048985Y26427308D01*
X21048986Y26427308D01*
X21232650Y26348400D01*
X21232653Y26348399D01*
X21237953Y26346122D01*
X21243582Y26344848D01*
X21243583Y26344848D01*
X21438550Y26300731D01*
X21438553Y26300731D01*
X21444186Y26299456D01*
X21449958Y26299229D01*
X21455687Y26298475D01*
X21455327Y26295743D01*
X21511604Y26276784D01*
X21555950Y26221341D01*
X21563282Y26150724D01*
X21531271Y26087353D01*
X21470081Y26051349D01*
X21460704Y26049368D01*
X21301650Y26022038D01*
X21301649Y26022038D01*
X21295953Y26021059D01*
X21097575Y25947873D01*
X21092614Y25944921D01*
X21092613Y25944921D01*
X20935588Y25851501D01*
X20915856Y25839762D01*
X20756881Y25700345D01*
X20625976Y25534292D01*
X20623287Y25529181D01*
X20623285Y25529178D01*
X20609792Y25503531D01*
X20527523Y25347164D01*
X20464820Y25145227D01*
X20439967Y24935246D01*
X20453796Y24724251D01*
X20455217Y24718655D01*
X20455218Y24718650D01*
X20480460Y24619262D01*
X20505845Y24519310D01*
X20594369Y24327286D01*
X20716405Y24154609D01*
X20867865Y24007063D01*
X20872661Y24003858D01*
X20872664Y24003856D01*
X21015936Y23908125D01*
X21043677Y23889589D01*
X21048985Y23887308D01*
X21048986Y23887308D01*
X21232650Y23808400D01*
X21232653Y23808399D01*
X21237953Y23806122D01*
X21243582Y23804848D01*
X21243583Y23804848D01*
X21438550Y23760731D01*
X21438553Y23760731D01*
X21444186Y23759456D01*
X21449958Y23759229D01*
X21455687Y23758475D01*
X21455327Y23755743D01*
X21511604Y23736784D01*
X21555950Y23681341D01*
X21563282Y23610724D01*
X21531271Y23547353D01*
X21470081Y23511349D01*
X21460704Y23509368D01*
X21301650Y23482038D01*
X21301649Y23482038D01*
X21295953Y23481059D01*
X21097575Y23407873D01*
X21092614Y23404921D01*
X21092613Y23404921D01*
X20935588Y23311501D01*
X20915856Y23299762D01*
X20756881Y23160345D01*
X20625976Y22994292D01*
X20623287Y22989181D01*
X20623285Y22989178D01*
X20609792Y22963531D01*
X20527523Y22807164D01*
X20464820Y22605227D01*
X20439967Y22395246D01*
X20453796Y22184251D01*
X20455217Y22178655D01*
X20455218Y22178650D01*
X20480460Y22079262D01*
X20505845Y21979310D01*
X20594369Y21787286D01*
X20716405Y21614609D01*
X20867865Y21467063D01*
X20872661Y21463858D01*
X20872664Y21463856D01*
X20974396Y21395881D01*
X21043677Y21349589D01*
X21048985Y21347308D01*
X21048986Y21347308D01*
X21232650Y21268400D01*
X21232653Y21268399D01*
X21237953Y21266122D01*
X21243582Y21264848D01*
X21243583Y21264848D01*
X21438550Y21220731D01*
X21438553Y21220731D01*
X21444186Y21219456D01*
X21449958Y21219229D01*
X21455687Y21218475D01*
X21455327Y21215743D01*
X21511604Y21196784D01*
X21555950Y21141341D01*
X21563282Y21070724D01*
X21531271Y21007353D01*
X21470081Y20971349D01*
X21460704Y20969368D01*
X21301650Y20942038D01*
X21301649Y20942038D01*
X21295953Y20941059D01*
X21097575Y20867873D01*
X21092614Y20864921D01*
X21092613Y20864921D01*
X20935588Y20771501D01*
X20915856Y20759762D01*
X20756881Y20620345D01*
X20625976Y20454292D01*
X20623287Y20449181D01*
X20623285Y20449178D01*
X20609792Y20423531D01*
X20527523Y20267164D01*
X20464820Y20065227D01*
X20439967Y19855246D01*
X20453796Y19644251D01*
X20455217Y19638655D01*
X20455218Y19638650D01*
X20477784Y19549800D01*
X20505845Y19439310D01*
X20508262Y19434067D01*
X20536171Y19373528D01*
X20594369Y19247286D01*
X20716405Y19074609D01*
X20867865Y18927063D01*
X20872661Y18923858D01*
X20872664Y18923856D01*
X21015936Y18828125D01*
X21043677Y18809589D01*
X21048985Y18807308D01*
X21048986Y18807308D01*
X21232650Y18728400D01*
X21232653Y18728399D01*
X21237953Y18726122D01*
X21243582Y18724848D01*
X21243583Y18724848D01*
X21438550Y18680731D01*
X21438553Y18680731D01*
X21444186Y18679456D01*
X21449958Y18679229D01*
X21455687Y18678475D01*
X21455327Y18675743D01*
X21511604Y18656784D01*
X21555950Y18601341D01*
X21563282Y18530724D01*
X21531271Y18467353D01*
X21470081Y18431349D01*
X21460704Y18429368D01*
X21301650Y18402038D01*
X21301649Y18402038D01*
X21295953Y18401059D01*
X21097575Y18327873D01*
X21092614Y18324921D01*
X21092613Y18324921D01*
X20935588Y18231501D01*
X20915856Y18219762D01*
X20756881Y18080345D01*
X20625976Y17914292D01*
X20623287Y17909181D01*
X20623285Y17909178D01*
X20609792Y17883531D01*
X20527523Y17727164D01*
X20464820Y17525227D01*
X20439967Y17315246D01*
X20453796Y17104251D01*
X20455217Y17098655D01*
X20455218Y17098650D01*
X20480460Y16999262D01*
X20505845Y16899310D01*
X20594369Y16707286D01*
X20716405Y16534609D01*
X20867865Y16387063D01*
X20872661Y16383858D01*
X20872664Y16383856D01*
X21015936Y16288125D01*
X21043677Y16269589D01*
X21048985Y16267308D01*
X21048986Y16267308D01*
X21232650Y16188400D01*
X21232653Y16188399D01*
X21237953Y16186122D01*
X21243582Y16184848D01*
X21243583Y16184848D01*
X21438550Y16140731D01*
X21438553Y16140731D01*
X21444186Y16139456D01*
X21449958Y16139229D01*
X21455687Y16138475D01*
X21455327Y16135743D01*
X21511604Y16116784D01*
X21555950Y16061341D01*
X21563282Y15990724D01*
X21531271Y15927353D01*
X21470081Y15891349D01*
X21460704Y15889368D01*
X21301650Y15862038D01*
X21301649Y15862038D01*
X21295953Y15861059D01*
X21097575Y15787873D01*
X21092614Y15784921D01*
X21092613Y15784921D01*
X20935588Y15691501D01*
X20915856Y15679762D01*
X20756881Y15540345D01*
X20625976Y15374292D01*
X20623287Y15369181D01*
X20623285Y15369178D01*
X20586944Y15300105D01*
X20527523Y15187164D01*
X20464820Y14985227D01*
X20439967Y14775246D01*
X20453796Y14564251D01*
X20455217Y14558655D01*
X20455218Y14558650D01*
X20477784Y14469800D01*
X20505845Y14359310D01*
X20508262Y14354067D01*
X20536171Y14293528D01*
X20594369Y14167286D01*
X20716405Y13994609D01*
X20867865Y13847063D01*
X20872661Y13843858D01*
X20872664Y13843856D01*
X21015936Y13748125D01*
X21043677Y13729589D01*
X21048985Y13727308D01*
X21048986Y13727308D01*
X21232650Y13648400D01*
X21232653Y13648399D01*
X21237953Y13646122D01*
X21243582Y13644848D01*
X21243583Y13644848D01*
X21438550Y13600731D01*
X21438553Y13600731D01*
X21444186Y13599456D01*
X21449958Y13599229D01*
X21455687Y13598475D01*
X21455327Y13595743D01*
X21511604Y13576784D01*
X21555950Y13521341D01*
X21563282Y13450724D01*
X21531271Y13387353D01*
X21470081Y13351349D01*
X21460704Y13349368D01*
X21301650Y13322038D01*
X21301649Y13322038D01*
X21295953Y13321059D01*
X21097575Y13247873D01*
X21092614Y13244921D01*
X21092613Y13244921D01*
X20935588Y13151501D01*
X20915856Y13139762D01*
X20756881Y13000345D01*
X20625976Y12834292D01*
X20623287Y12829181D01*
X20623285Y12829178D01*
X20609792Y12803531D01*
X20527523Y12647164D01*
X20464820Y12445227D01*
X20439967Y12235246D01*
X20453796Y12024251D01*
X20455217Y12018655D01*
X20455218Y12018650D01*
X20480460Y11919262D01*
X20505845Y11819310D01*
X20594369Y11627286D01*
X20716405Y11454609D01*
X20867865Y11307063D01*
X20872661Y11303858D01*
X20872664Y11303856D01*
X20982782Y11230278D01*
X21043677Y11189589D01*
X21048977Y11187312D01*
X21048988Y11187306D01*
X21105150Y11163177D01*
X21159842Y11117909D01*
X21180010Y11066145D01*
X21181154Y11058534D01*
X21181156Y11058527D01*
X21182556Y11049216D01*
X21185516Y11043052D01*
X21186745Y11036323D01*
X21212322Y10987085D01*
X21214079Y10983569D01*
X21234020Y10942041D01*
X21234022Y10942037D01*
X21238098Y10933550D01*
X21242741Y10928528D01*
X21243535Y10927000D01*
X21243726Y10926397D01*
X21244660Y10924832D01*
X21245888Y10922468D01*
X21245103Y10922060D01*
X21264764Y10860127D01*
X21246251Y10791587D01*
X21193622Y10743935D01*
X21182405Y10739169D01*
X21147130Y10726155D01*
X21097575Y10707873D01*
X21092614Y10704921D01*
X21092613Y10704921D01*
X20935588Y10611501D01*
X20915856Y10599762D01*
X20756881Y10460345D01*
X20625976Y10294292D01*
X20623287Y10289181D01*
X20623285Y10289178D01*
X20573400Y10194362D01*
X20527523Y10107164D01*
X20464820Y9905227D01*
X20439967Y9695246D01*
X20453796Y9484251D01*
X20455217Y9478655D01*
X20455218Y9478650D01*
X20473263Y9407599D01*
X20505845Y9279310D01*
X20508262Y9274067D01*
X20552319Y9178499D01*
X20594369Y9087286D01*
X20716405Y8914609D01*
X20729265Y8902081D01*
X20825900Y8807944D01*
X20867865Y8767063D01*
X20872665Y8763856D01*
X21022462Y8663764D01*
X21067990Y8609287D01*
X21076838Y8538844D01*
X21046196Y8474800D01*
X20985794Y8437488D01*
X20952460Y8432999D01*
X20750331Y8432999D01*
X20743510Y8432629D01*
X20692648Y8427105D01*
X20677396Y8423479D01*
X20556946Y8378324D01*
X20541351Y8369786D01*
X20439276Y8293285D01*
X20426715Y8280724D01*
X20350214Y8178649D01*
X20341676Y8163054D01*
X20296522Y8042606D01*
X20292895Y8027351D01*
X20287369Y7976486D01*
X20287000Y7969672D01*
X20287000Y7397115D01*
X20291475Y7381876D01*
X20292865Y7380671D01*
X20300548Y7379000D01*
X21723000Y7379000D01*
X21791121Y7358998D01*
X21837614Y7305342D01*
X21849000Y7253000D01*
X21849000Y5835116D01*
X21853475Y5819877D01*
X21854865Y5818672D01*
X21862548Y5817001D01*
X22439669Y5817001D01*
X22446490Y5817371D01*
X22497352Y5822895D01*
X22512604Y5826521D01*
X22633054Y5871676D01*
X22648649Y5880214D01*
X22750724Y5956715D01*
X22763285Y5969276D01*
X22839786Y6071351D01*
X22848324Y6086946D01*
X22893478Y6207394D01*
X22897105Y6222649D01*
X22902631Y6273514D01*
X22903000Y6280328D01*
X22903000Y6374351D01*
X22923002Y6442472D01*
X22976658Y6488965D01*
X23046932Y6499069D01*
X23111512Y6469575D01*
X23131895Y6447073D01*
X23213222Y6331998D01*
X23371264Y6178039D01*
X23376060Y6174834D01*
X23376063Y6174832D01*
X23460261Y6118573D01*
X23554717Y6055460D01*
X23560020Y6053182D01*
X23560023Y6053180D01*
X23682251Y6000667D01*
X23757436Y5968365D01*
X23837088Y5950342D01*
X23966995Y5920946D01*
X23967001Y5920945D01*
X23972632Y5919671D01*
X23978403Y5919444D01*
X23978405Y5919444D01*
X24046211Y5916780D01*
X24193098Y5911009D01*
X24302275Y5926839D01*
X24405738Y5941840D01*
X24405743Y5941841D01*
X24411452Y5942669D01*
X24416916Y5944524D01*
X24416921Y5944525D01*
X24614907Y6011732D01*
X24614912Y6011734D01*
X24620379Y6013590D01*
X24642757Y6026122D01*
X24725190Y6072287D01*
X24812884Y6121398D01*
X24879112Y6176479D01*
X24978086Y6258796D01*
X24982518Y6262482D01*
X25044256Y6336713D01*
X25119908Y6427674D01*
X25119910Y6427677D01*
X25123602Y6432116D01*
X25231410Y6624621D01*
X25233266Y6630088D01*
X25233268Y6630093D01*
X25300475Y6828079D01*
X25300476Y6828084D01*
X25302331Y6833548D01*
X25303159Y6839257D01*
X25303160Y6839262D01*
X25333458Y7048228D01*
X25333991Y7051902D01*
X25335643Y7115000D01*
X25315454Y7334711D01*
X25313646Y7341124D01*
X25257134Y7541500D01*
X25255565Y7547064D01*
X25157980Y7744947D01*
X25134347Y7776596D01*
X25029420Y7917109D01*
X25029420Y7917110D01*
X25025967Y7921733D01*
X24895210Y8042604D01*
X24868189Y8067582D01*
X24868186Y8067584D01*
X24863949Y8071501D01*
X24677350Y8189236D01*
X24671532Y8191557D01*
X24623209Y8210836D01*
X24567350Y8254657D01*
X24552256Y8288462D01*
X24551131Y8288027D01*
X24550000Y8290950D01*
X24548326Y8297263D01*
X24546932Y8300385D01*
X24546075Y8304221D01*
X24543844Y8311472D01*
X24542444Y8320784D01*
X24524065Y8359059D01*
X24520147Y8368113D01*
X24515762Y8379449D01*
X24509840Y8450197D01*
X24543108Y8512917D01*
X24592773Y8544219D01*
X24620379Y8553590D01*
X24642757Y8566122D01*
X24777375Y8641512D01*
X24812884Y8661398D01*
X24871270Y8709957D01*
X24978086Y8798796D01*
X24982518Y8802482D01*
X25046503Y8879415D01*
X25119908Y8967674D01*
X25119910Y8967677D01*
X25123602Y8972116D01*
X25231410Y9164621D01*
X25233266Y9170088D01*
X25233268Y9170093D01*
X25300475Y9368079D01*
X25300476Y9368084D01*
X25302331Y9373548D01*
X25303159Y9379257D01*
X25303160Y9379262D01*
X25322346Y9511587D01*
X25333991Y9591902D01*
X25335643Y9655000D01*
X25315454Y9874711D01*
X25255565Y10087064D01*
X25157980Y10284947D01*
X25025967Y10461733D01*
X24880770Y10595952D01*
X24868189Y10607582D01*
X24868186Y10607584D01*
X24863949Y10611501D01*
X24677350Y10729236D01*
X24474955Y10809983D01*
X24419096Y10853804D01*
X24395795Y10920868D01*
X24412451Y10989883D01*
X24463775Y11038937D01*
X24481144Y11046326D01*
X24614907Y11091732D01*
X24614912Y11091734D01*
X24620379Y11093590D01*
X24642757Y11106122D01*
X24725190Y11152287D01*
X24812884Y11201398D01*
X24847609Y11230278D01*
X24978086Y11338796D01*
X24982518Y11342482D01*
X25055038Y11429677D01*
X25119908Y11507674D01*
X25119910Y11507677D01*
X25123602Y11512116D01*
X25231410Y11704621D01*
X25233266Y11710088D01*
X25233268Y11710093D01*
X25300475Y11908079D01*
X25300476Y11908084D01*
X25302331Y11913548D01*
X25303159Y11919257D01*
X25303160Y11919262D01*
X25333458Y12128228D01*
X25333991Y12131902D01*
X25335643Y12195000D01*
X25315454Y12414711D01*
X25313646Y12421124D01*
X25257134Y12621500D01*
X25255565Y12627064D01*
X25157980Y12824947D01*
X25036976Y12986991D01*
X25029420Y12997109D01*
X25029420Y12997110D01*
X25025967Y13001733D01*
X24880770Y13135952D01*
X24868189Y13147582D01*
X24868186Y13147584D01*
X24863949Y13151501D01*
X24677350Y13269236D01*
X24474955Y13349983D01*
X24419096Y13393804D01*
X24395795Y13460868D01*
X24412451Y13529883D01*
X24463775Y13578937D01*
X24481144Y13586326D01*
X24614907Y13631732D01*
X24614912Y13631734D01*
X24620379Y13633590D01*
X24632231Y13640227D01*
X24725190Y13692287D01*
X24812884Y13741398D01*
X24879112Y13796479D01*
X24978086Y13878796D01*
X24982518Y13882482D01*
X25044256Y13956713D01*
X25119908Y14047674D01*
X25119910Y14047677D01*
X25123602Y14052116D01*
X25231410Y14244621D01*
X25233266Y14250088D01*
X25233268Y14250093D01*
X25300475Y14448079D01*
X25300476Y14448084D01*
X25302331Y14453548D01*
X25303159Y14459257D01*
X25303160Y14459262D01*
X25333458Y14668228D01*
X25333991Y14671902D01*
X25335643Y14735000D01*
X25315454Y14954711D01*
X25313646Y14961124D01*
X25257134Y15161500D01*
X25255565Y15167064D01*
X25157980Y15364947D01*
X25115046Y15422443D01*
X25029420Y15537109D01*
X25029420Y15537110D01*
X25025967Y15541733D01*
X24880770Y15675952D01*
X24868189Y15687582D01*
X24868186Y15687584D01*
X24863949Y15691501D01*
X24677350Y15809236D01*
X24474955Y15889983D01*
X24419096Y15933804D01*
X24395795Y16000868D01*
X24412451Y16069883D01*
X24463775Y16118937D01*
X24481144Y16126326D01*
X24614907Y16171732D01*
X24614912Y16171734D01*
X24620379Y16173590D01*
X24642757Y16186122D01*
X24725190Y16232287D01*
X24812884Y16281398D01*
X24817401Y16285154D01*
X24978086Y16418796D01*
X24982518Y16422482D01*
X25044256Y16496713D01*
X25119908Y16587674D01*
X25119910Y16587677D01*
X25123602Y16592116D01*
X25231410Y16784621D01*
X25233266Y16790088D01*
X25233268Y16790093D01*
X25300475Y16988079D01*
X25300476Y16988084D01*
X25302331Y16993548D01*
X25303159Y16999257D01*
X25303160Y16999262D01*
X25333458Y17208228D01*
X25333991Y17211902D01*
X25335643Y17275000D01*
X25315454Y17494711D01*
X25313646Y17501124D01*
X25257134Y17701500D01*
X25255565Y17707064D01*
X25157980Y17904947D01*
X25036976Y18066991D01*
X25029420Y18077109D01*
X25029420Y18077110D01*
X25025967Y18081733D01*
X24880770Y18215952D01*
X24868189Y18227582D01*
X24868186Y18227584D01*
X24863949Y18231501D01*
X24677350Y18349236D01*
X24474955Y18429983D01*
X24419096Y18473804D01*
X24395795Y18540868D01*
X24412451Y18609883D01*
X24463775Y18658937D01*
X24481144Y18666326D01*
X24614907Y18711732D01*
X24614912Y18711734D01*
X24620379Y18713590D01*
X24642757Y18726122D01*
X24725190Y18772287D01*
X24812884Y18821398D01*
X24879112Y18876479D01*
X24978086Y18958796D01*
X24982518Y18962482D01*
X25044256Y19036713D01*
X25119908Y19127674D01*
X25119910Y19127677D01*
X25123602Y19132116D01*
X25231410Y19324621D01*
X25233266Y19330088D01*
X25233268Y19330093D01*
X25300475Y19528079D01*
X25300476Y19528084D01*
X25302331Y19533548D01*
X25303159Y19539257D01*
X25303160Y19539262D01*
X25333458Y19748228D01*
X25333991Y19751902D01*
X25335643Y19815000D01*
X25315454Y20034711D01*
X25313646Y20041124D01*
X25257134Y20241500D01*
X25255565Y20247064D01*
X25157980Y20444947D01*
X25112319Y20506095D01*
X25029420Y20617109D01*
X25029420Y20617110D01*
X25025967Y20621733D01*
X24880770Y20755952D01*
X24868189Y20767582D01*
X24868186Y20767584D01*
X24863949Y20771501D01*
X24677350Y20889236D01*
X24474955Y20969983D01*
X24419096Y21013804D01*
X24395795Y21080868D01*
X24412451Y21149883D01*
X24463775Y21198937D01*
X24481144Y21206326D01*
X24614907Y21251732D01*
X24614912Y21251734D01*
X24620379Y21253590D01*
X24625576Y21256500D01*
X24787724Y21347308D01*
X24812884Y21361398D01*
X24879112Y21416479D01*
X24978086Y21498796D01*
X24982518Y21502482D01*
X25044256Y21576713D01*
X25119908Y21667674D01*
X25119910Y21667677D01*
X25123602Y21672116D01*
X25231410Y21864621D01*
X25233266Y21870088D01*
X25233268Y21870093D01*
X25300475Y22068079D01*
X25300476Y22068084D01*
X25302331Y22073548D01*
X25303159Y22079257D01*
X25303160Y22079262D01*
X25333458Y22288228D01*
X25333991Y22291902D01*
X25335643Y22355000D01*
X25315454Y22574711D01*
X25313646Y22581124D01*
X25257134Y22781500D01*
X25255565Y22787064D01*
X25157980Y22984947D01*
X25025967Y23161733D01*
X24880770Y23295952D01*
X24868189Y23307582D01*
X24868186Y23307584D01*
X24863949Y23311501D01*
X24677350Y23429236D01*
X24474955Y23509983D01*
X24419096Y23553804D01*
X24395795Y23620868D01*
X24412451Y23689883D01*
X24463775Y23738937D01*
X24481144Y23746326D01*
X24614907Y23791732D01*
X24614912Y23791734D01*
X24620379Y23793590D01*
X24642757Y23806122D01*
X24787724Y23887308D01*
X24812884Y23901398D01*
X24879112Y23956479D01*
X24978086Y24038796D01*
X24982518Y24042482D01*
X25072421Y24150578D01*
X25119908Y24207674D01*
X25119910Y24207677D01*
X25123602Y24212116D01*
X25231410Y24404621D01*
X25233266Y24410088D01*
X25233268Y24410093D01*
X25300475Y24608079D01*
X25300476Y24608084D01*
X25302331Y24613548D01*
X25303159Y24619257D01*
X25303160Y24619262D01*
X25333458Y24828228D01*
X25333991Y24831902D01*
X25335643Y24895000D01*
X25315454Y25114711D01*
X25313646Y25121124D01*
X25273942Y25261902D01*
X25255565Y25327064D01*
X25157980Y25524947D01*
X25025967Y25701733D01*
X24880770Y25835952D01*
X24868189Y25847582D01*
X24868186Y25847584D01*
X24863949Y25851501D01*
X24678702Y25968383D01*
X24678700Y25968385D01*
X24677350Y25969236D01*
X24677517Y25969501D01*
X24628071Y26016198D01*
X24611002Y26085112D01*
X24633901Y26152314D01*
X24681454Y26192871D01*
X24823095Y26262261D01*
X24831945Y26267536D01*
X25005328Y26391208D01*
X25013200Y26397861D01*
X25164052Y26548188D01*
X25170730Y26556035D01*
X25295003Y26728980D01*
X25300313Y26737817D01*
X25394670Y26928733D01*
X25398469Y26938328D01*
X25460377Y27142090D01*
X25462555Y27152163D01*
X25463986Y27163038D01*
X25461775Y27177222D01*
X25448617Y27181000D01*
X24002000Y27181000D01*
X23933879Y27201002D01*
X23887386Y27254658D01*
X23876000Y27307000D01*
X23876000Y27563000D01*
X23896002Y27631121D01*
X23949658Y27677614D01*
X24002000Y27689000D01*
X25448344Y27689000D01*
X25461875Y27692973D01*
X25463180Y27702053D01*
X25421214Y27869125D01*
X25417894Y27878876D01*
X25332972Y28074186D01*
X25328105Y28083261D01*
X25212426Y28262074D01*
X25206136Y28270243D01*
X25062806Y28427760D01*
X25055273Y28434785D01*
X24888139Y28566778D01*
X24879552Y28572483D01*
X24693115Y28675402D01*
X24684687Y28679190D01*
X24630752Y28725359D01*
X24610340Y28793358D01*
X24629932Y28861598D01*
X24674771Y28904051D01*
X24787724Y28967308D01*
X24812884Y28981398D01*
X24982518Y29122482D01*
X25044257Y29196715D01*
X25119908Y29287674D01*
X25119910Y29287677D01*
X25123602Y29292116D01*
X25231410Y29484621D01*
X25233266Y29490088D01*
X25233268Y29490093D01*
X25300475Y29688079D01*
X25300476Y29688084D01*
X25302331Y29693548D01*
X25303159Y29699257D01*
X25303160Y29699262D01*
X25333458Y29908228D01*
X25333991Y29911902D01*
X25335643Y29975000D01*
X25315454Y30194711D01*
X25255565Y30407064D01*
X25157980Y30604947D01*
X25124340Y30649997D01*
X25029420Y30777109D01*
X25029420Y30777110D01*
X25025967Y30781733D01*
X24900474Y30897738D01*
X24868189Y30927582D01*
X24868186Y30927584D01*
X24863949Y30931501D01*
X24677350Y31049236D01*
X24474955Y31129983D01*
X24419096Y31173804D01*
X24395795Y31240868D01*
X24412451Y31309883D01*
X24463775Y31358937D01*
X24481144Y31366326D01*
X24614907Y31411732D01*
X24614912Y31411734D01*
X24620379Y31413590D01*
X24642757Y31426122D01*
X24787724Y31507308D01*
X24812884Y31521398D01*
X24836576Y31541102D01*
X24978086Y31658796D01*
X24982518Y31662482D01*
X25044257Y31736715D01*
X25119908Y31827674D01*
X25119910Y31827677D01*
X25123602Y31832116D01*
X25231410Y32024621D01*
X25233266Y32030088D01*
X25233268Y32030093D01*
X25300475Y32228079D01*
X25300476Y32228084D01*
X25302331Y32233548D01*
X25303159Y32239257D01*
X25303160Y32239262D01*
X25333458Y32448228D01*
X25333991Y32451902D01*
X25335643Y32515000D01*
X25315454Y32734711D01*
X25255565Y32947064D01*
X25157980Y33144947D01*
X25134347Y33176596D01*
X25029420Y33317109D01*
X25029420Y33317110D01*
X25025967Y33321733D01*
X24900474Y33437738D01*
X24868189Y33467582D01*
X24868186Y33467584D01*
X24863949Y33471501D01*
X24677350Y33589236D01*
X24474955Y33669983D01*
X24419096Y33713804D01*
X24395795Y33780868D01*
X24412451Y33849883D01*
X24463775Y33898937D01*
X24481144Y33906326D01*
X24614907Y33951732D01*
X24614912Y33951734D01*
X24620379Y33953590D01*
X24642757Y33966122D01*
X24787724Y34047308D01*
X24812884Y34061398D01*
X24836576Y34081102D01*
X24978086Y34198796D01*
X24982518Y34202482D01*
X25044257Y34276715D01*
X25119908Y34367674D01*
X25119910Y34367677D01*
X25123602Y34372116D01*
X25199224Y34507148D01*
X25228586Y34559578D01*
X25228587Y34559580D01*
X25231410Y34564621D01*
X25233266Y34570088D01*
X25233268Y34570093D01*
X25300475Y34768079D01*
X25300476Y34768084D01*
X25302331Y34773548D01*
X25303159Y34779257D01*
X25303160Y34779262D01*
X25333458Y34988228D01*
X25333991Y34991902D01*
X25335643Y35055000D01*
X25315454Y35274711D01*
X25255565Y35487064D01*
X25157980Y35684947D01*
X25124340Y35729997D01*
X25029420Y35857109D01*
X25029420Y35857110D01*
X25025967Y35861733D01*
X24907539Y35971207D01*
X24868189Y36007582D01*
X24868186Y36007584D01*
X24863949Y36011501D01*
X24677350Y36129236D01*
X24474955Y36209983D01*
X24419096Y36253804D01*
X24395795Y36320868D01*
X24412451Y36389883D01*
X24463775Y36438937D01*
X24481144Y36446326D01*
X24614907Y36491732D01*
X24614912Y36491734D01*
X24620379Y36493590D01*
X24642757Y36506122D01*
X24787724Y36587308D01*
X24812884Y36601398D01*
X24817401Y36605154D01*
X24978086Y36738796D01*
X24982518Y36742482D01*
X25072421Y36850578D01*
X25119908Y36907674D01*
X25119910Y36907677D01*
X25123602Y36912116D01*
X25231410Y37104621D01*
X25233266Y37110088D01*
X25233268Y37110093D01*
X25300475Y37308079D01*
X25300476Y37308084D01*
X25302331Y37313548D01*
X25303159Y37319257D01*
X25303160Y37319262D01*
X25333458Y37528228D01*
X25333991Y37531902D01*
X25335643Y37595000D01*
X25315454Y37814711D01*
X25302044Y37862262D01*
X25273942Y37961902D01*
X25255565Y38027064D01*
X25157980Y38224947D01*
X25025967Y38401733D01*
X24928586Y38491751D01*
X24868189Y38547582D01*
X24868186Y38547584D01*
X24863949Y38551501D01*
X24677350Y38669236D01*
X24474955Y38749983D01*
X24419096Y38793804D01*
X24395795Y38860868D01*
X24412451Y38929883D01*
X24463775Y38978937D01*
X24481144Y38986326D01*
X24614907Y39031732D01*
X24614912Y39031734D01*
X24620379Y39033590D01*
X24642757Y39046122D01*
X24787724Y39127308D01*
X24812884Y39141398D01*
X24982518Y39282482D01*
X25044257Y39356715D01*
X25119908Y39447674D01*
X25119910Y39447677D01*
X25123602Y39452116D01*
X25231410Y39644621D01*
X25233266Y39650088D01*
X25233268Y39650093D01*
X25300475Y39848079D01*
X25300476Y39848084D01*
X25302331Y39853548D01*
X25303159Y39859257D01*
X25303160Y39859262D01*
X25333458Y40068228D01*
X25333991Y40071902D01*
X25335643Y40135000D01*
X25315454Y40354711D01*
X25299088Y40412743D01*
X25269225Y40518627D01*
X25255565Y40567064D01*
X25157980Y40764947D01*
X25025967Y40941733D01*
X24928586Y41031751D01*
X24868189Y41087582D01*
X24868186Y41087584D01*
X24863949Y41091501D01*
X24677350Y41209236D01*
X24474955Y41289983D01*
X24419096Y41333804D01*
X24395795Y41400868D01*
X24412451Y41469883D01*
X24463775Y41518937D01*
X24481144Y41526326D01*
X24614907Y41571732D01*
X24614912Y41571734D01*
X24620379Y41573590D01*
X24642757Y41586122D01*
X24700875Y41618670D01*
X24812884Y41681398D01*
X24847609Y41710278D01*
X24978086Y41818796D01*
X24982518Y41822482D01*
X25044257Y41896715D01*
X25119908Y41987674D01*
X25119910Y41987677D01*
X25123602Y41992116D01*
X25231410Y42184621D01*
X25233266Y42190088D01*
X25233268Y42190093D01*
X25300475Y42388079D01*
X25300476Y42388084D01*
X25302331Y42393548D01*
X25303159Y42399257D01*
X25303160Y42399262D01*
X25333458Y42608228D01*
X25333991Y42611902D01*
X25335643Y42675000D01*
X25315454Y42894711D01*
X25313646Y42901124D01*
X25267388Y43065143D01*
X25255565Y43107064D01*
X25157980Y43304947D01*
X25025967Y43481733D01*
X24928586Y43571751D01*
X24868189Y43627582D01*
X24868186Y43627584D01*
X24863949Y43631501D01*
X24677350Y43749236D01*
X24474955Y43829983D01*
X24419096Y43873804D01*
X24395795Y43940868D01*
X24412451Y44009883D01*
X24463775Y44058937D01*
X24481144Y44066326D01*
X24614907Y44111732D01*
X24614912Y44111734D01*
X24620379Y44113590D01*
X24642757Y44126122D01*
X24787724Y44207308D01*
X24812884Y44221398D01*
X24879112Y44276479D01*
X24978086Y44358796D01*
X24982518Y44362482D01*
X25044257Y44436715D01*
X25119908Y44527674D01*
X25119910Y44527677D01*
X25123602Y44532116D01*
X25231410Y44724621D01*
X25233266Y44730088D01*
X25233268Y44730093D01*
X25300475Y44928079D01*
X25300476Y44928084D01*
X25302331Y44933548D01*
X25303159Y44939257D01*
X25303160Y44939262D01*
X25333458Y45148228D01*
X25333991Y45151902D01*
X25335643Y45215000D01*
X25315454Y45434711D01*
X25313646Y45441124D01*
X25267388Y45605143D01*
X25255565Y45647064D01*
X25157980Y45844947D01*
X25025967Y46021733D01*
X24928586Y46111751D01*
X24868189Y46167582D01*
X24868186Y46167584D01*
X24863949Y46171501D01*
X24677350Y46289236D01*
X24474955Y46369983D01*
X24419096Y46413804D01*
X24395795Y46480868D01*
X24412451Y46549883D01*
X24463775Y46598937D01*
X24481144Y46606326D01*
X24614907Y46651732D01*
X24614912Y46651734D01*
X24620379Y46653590D01*
X24642757Y46666122D01*
X24787724Y46747308D01*
X24812884Y46761398D01*
X24879112Y46816479D01*
X24978086Y46898796D01*
X24982518Y46902482D01*
X25044257Y46976715D01*
X25119908Y47067674D01*
X25119910Y47067677D01*
X25123602Y47072116D01*
X25231410Y47264621D01*
X25233266Y47270088D01*
X25233268Y47270093D01*
X25300475Y47468079D01*
X25300476Y47468084D01*
X25302331Y47473548D01*
X25303159Y47479257D01*
X25303160Y47479262D01*
X25333458Y47688228D01*
X25333991Y47691902D01*
X25335643Y47755000D01*
X25315454Y47974711D01*
X25313646Y47981124D01*
X25267388Y48145143D01*
X25255565Y48187064D01*
X25157980Y48384947D01*
X25025967Y48561733D01*
X24928586Y48651751D01*
X24868189Y48707582D01*
X24868186Y48707584D01*
X24863949Y48711501D01*
X24677350Y48829236D01*
X24474955Y48909983D01*
X24419096Y48953804D01*
X24395795Y49020868D01*
X24412451Y49089883D01*
X24463775Y49138937D01*
X24481144Y49146326D01*
X24614907Y49191732D01*
X24614912Y49191734D01*
X24620379Y49193590D01*
X24642757Y49206122D01*
X24787724Y49287308D01*
X24812884Y49301398D01*
X24879112Y49356479D01*
X24978086Y49438796D01*
X24982518Y49442482D01*
X25044257Y49516715D01*
X25119908Y49607674D01*
X25119910Y49607677D01*
X25123602Y49612116D01*
X25231410Y49804621D01*
X25233266Y49810088D01*
X25233268Y49810093D01*
X25300475Y50008079D01*
X25300476Y50008084D01*
X25302331Y50013548D01*
X25303159Y50019257D01*
X25303160Y50019262D01*
X25333458Y50228228D01*
X25333991Y50231902D01*
X25335643Y50295000D01*
X25315454Y50514711D01*
X25313646Y50521124D01*
X25267388Y50685143D01*
X25255565Y50727064D01*
X25157980Y50924947D01*
X25025967Y51101733D01*
X24928586Y51191751D01*
X24868189Y51247582D01*
X24868186Y51247584D01*
X24863949Y51251501D01*
X24677350Y51369236D01*
X24474955Y51449983D01*
X24419096Y51493804D01*
X24395795Y51560868D01*
X24412451Y51629883D01*
X24463775Y51678937D01*
X24481144Y51686326D01*
X24614907Y51731732D01*
X24614912Y51731734D01*
X24620379Y51733590D01*
X24642757Y51746122D01*
X24787724Y51827308D01*
X24812884Y51841398D01*
X24879112Y51896479D01*
X24978086Y51978796D01*
X24982518Y51982482D01*
X25044257Y52056715D01*
X25119908Y52147674D01*
X25119910Y52147677D01*
X25123602Y52152116D01*
X25231410Y52344621D01*
X25233266Y52350088D01*
X25233268Y52350093D01*
X25300475Y52548079D01*
X25300476Y52548084D01*
X25302331Y52553548D01*
X25303159Y52559257D01*
X25303160Y52559262D01*
X25333458Y52768228D01*
X25333991Y52771902D01*
X25335643Y52835000D01*
X25315454Y53054711D01*
X25313646Y53061124D01*
X25267388Y53225143D01*
X25255565Y53267064D01*
X25157980Y53464947D01*
X25025967Y53641733D01*
X24928586Y53731751D01*
X24868189Y53787582D01*
X24868186Y53787584D01*
X24863949Y53791501D01*
X24677350Y53909236D01*
X24637348Y53925195D01*
X24621620Y53931470D01*
X24565760Y53975291D01*
X24542460Y54042355D01*
X24559116Y54111370D01*
X24610440Y54160424D01*
X24668310Y54174500D01*
X25013218Y54174500D01*
X25017768Y54175170D01*
X25017771Y54175170D01*
X25072426Y54183216D01*
X25072427Y54183216D01*
X25082112Y54184642D01*
X25176804Y54231133D01*
X25177507Y54231478D01*
X25177509Y54231479D01*
X25186855Y54236068D01*
X25269293Y54318650D01*
X25320536Y54423482D01*
X25330500Y54491782D01*
X25330500Y56258218D01*
X25324682Y56297743D01*
X25321784Y56317426D01*
X25321784Y56317427D01*
X25320358Y56327112D01*
X25278967Y56411416D01*
X25273522Y56422507D01*
X25273521Y56422509D01*
X25268932Y56431855D01*
X25209976Y56490708D01*
X25193721Y56506935D01*
X25193720Y56506935D01*
X25186350Y56514293D01*
X25081518Y56565536D01*
X25051027Y56569984D01*
X25017744Y56574840D01*
X25017740Y56574840D01*
X25013218Y56575500D01*
X23246782Y56575500D01*
X23242232Y56574830D01*
X23242229Y56574830D01*
X23187574Y56566784D01*
X23187573Y56566784D01*
X23177888Y56565358D01*
X23127992Y56540860D01*
X23082493Y56518522D01*
X23082491Y56518521D01*
X23073145Y56513932D01*
X22990707Y56431350D01*
X22986134Y56421994D01*
X22986133Y56421993D01*
X22982468Y56414495D01*
X22939464Y56326518D01*
X22929500Y56258218D01*
X22929500Y55871856D01*
X22909498Y55803735D01*
X22855842Y55757242D01*
X22848986Y55754353D01*
X22837300Y55749832D01*
X22837299Y55749831D01*
X22836910Y55750835D01*
X22776344Y55736475D01*
X22709374Y55760044D01*
X22669987Y55806570D01*
X22582719Y55983531D01*
X22580165Y55988710D01*
X22453651Y56158133D01*
X22298381Y56301663D01*
X22119554Y56414495D01*
X21923160Y56492848D01*
X21917503Y56493973D01*
X21917497Y56493975D01*
X21721442Y56532972D01*
X21721440Y56532972D01*
X21715775Y56534099D01*
X21710000Y56534175D01*
X21709996Y56534175D01*
X21603976Y56535563D01*
X21504346Y56536867D01*
X21498649Y56535888D01*
X21498648Y56535888D01*
X21301650Y56502038D01*
X21301649Y56502038D01*
X21295953Y56501059D01*
X21097575Y56427873D01*
X21092614Y56424921D01*
X21092613Y56424921D01*
X21075089Y56414495D01*
X20915856Y56319762D01*
X20756881Y56180345D01*
X20753310Y56175816D01*
X20753305Y56175810D01*
X20675970Y56077710D01*
X20618089Y56036596D01*
X20547169Y56033302D01*
X20487925Y56066620D01*
X19820823Y56733722D01*
X19810968Y56744812D01*
X19797130Y56762366D01*
X19797126Y56762370D01*
X19791296Y56769765D01*
X19745585Y56801357D01*
X19742462Y56803590D01*
X19697821Y56836562D01*
X19691371Y56838827D01*
X19685743Y56842717D01*
X19676768Y56845555D01*
X19676763Y56845558D01*
X19632854Y56859444D01*
X19629113Y56860692D01*
X19605329Y56869044D01*
X19585645Y56875957D01*
X19585642Y56875958D01*
X19576759Y56879077D01*
X19569923Y56879346D01*
X19563405Y56881407D01*
X19557141Y56881900D01*
X19507380Y56881900D01*
X19502434Y56881997D01*
X19502156Y56882008D01*
X19448548Y56884114D01*
X19441737Y56882308D01*
X19434322Y56881900D01*
X6001903Y56881900D01*
X5987093Y56882773D01*
X5964898Y56885400D01*
X5955545Y56886507D01*
X5946281Y56884815D01*
X5946278Y56884815D01*
X5900978Y56876542D01*
X5897075Y56875892D01*
X5851525Y56869044D01*
X5851522Y56869043D01*
X5842216Y56867644D01*
X5836051Y56864684D01*
X5829323Y56863455D01*
X5780085Y56837878D01*
X5776569Y56836121D01*
X5735041Y56816180D01*
X5735037Y56816178D01*
X5726550Y56812102D01*
X5721528Y56807459D01*
X5715459Y56804307D01*
X5710681Y56800226D01*
X5675506Y56765051D01*
X5671941Y56761622D01*
X5632329Y56725005D01*
X5628790Y56718913D01*
X5623831Y56713376D01*
X5202899Y56292444D01*
X5140587Y56258418D01*
X5069772Y56263483D01*
X5012936Y56306030D01*
X5001812Y56327826D01*
X5000358Y56327112D01*
X4953522Y56422507D01*
X4953521Y56422509D01*
X4948932Y56431855D01*
X4889976Y56490708D01*
X4873721Y56506935D01*
X4873720Y56506935D01*
X4866350Y56514293D01*
X4761518Y56565536D01*
X4731027Y56569984D01*
X4697744Y56574840D01*
X4697740Y56574840D01*
X4693218Y56575500D01*
X2926782Y56575500D01*
X2922232Y56574830D01*
X2922229Y56574830D01*
X2867574Y56566784D01*
X2867573Y56566784D01*
X2857888Y56565358D01*
X2807992Y56540860D01*
X2762493Y56518522D01*
X2762491Y56518521D01*
X2753145Y56513932D01*
X2670707Y56431350D01*
X2666134Y56421994D01*
X2666133Y56421993D01*
X2662468Y56414495D01*
X2619464Y56326518D01*
X2609500Y56258218D01*
X2609500Y54491782D01*
X2610170Y54487232D01*
X2610170Y54487229D01*
X2618216Y54432574D01*
X2619642Y54422888D01*
X2671068Y54318145D01*
X2753650Y54235707D01*
X2858482Y54184464D01*
X2888973Y54180016D01*
X2922256Y54175160D01*
X2922260Y54175160D01*
X2926782Y54174500D01*
X3266570Y54174500D01*
X3334691Y54154498D01*
X3381184Y54100842D01*
X3391288Y54030568D01*
X3361794Y53965988D01*
X3310180Y53930288D01*
X3301382Y53927042D01*
X3290957Y53923196D01*
X3285996Y53920244D01*
X3285995Y53920244D01*
X3231585Y53887873D01*
X3101341Y53810386D01*
X2935457Y53664910D01*
X2798863Y53491640D01*
X2696131Y53296380D01*
X2630703Y53085667D01*
X2604770Y52866560D01*
X2619200Y52646396D01*
X2620621Y52640800D01*
X2620622Y52640795D01*
X2665293Y52464905D01*
X2673511Y52432548D01*
X2675928Y52427306D01*
X2675928Y52427305D01*
X2714046Y52344621D01*
X2765883Y52232179D01*
X2893222Y52051998D01*
X3051264Y51898039D01*
X3056060Y51894834D01*
X3056063Y51894832D01*
X3140261Y51838573D01*
X3234717Y51775460D01*
X3240020Y51773182D01*
X3240023Y51773180D01*
X3408653Y51700731D01*
X3437436Y51688365D01*
X3443071Y51687090D01*
X3443074Y51687089D01*
X3444484Y51686770D01*
X3445083Y51686436D01*
X3448562Y51685306D01*
X3448340Y51684623D01*
X3506511Y51652228D01*
X3540016Y51589634D01*
X3534362Y51518863D01*
X3491344Y51462384D01*
X3460287Y51445665D01*
X3296376Y51385196D01*
X3296368Y51385192D01*
X3290957Y51383196D01*
X3285996Y51380244D01*
X3285995Y51380244D01*
X3212694Y51336634D01*
X3101341Y51270386D01*
X2935457Y51124910D01*
X2798863Y50951640D01*
X2696131Y50756380D01*
X2630703Y50545667D01*
X2604770Y50326560D01*
X2619200Y50106396D01*
X2620621Y50100800D01*
X2620622Y50100795D01*
X2665293Y49924905D01*
X2673511Y49892548D01*
X2675928Y49887306D01*
X2675928Y49887305D01*
X2714046Y49804621D01*
X2765883Y49692179D01*
X2893222Y49511998D01*
X3051264Y49358039D01*
X3056060Y49354834D01*
X3056063Y49354832D01*
X3140261Y49298573D01*
X3234717Y49235460D01*
X3240020Y49233182D01*
X3240023Y49233180D01*
X3408653Y49160731D01*
X3437436Y49148365D01*
X3443071Y49147090D01*
X3443074Y49147089D01*
X3444484Y49146770D01*
X3445083Y49146436D01*
X3448562Y49145306D01*
X3448340Y49144623D01*
X3506511Y49112228D01*
X3540016Y49049634D01*
X3534362Y48978863D01*
X3491344Y48922384D01*
X3460287Y48905665D01*
X3296376Y48845196D01*
X3296368Y48845192D01*
X3290957Y48843196D01*
X3285996Y48840244D01*
X3285995Y48840244D01*
X3212694Y48796634D01*
X3101341Y48730386D01*
X2935457Y48584910D01*
X2798863Y48411640D01*
X2696131Y48216380D01*
X2630703Y48005667D01*
X2604770Y47786560D01*
X2619200Y47566396D01*
X2620621Y47560800D01*
X2620622Y47560795D01*
X2665293Y47384905D01*
X2673511Y47352548D01*
X2675928Y47347306D01*
X2675928Y47347305D01*
X2714046Y47264621D01*
X2765883Y47152179D01*
X2893222Y46971998D01*
X3051264Y46818039D01*
X3056060Y46814834D01*
X3056063Y46814832D01*
X3140261Y46758573D01*
X3234717Y46695460D01*
X3240020Y46693182D01*
X3240023Y46693180D01*
X3408653Y46620731D01*
X3437436Y46608365D01*
X3443071Y46607090D01*
X3443074Y46607089D01*
X3444484Y46606770D01*
X3445083Y46606436D01*
X3448562Y46605306D01*
X3448340Y46604623D01*
X3506511Y46572228D01*
X3540016Y46509634D01*
X3534362Y46438863D01*
X3491344Y46382384D01*
X3460287Y46365665D01*
X3296376Y46305196D01*
X3296368Y46305192D01*
X3290957Y46303196D01*
X3285996Y46300244D01*
X3285995Y46300244D01*
X3212694Y46256634D01*
X3101341Y46190386D01*
X2935457Y46044910D01*
X2798863Y45871640D01*
X2696131Y45676380D01*
X2630703Y45465667D01*
X2604770Y45246560D01*
X2619200Y45026396D01*
X2620621Y45020800D01*
X2620622Y45020795D01*
X2665293Y44844905D01*
X2673511Y44812548D01*
X2675928Y44807306D01*
X2675928Y44807305D01*
X2714046Y44724621D01*
X2765883Y44612179D01*
X2893222Y44431998D01*
X3051264Y44278039D01*
X3056060Y44274834D01*
X3056063Y44274832D01*
X3140261Y44218573D01*
X3234717Y44155460D01*
X3240020Y44153182D01*
X3240023Y44153180D01*
X3408653Y44080731D01*
X3437436Y44068365D01*
X3443071Y44067090D01*
X3443074Y44067089D01*
X3444484Y44066770D01*
X3445083Y44066436D01*
X3448562Y44065306D01*
X3448340Y44064623D01*
X3506511Y44032228D01*
X3540016Y43969634D01*
X3534362Y43898863D01*
X3491344Y43842384D01*
X3460287Y43825665D01*
X3296376Y43765196D01*
X3296368Y43765192D01*
X3290957Y43763196D01*
X3285996Y43760244D01*
X3285995Y43760244D01*
X3212694Y43716634D01*
X3101341Y43650386D01*
X2935457Y43504910D01*
X2798863Y43331640D01*
X2696131Y43136380D01*
X2630703Y42925667D01*
X2604770Y42706560D01*
X2619200Y42486396D01*
X2620621Y42480800D01*
X2620622Y42480795D01*
X2665293Y42304905D01*
X2673511Y42272548D01*
X2675928Y42267306D01*
X2675928Y42267305D01*
X2714046Y42184621D01*
X2765883Y42072179D01*
X2893222Y41891998D01*
X3051264Y41738039D01*
X3056060Y41734834D01*
X3056063Y41734832D01*
X3140261Y41678573D01*
X3234717Y41615460D01*
X3240020Y41613182D01*
X3240023Y41613180D01*
X3432129Y41530645D01*
X3437436Y41528365D01*
X3443071Y41527090D01*
X3443074Y41527089D01*
X3444484Y41526770D01*
X3445083Y41526436D01*
X3448562Y41525306D01*
X3448340Y41524623D01*
X3506511Y41492228D01*
X3540016Y41429634D01*
X3534362Y41358863D01*
X3491344Y41302384D01*
X3460287Y41285665D01*
X3296376Y41225196D01*
X3296368Y41225192D01*
X3290957Y41223196D01*
X3285996Y41220244D01*
X3285995Y41220244D01*
X3231585Y41187873D01*
X3101341Y41110386D01*
X2935457Y40964910D01*
X2798863Y40791640D01*
X2696131Y40596380D01*
X2630703Y40385667D01*
X2604770Y40166560D01*
X2619200Y39946396D01*
X2620621Y39940800D01*
X2620622Y39940795D01*
X2665293Y39764905D01*
X2673511Y39732548D01*
X2675928Y39727306D01*
X2675928Y39727305D01*
X2714046Y39644621D01*
X2765883Y39532179D01*
X2893222Y39351998D01*
X3051264Y39198039D01*
X3056060Y39194834D01*
X3056063Y39194832D01*
X3148903Y39132799D01*
X3234717Y39075460D01*
X3240020Y39073182D01*
X3240023Y39073180D01*
X3361760Y39020878D01*
X3437436Y38988365D01*
X3443071Y38987090D01*
X3443074Y38987089D01*
X3444484Y38986770D01*
X3445083Y38986436D01*
X3448562Y38985306D01*
X3448340Y38984623D01*
X3506511Y38952228D01*
X3540016Y38889634D01*
X3534362Y38818863D01*
X3491344Y38762384D01*
X3460287Y38745665D01*
X3296376Y38685196D01*
X3296368Y38685192D01*
X3290957Y38683196D01*
X3285996Y38680244D01*
X3285995Y38680244D01*
X3149343Y38598944D01*
X3101341Y38570386D01*
X2935457Y38424910D01*
X2798863Y38251640D01*
X2696131Y38056380D01*
X2630703Y37845667D01*
X2604770Y37626560D01*
X2619200Y37406396D01*
X2620621Y37400800D01*
X2620622Y37400795D01*
X2665293Y37224905D01*
X2673511Y37192548D01*
X2675928Y37187306D01*
X2675928Y37187305D01*
X2714046Y37104621D01*
X2765883Y36992179D01*
X2893222Y36811998D01*
X2897356Y36807971D01*
X3042049Y36667016D01*
X3076886Y36605154D01*
X3072749Y36534278D01*
X3043222Y36487667D01*
X2445778Y35890223D01*
X2434688Y35880368D01*
X2417134Y35866530D01*
X2417130Y35866526D01*
X2409735Y35860696D01*
X2378143Y35814985D01*
X2375910Y35811862D01*
X2342938Y35767221D01*
X2340673Y35760771D01*
X2336783Y35755143D01*
X2333945Y35746168D01*
X2333942Y35746163D01*
X2320056Y35702254D01*
X2318803Y35698497D01*
X2303543Y35655045D01*
X2303542Y35655042D01*
X2300423Y35646159D01*
X2300154Y35639323D01*
X2298093Y35632805D01*
X2297600Y35626541D01*
X2297600Y35576780D01*
X2297503Y35571834D01*
X2295386Y35517948D01*
X2297192Y35511137D01*
X2297600Y35503722D01*
X2297600Y34608110D01*
X2296727Y34593302D01*
X2292992Y34561745D01*
X2294684Y34552483D01*
X2294684Y34552474D01*
X2302963Y34507148D01*
X2303614Y34503240D01*
X2311856Y34448416D01*
X2314816Y34442252D01*
X2316045Y34435523D01*
X2341622Y34386285D01*
X2343379Y34382769D01*
X2363320Y34341241D01*
X2363322Y34341237D01*
X2367398Y34332750D01*
X2372041Y34327728D01*
X2375193Y34321659D01*
X2379274Y34316881D01*
X2414449Y34281706D01*
X2417878Y34278141D01*
X2454495Y34238529D01*
X2460587Y34234990D01*
X2466124Y34230031D01*
X3061851Y33634304D01*
X3095877Y33571992D01*
X3090812Y33501177D01*
X3055835Y33450478D01*
X2935457Y33344910D01*
X2798863Y33171640D01*
X2696131Y32976380D01*
X2630703Y32765667D01*
X2604770Y32546560D01*
X2619200Y32326396D01*
X2620621Y32320800D01*
X2620622Y32320795D01*
X2666190Y32141373D01*
X2673511Y32112548D01*
X2675928Y32107306D01*
X2675928Y32107305D01*
X2714046Y32024621D01*
X2765883Y31912179D01*
X2893222Y31731998D01*
X3051264Y31578039D01*
X3056060Y31574834D01*
X3056063Y31574832D01*
X3140261Y31518573D01*
X3234717Y31455460D01*
X3240020Y31453182D01*
X3240023Y31453180D01*
X3408653Y31380731D01*
X3437436Y31368365D01*
X3443071Y31367090D01*
X3443074Y31367089D01*
X3444484Y31366770D01*
X3445083Y31366436D01*
X3448562Y31365306D01*
X3448340Y31364623D01*
X3506511Y31332228D01*
X3540016Y31269634D01*
X3534362Y31198863D01*
X3491344Y31142384D01*
X3460287Y31125665D01*
X3296376Y31065196D01*
X3296368Y31065192D01*
X3290957Y31063196D01*
X3285996Y31060244D01*
X3285995Y31060244D01*
X3212694Y31016634D01*
X3101341Y30950386D01*
X2935457Y30804910D01*
X2798863Y30631640D01*
X2696131Y30436380D01*
X2630703Y30225667D01*
X2604770Y30006560D01*
X2619200Y29786396D01*
X2620621Y29780800D01*
X2620622Y29780795D01*
X2656286Y29640371D01*
X2673511Y29572548D01*
X2675928Y29567306D01*
X2675928Y29567305D01*
X2714046Y29484621D01*
X2765883Y29372179D01*
X2893222Y29191998D01*
X3051264Y29038039D01*
X3056060Y29034834D01*
X3056063Y29034832D01*
X3140258Y28978575D01*
X3234717Y28915460D01*
X3240020Y28913182D01*
X3240023Y28913180D01*
X3432129Y28830645D01*
X3437436Y28828365D01*
X3443071Y28827090D01*
X3443074Y28827089D01*
X3444484Y28826770D01*
X3445083Y28826436D01*
X3448562Y28825306D01*
X3448340Y28824623D01*
X3506511Y28792228D01*
X3540016Y28729634D01*
X3534362Y28658863D01*
X3491344Y28602384D01*
X3460287Y28585665D01*
X3296376Y28525196D01*
X3296368Y28525192D01*
X3290957Y28523196D01*
X3285996Y28520244D01*
X3285995Y28520244D01*
X3168350Y28450252D01*
X3101341Y28410386D01*
X2935457Y28264910D01*
X2798863Y28091640D01*
X2696131Y27896380D01*
X2630703Y27685667D01*
X2604770Y27466560D01*
X2619200Y27246396D01*
X2620621Y27240800D01*
X2620622Y27240795D01*
X2665293Y27064905D01*
X2673511Y27032548D01*
X2765883Y26832179D01*
X2893222Y26651998D01*
X3051264Y26498039D01*
X3056060Y26494834D01*
X3056063Y26494832D01*
X3148903Y26432799D01*
X3234717Y26375460D01*
X3240020Y26373182D01*
X3240023Y26373180D01*
X3355133Y26323725D01*
X3409826Y26278457D01*
X3431363Y26210805D01*
X3421105Y26164162D01*
X3422478Y26163728D01*
X3421532Y26160738D01*
X3419183Y26155425D01*
X3418544Y26152519D01*
X3416308Y26147956D01*
X3413512Y26140895D01*
X3408783Y26132753D01*
X3406657Y26123579D01*
X3406656Y26123578D01*
X3399200Y26091411D01*
X3396589Y26081867D01*
X3393826Y26073131D01*
X3354213Y26014213D01*
X3317301Y25992915D01*
X3305939Y25988723D01*
X3290957Y25983196D01*
X3285996Y25980244D01*
X3285995Y25980244D01*
X3117686Y25880110D01*
X3101341Y25870386D01*
X2935457Y25724910D01*
X2798863Y25551640D01*
X2696131Y25356380D01*
X2630703Y25145667D01*
X2604770Y24926560D01*
X2619200Y24706396D01*
X2620621Y24700800D01*
X2620622Y24700795D01*
X2665293Y24524905D01*
X2673511Y24492548D01*
X2675928Y24487306D01*
X2675928Y24487305D01*
X2714046Y24404621D01*
X2765883Y24292179D01*
X2893222Y24111998D01*
X3051264Y23958039D01*
X3056060Y23954834D01*
X3056063Y23954832D01*
X3140261Y23898573D01*
X3234717Y23835460D01*
X3240020Y23833182D01*
X3240023Y23833180D01*
X3355133Y23783725D01*
X3409826Y23738457D01*
X3431363Y23670805D01*
X3421105Y23624162D01*
X3422478Y23623728D01*
X3421532Y23620738D01*
X3419183Y23615425D01*
X3418544Y23612519D01*
X3416308Y23607956D01*
X3413512Y23600895D01*
X3408783Y23592753D01*
X3406657Y23583579D01*
X3406656Y23583578D01*
X3399200Y23551411D01*
X3396589Y23541867D01*
X3393826Y23533131D01*
X3354213Y23474213D01*
X3317301Y23452915D01*
X3305939Y23448723D01*
X3290957Y23443196D01*
X3285996Y23440244D01*
X3285995Y23440244D01*
X3135471Y23350691D01*
X3101341Y23330386D01*
X2935457Y23184910D01*
X2798863Y23011640D01*
X2696131Y22816380D01*
X2630703Y22605667D01*
X2604770Y22386560D01*
X2619200Y22166396D01*
X2620621Y22160800D01*
X2620622Y22160795D01*
X2665293Y21984905D01*
X2673511Y21952548D01*
X2675928Y21947306D01*
X2675928Y21947305D01*
X2714046Y21864621D01*
X2765883Y21752179D01*
X2893222Y21571998D01*
X3051264Y21418039D01*
X3056060Y21414834D01*
X3056063Y21414832D01*
X3140261Y21358573D01*
X3234717Y21295460D01*
X3240020Y21293182D01*
X3240023Y21293180D01*
X3408653Y21220731D01*
X3437436Y21208365D01*
X3443071Y21207090D01*
X3443074Y21207089D01*
X3444484Y21206770D01*
X3445083Y21206436D01*
X3448562Y21205306D01*
X3448340Y21204623D01*
X3506511Y21172228D01*
X3540016Y21109634D01*
X3534362Y21038863D01*
X3491344Y20982384D01*
X3460287Y20965665D01*
X3296376Y20905196D01*
X3296368Y20905192D01*
X3290957Y20903196D01*
X3285996Y20900244D01*
X3285995Y20900244D01*
X3212694Y20856634D01*
X3101341Y20790386D01*
X2935457Y20644910D01*
X2798863Y20471640D01*
X2696131Y20276380D01*
X2630703Y20065667D01*
X2604770Y19846560D01*
X2619200Y19626396D01*
X2620621Y19620800D01*
X2620622Y19620795D01*
X2665293Y19444905D01*
X2673511Y19412548D01*
X2675928Y19407306D01*
X2675928Y19407305D01*
X2714046Y19324621D01*
X2765883Y19212179D01*
X2893222Y19031998D01*
X3051264Y18878039D01*
X3056060Y18874834D01*
X3056063Y18874832D01*
X3140261Y18818573D01*
X3234717Y18755460D01*
X3240020Y18753182D01*
X3240023Y18753180D01*
X3413904Y18678475D01*
X3437436Y18668365D01*
X3443071Y18667090D01*
X3443074Y18667089D01*
X3444484Y18666770D01*
X3445083Y18666436D01*
X3448562Y18665306D01*
X3448340Y18664623D01*
X3506511Y18632228D01*
X3540016Y18569634D01*
X3534362Y18498863D01*
X3491344Y18442384D01*
X3460287Y18425665D01*
X3296376Y18365196D01*
X3296368Y18365192D01*
X3290957Y18363196D01*
X3285996Y18360244D01*
X3285995Y18360244D01*
X3212694Y18316634D01*
X3101341Y18250386D01*
X2935457Y18104910D01*
X2798863Y17931640D01*
X2696131Y17736380D01*
X2630703Y17525667D01*
X2604770Y17306560D01*
X2619200Y17086396D01*
X2620621Y17080800D01*
X2620622Y17080795D01*
X2665293Y16904905D01*
X2673511Y16872548D01*
X2675928Y16867306D01*
X2675928Y16867305D01*
X2714046Y16784621D01*
X2765883Y16672179D01*
X2893222Y16491998D01*
X2902597Y16482865D01*
X3042049Y16347016D01*
X3076886Y16285154D01*
X3072749Y16214278D01*
X3043222Y16167667D01*
X2433078Y15557523D01*
X2421988Y15547668D01*
X2404434Y15533830D01*
X2404430Y15533826D01*
X2397035Y15527996D01*
X2365443Y15482285D01*
X2363210Y15479162D01*
X2330238Y15434521D01*
X2327973Y15428071D01*
X2324083Y15422443D01*
X2321245Y15413468D01*
X2321242Y15413463D01*
X2307356Y15369554D01*
X2306103Y15365797D01*
X2290843Y15322345D01*
X2290842Y15322342D01*
X2287723Y15313459D01*
X2287454Y15306623D01*
X2285393Y15300105D01*
X2284900Y15293841D01*
X2284900Y15244080D01*
X2284803Y15239134D01*
X2282686Y15185248D01*
X2284492Y15178437D01*
X2284900Y15171022D01*
X2284900Y9193310D01*
X2284027Y9178502D01*
X2280292Y9146945D01*
X500000Y9146945D01*
X500000Y59374000D01*
X520002Y59442121D01*
X573658Y59488614D01*
X626000Y59500000D01*
X27374000Y59500000D01*
X27442121Y59479998D01*
G37*
G04 #@! TD.AperFunction*
M02*
