G04 #@! TF.GenerationSoftware,KiCad,Pcbnew,(6.0.7-1)-1*
G04 #@! TF.CreationDate,2022-09-10T00:17:00+09:00*
G04 #@! TF.ProjectId,MEZ6800,4d455a36-3830-4302-9e6b-696361645f70,A*
G04 #@! TF.SameCoordinates,PX5f5e100PY8f0d180*
G04 #@! TF.FileFunction,Legend,Bot*
G04 #@! TF.FilePolarity,Positive*
%FSLAX46Y46*%
G04 Gerber Fmt 4.6, Leading zero omitted, Abs format (unit mm)*
G04 Created by KiCad (PCBNEW (6.0.7-1)-1) date 2022-09-10 00:17:00*
%MOMM*%
%LPD*%
G01*
G04 APERTURE LIST*
%ADD10C,0.150000*%
%ADD11C,0.120000*%
G04 APERTURE END LIST*
D10*
X13617380Y34416667D02*
X12617380Y34416667D01*
X13331666Y34083334D01*
X12617380Y33750000D01*
X13617380Y33750000D01*
X13093571Y33273810D02*
X13093571Y32940477D01*
X13617380Y32797620D02*
X13617380Y33273810D01*
X12617380Y33273810D01*
X12617380Y32797620D01*
X12617380Y32464286D02*
X12617380Y31797620D01*
X13617380Y32464286D01*
X13617380Y31797620D01*
X12617380Y30988096D02*
X12617380Y31178572D01*
X12665000Y31273810D01*
X12712619Y31321429D01*
X12855476Y31416667D01*
X13045952Y31464286D01*
X13426904Y31464286D01*
X13522142Y31416667D01*
X13569761Y31369048D01*
X13617380Y31273810D01*
X13617380Y31083334D01*
X13569761Y30988096D01*
X13522142Y30940477D01*
X13426904Y30892858D01*
X13188809Y30892858D01*
X13093571Y30940477D01*
X13045952Y30988096D01*
X12998333Y31083334D01*
X12998333Y31273810D01*
X13045952Y31369048D01*
X13093571Y31416667D01*
X13188809Y31464286D01*
X13045952Y30321429D02*
X12998333Y30416667D01*
X12950714Y30464286D01*
X12855476Y30511905D01*
X12807857Y30511905D01*
X12712619Y30464286D01*
X12665000Y30416667D01*
X12617380Y30321429D01*
X12617380Y30130953D01*
X12665000Y30035715D01*
X12712619Y29988096D01*
X12807857Y29940477D01*
X12855476Y29940477D01*
X12950714Y29988096D01*
X12998333Y30035715D01*
X13045952Y30130953D01*
X13045952Y30321429D01*
X13093571Y30416667D01*
X13141190Y30464286D01*
X13236428Y30511905D01*
X13426904Y30511905D01*
X13522142Y30464286D01*
X13569761Y30416667D01*
X13617380Y30321429D01*
X13617380Y30130953D01*
X13569761Y30035715D01*
X13522142Y29988096D01*
X13426904Y29940477D01*
X13236428Y29940477D01*
X13141190Y29988096D01*
X13093571Y30035715D01*
X13045952Y30130953D01*
X12617380Y29321429D02*
X12617380Y29226191D01*
X12665000Y29130953D01*
X12712619Y29083334D01*
X12807857Y29035715D01*
X12998333Y28988096D01*
X13236428Y28988096D01*
X13426904Y29035715D01*
X13522142Y29083334D01*
X13569761Y29130953D01*
X13617380Y29226191D01*
X13617380Y29321429D01*
X13569761Y29416667D01*
X13522142Y29464286D01*
X13426904Y29511905D01*
X13236428Y29559524D01*
X12998333Y29559524D01*
X12807857Y29511905D01*
X12712619Y29464286D01*
X12665000Y29416667D01*
X12617380Y29321429D01*
X12617380Y28369048D02*
X12617380Y28273810D01*
X12665000Y28178572D01*
X12712619Y28130953D01*
X12807857Y28083334D01*
X12998333Y28035715D01*
X13236428Y28035715D01*
X13426904Y28083334D01*
X13522142Y28130953D01*
X13569761Y28178572D01*
X13617380Y28273810D01*
X13617380Y28369048D01*
X13569761Y28464286D01*
X13522142Y28511905D01*
X13426904Y28559524D01*
X13236428Y28607143D01*
X12998333Y28607143D01*
X12807857Y28559524D01*
X12712619Y28511905D01*
X12665000Y28464286D01*
X12617380Y28369048D01*
X15227380Y45488096D02*
X14227380Y45488096D01*
X14941666Y45154762D01*
X14227380Y44821429D01*
X15227380Y44821429D01*
X15132142Y43773810D02*
X15179761Y43821429D01*
X15227380Y43964286D01*
X15227380Y44059524D01*
X15179761Y44202381D01*
X15084523Y44297620D01*
X14989285Y44345239D01*
X14798809Y44392858D01*
X14655952Y44392858D01*
X14465476Y44345239D01*
X14370238Y44297620D01*
X14275000Y44202381D01*
X14227380Y44059524D01*
X14227380Y43964286D01*
X14275000Y43821429D01*
X14322619Y43773810D01*
X14227380Y42916667D02*
X14227380Y43107143D01*
X14275000Y43202381D01*
X14322619Y43250001D01*
X14465476Y43345239D01*
X14655952Y43392858D01*
X15036904Y43392858D01*
X15132142Y43345239D01*
X15179761Y43297620D01*
X15227380Y43202381D01*
X15227380Y43011905D01*
X15179761Y42916667D01*
X15132142Y42869048D01*
X15036904Y42821429D01*
X14798809Y42821429D01*
X14703571Y42869048D01*
X14655952Y42916667D01*
X14608333Y43011905D01*
X14608333Y43202381D01*
X14655952Y43297620D01*
X14703571Y43345239D01*
X14798809Y43392858D01*
X14655952Y42250001D02*
X14608333Y42345239D01*
X14560714Y42392858D01*
X14465476Y42440477D01*
X14417857Y42440477D01*
X14322619Y42392858D01*
X14275000Y42345239D01*
X14227380Y42250001D01*
X14227380Y42059524D01*
X14275000Y41964286D01*
X14322619Y41916667D01*
X14417857Y41869048D01*
X14465476Y41869048D01*
X14560714Y41916667D01*
X14608333Y41964286D01*
X14655952Y42059524D01*
X14655952Y42250001D01*
X14703571Y42345239D01*
X14751190Y42392858D01*
X14846428Y42440477D01*
X15036904Y42440477D01*
X15132142Y42392858D01*
X15179761Y42345239D01*
X15227380Y42250001D01*
X15227380Y42059524D01*
X15179761Y41964286D01*
X15132142Y41916667D01*
X15036904Y41869048D01*
X14846428Y41869048D01*
X14751190Y41916667D01*
X14703571Y41964286D01*
X14655952Y42059524D01*
X14227380Y41250001D02*
X14227380Y41154762D01*
X14275000Y41059524D01*
X14322619Y41011905D01*
X14417857Y40964286D01*
X14608333Y40916667D01*
X14846428Y40916667D01*
X15036904Y40964286D01*
X15132142Y41011905D01*
X15179761Y41059524D01*
X15227380Y41154762D01*
X15227380Y41250001D01*
X15179761Y41345239D01*
X15132142Y41392858D01*
X15036904Y41440477D01*
X14846428Y41488096D01*
X14608333Y41488096D01*
X14417857Y41440477D01*
X14322619Y41392858D01*
X14275000Y41345239D01*
X14227380Y41250001D01*
X14227380Y40297620D02*
X14227380Y40202381D01*
X14275000Y40107143D01*
X14322619Y40059524D01*
X14417857Y40011905D01*
X14608333Y39964286D01*
X14846428Y39964286D01*
X15036904Y40011905D01*
X15132142Y40059524D01*
X15179761Y40107143D01*
X15227380Y40202381D01*
X15227380Y40297620D01*
X15179761Y40392858D01*
X15132142Y40440477D01*
X15036904Y40488096D01*
X14846428Y40535715D01*
X14608333Y40535715D01*
X14417857Y40488096D01*
X14322619Y40440477D01*
X14275000Y40392858D01*
X14227380Y40297620D01*
X15227380Y38773810D02*
X14227380Y38773810D01*
X14941666Y38440477D01*
X14227380Y38107143D01*
X15227380Y38107143D01*
X15179761Y37250001D02*
X15227380Y37345239D01*
X15227380Y37535715D01*
X15179761Y37630953D01*
X15084523Y37678572D01*
X14703571Y37678572D01*
X14608333Y37630953D01*
X14560714Y37535715D01*
X14560714Y37345239D01*
X14608333Y37250001D01*
X14703571Y37202381D01*
X14798809Y37202381D01*
X14894047Y37678572D01*
X14560714Y36869048D02*
X14560714Y36345239D01*
X15227380Y36869048D01*
X15227380Y36345239D01*
X14560714Y36059524D02*
X14560714Y35535715D01*
X15227380Y36059524D01*
X15227380Y35535715D01*
X15227380Y34726191D02*
X14703571Y34726191D01*
X14608333Y34773810D01*
X14560714Y34869048D01*
X14560714Y35059524D01*
X14608333Y35154762D01*
X15179761Y34726191D02*
X15227380Y34821429D01*
X15227380Y35059524D01*
X15179761Y35154762D01*
X15084523Y35202381D01*
X14989285Y35202381D01*
X14894047Y35154762D01*
X14846428Y35059524D01*
X14846428Y34821429D01*
X14798809Y34726191D01*
X14560714Y34250001D02*
X15227380Y34250001D01*
X14655952Y34250001D02*
X14608333Y34202381D01*
X14560714Y34107143D01*
X14560714Y33964286D01*
X14608333Y33869048D01*
X14703571Y33821429D01*
X15227380Y33821429D01*
X15227380Y33345239D02*
X14560714Y33345239D01*
X14227380Y33345239D02*
X14275000Y33392858D01*
X14322619Y33345239D01*
X14275000Y33297620D01*
X14227380Y33345239D01*
X14322619Y33345239D01*
X14560714Y32869048D02*
X15227380Y32869048D01*
X14655952Y32869048D02*
X14608333Y32821429D01*
X14560714Y32726191D01*
X14560714Y32583334D01*
X14608333Y32488096D01*
X14703571Y32440477D01*
X15227380Y32440477D01*
X15179761Y31583334D02*
X15227380Y31678572D01*
X15227380Y31869048D01*
X15179761Y31964286D01*
X15084523Y32011905D01*
X14703571Y32011905D01*
X14608333Y31964286D01*
X14560714Y31869048D01*
X14560714Y31678572D01*
X14608333Y31583334D01*
X14703571Y31535715D01*
X14798809Y31535715D01*
X14894047Y32011905D01*
X15227380Y30345239D02*
X14227380Y30345239D01*
X14608333Y30345239D02*
X14560714Y30250001D01*
X14560714Y30059524D01*
X14608333Y29964286D01*
X14655952Y29916667D01*
X14751190Y29869048D01*
X15036904Y29869048D01*
X15132142Y29916667D01*
X15179761Y29964286D01*
X15227380Y30059524D01*
X15227380Y30250001D01*
X15179761Y30345239D01*
X15227380Y29297620D02*
X15179761Y29392858D01*
X15132142Y29440477D01*
X15036904Y29488096D01*
X14751190Y29488096D01*
X14655952Y29440477D01*
X14608333Y29392858D01*
X14560714Y29297620D01*
X14560714Y29154762D01*
X14608333Y29059524D01*
X14655952Y29011905D01*
X14751190Y28964286D01*
X15036904Y28964286D01*
X15132142Y29011905D01*
X15179761Y29059524D01*
X15227380Y29154762D01*
X15227380Y29297620D01*
X15227380Y28107143D02*
X14703571Y28107143D01*
X14608333Y28154762D01*
X14560714Y28250001D01*
X14560714Y28440477D01*
X14608333Y28535715D01*
X15179761Y28107143D02*
X15227380Y28202381D01*
X15227380Y28440477D01*
X15179761Y28535715D01*
X15084523Y28583334D01*
X14989285Y28583334D01*
X14894047Y28535715D01*
X14846428Y28440477D01*
X14846428Y28202381D01*
X14798809Y28107143D01*
X15227380Y27630953D02*
X14560714Y27630953D01*
X14751190Y27630953D02*
X14655952Y27583334D01*
X14608333Y27535715D01*
X14560714Y27440477D01*
X14560714Y27345239D01*
X15227380Y26583334D02*
X14227380Y26583334D01*
X15179761Y26583334D02*
X15227380Y26678572D01*
X15227380Y26869048D01*
X15179761Y26964286D01*
X15132142Y27011905D01*
X15036904Y27059524D01*
X14751190Y27059524D01*
X14655952Y27011905D01*
X14608333Y26964286D01*
X14560714Y26869048D01*
X14560714Y26678572D01*
X14608333Y26583334D01*
X14560714Y25488096D02*
X14560714Y25107143D01*
X15227380Y25345239D02*
X14370238Y25345239D01*
X14275000Y25297620D01*
X14227380Y25202381D01*
X14227380Y25107143D01*
X15227380Y24630953D02*
X15179761Y24726191D01*
X15132142Y24773810D01*
X15036904Y24821429D01*
X14751190Y24821429D01*
X14655952Y24773810D01*
X14608333Y24726191D01*
X14560714Y24630953D01*
X14560714Y24488096D01*
X14608333Y24392858D01*
X14655952Y24345239D01*
X14751190Y24297620D01*
X15036904Y24297620D01*
X15132142Y24345239D01*
X15179761Y24392858D01*
X15227380Y24488096D01*
X15227380Y24630953D01*
X15227380Y23869048D02*
X14560714Y23869048D01*
X14751190Y23869048D02*
X14655952Y23821429D01*
X14608333Y23773810D01*
X14560714Y23678572D01*
X14560714Y23583334D01*
X14703571Y22488096D02*
X14703571Y22154762D01*
X15227380Y22011905D02*
X15227380Y22488096D01*
X14227380Y22488096D01*
X14227380Y22011905D01*
X15227380Y21583334D02*
X14227380Y21583334D01*
X14941666Y21250001D01*
X14227380Y20916667D01*
X15227380Y20916667D01*
X14227380Y20440477D02*
X15036904Y20440477D01*
X15132142Y20392858D01*
X15179761Y20345239D01*
X15227380Y20250001D01*
X15227380Y20059524D01*
X15179761Y19964286D01*
X15132142Y19916667D01*
X15036904Y19869048D01*
X14227380Y19869048D01*
X14227380Y19488096D02*
X14227380Y18821429D01*
X15227380Y19488096D01*
X15227380Y18821429D01*
X14655952Y18297620D02*
X14608333Y18392858D01*
X14560714Y18440477D01*
X14465476Y18488096D01*
X14417857Y18488096D01*
X14322619Y18440477D01*
X14275000Y18392858D01*
X14227380Y18297620D01*
X14227380Y18107143D01*
X14275000Y18011905D01*
X14322619Y17964286D01*
X14417857Y17916667D01*
X14465476Y17916667D01*
X14560714Y17964286D01*
X14608333Y18011905D01*
X14655952Y18107143D01*
X14655952Y18297620D01*
X14703571Y18392858D01*
X14751190Y18440477D01*
X14846428Y18488096D01*
X15036904Y18488096D01*
X15132142Y18440477D01*
X15179761Y18392858D01*
X15227380Y18297620D01*
X15227380Y18107143D01*
X15179761Y18011905D01*
X15132142Y17964286D01*
X15036904Y17916667D01*
X14846428Y17916667D01*
X14751190Y17964286D01*
X14703571Y18011905D01*
X14655952Y18107143D01*
X14227380Y17297620D02*
X14227380Y17202381D01*
X14275000Y17107143D01*
X14322619Y17059524D01*
X14417857Y17011905D01*
X14608333Y16964286D01*
X14846428Y16964286D01*
X15036904Y17011905D01*
X15132142Y17059524D01*
X15179761Y17107143D01*
X15227380Y17202381D01*
X15227380Y17297620D01*
X15179761Y17392858D01*
X15132142Y17440477D01*
X15036904Y17488096D01*
X14846428Y17535715D01*
X14608333Y17535715D01*
X14417857Y17488096D01*
X14322619Y17440477D01*
X14275000Y17392858D01*
X14227380Y17297620D01*
X24463333Y58252620D02*
X24463333Y57538334D01*
X24510952Y57395477D01*
X24606190Y57300239D01*
X24749047Y57252620D01*
X24844285Y57252620D01*
X24034761Y58157381D02*
X23987142Y58205000D01*
X23891904Y58252620D01*
X23653809Y58252620D01*
X23558571Y58205000D01*
X23510952Y58157381D01*
X23463333Y58062143D01*
X23463333Y57966905D01*
X23510952Y57824048D01*
X24082380Y57252620D01*
X23463333Y57252620D01*
X4143333Y58252620D02*
X4143333Y57538334D01*
X4190952Y57395477D01*
X4286190Y57300239D01*
X4429047Y57252620D01*
X4524285Y57252620D01*
X3143333Y57252620D02*
X3714761Y57252620D01*
X3429047Y57252620D02*
X3429047Y58252620D01*
X3524285Y58109762D01*
X3619523Y58014524D01*
X3714761Y57966905D01*
D11*
X22800000Y54105000D02*
X22800000Y5785000D01*
X25460000Y56705000D02*
X24130000Y56705000D01*
X25460000Y54105000D02*
X22800000Y54105000D01*
X25460000Y5785000D02*
X22800000Y5785000D01*
X25460000Y54105000D02*
X25460000Y5785000D01*
X25460000Y55375000D02*
X25460000Y56705000D01*
X2480000Y54105000D02*
X2480000Y5785000D01*
X5140000Y54105000D02*
X2480000Y54105000D01*
X5140000Y55375000D02*
X5140000Y56705000D01*
X5140000Y5785000D02*
X2480000Y5785000D01*
X5140000Y54105000D02*
X5140000Y5785000D01*
X5140000Y56705000D02*
X3810000Y56705000D01*
M02*
