G04 #@! TF.GenerationSoftware,KiCad,Pcbnew,(6.0.7-1)-1*
G04 #@! TF.CreationDate,2022-09-10T00:16:59+09:00*
G04 #@! TF.ProjectId,MEZ6800,4d455a36-3830-4302-9e6b-696361645f70,A*
G04 #@! TF.SameCoordinates,PX5f5e100PY8f0d180*
G04 #@! TF.FileFunction,Copper,L1,Top*
G04 #@! TF.FilePolarity,Positive*
%FSLAX46Y46*%
G04 Gerber Fmt 4.6, Leading zero omitted, Abs format (unit mm)*
G04 Created by KiCad (PCBNEW (6.0.7-1)-1) date 2022-09-10 00:16:59*
%MOMM*%
%LPD*%
G01*
G04 APERTURE LIST*
G04 #@! TA.AperFunction,ComponentPad*
%ADD10O,1.600000X1.600000*%
G04 #@! TD*
G04 #@! TA.AperFunction,ComponentPad*
%ADD11R,1.600000X1.600000*%
G04 #@! TD*
G04 #@! TA.AperFunction,ComponentPad*
%ADD12C,1.600000*%
G04 #@! TD*
G04 #@! TA.AperFunction,ComponentPad*
%ADD13O,1.700000X1.700000*%
G04 #@! TD*
G04 #@! TA.AperFunction,ComponentPad*
%ADD14R,1.700000X1.700000*%
G04 #@! TD*
G04 #@! TA.AperFunction,ViaPad*
%ADD15C,0.605000*%
G04 #@! TD*
G04 #@! TA.AperFunction,Conductor*
%ADD16C,1.200000*%
G04 #@! TD*
G04 #@! TA.AperFunction,Conductor*
%ADD17C,0.152400*%
G04 #@! TD*
G04 APERTURE END LIST*
D10*
X6355000Y7125000D03*
X6355000Y9665000D03*
X6355000Y12205000D03*
X6355000Y14745000D03*
X6355000Y17285000D03*
X6355000Y19825000D03*
X6355000Y22365000D03*
X6355000Y24905000D03*
X6355000Y27445000D03*
X6355000Y29985000D03*
X6355000Y32525000D03*
X6355000Y35065000D03*
X6355000Y37605000D03*
X6355000Y40145000D03*
X6355000Y42685000D03*
X6355000Y45225000D03*
X6355000Y47765000D03*
X6355000Y50305000D03*
X6355000Y52845000D03*
X6355000Y55385000D03*
X21595000Y55385000D03*
X21595000Y52845000D03*
X21595000Y50305000D03*
X21595000Y47765000D03*
X21595000Y45225000D03*
X21595000Y42685000D03*
X21595000Y40145000D03*
X21595000Y37605000D03*
X21595000Y35065000D03*
X21595000Y32525000D03*
X21595000Y29985000D03*
X21595000Y27445000D03*
X21595000Y24905000D03*
X21595000Y22365000D03*
X21595000Y19825000D03*
X21595000Y17285000D03*
X21595000Y14745000D03*
X21595000Y12205000D03*
X21595000Y9665000D03*
D11*
X21595000Y7125000D03*
D12*
X3195000Y2675000D03*
X5695000Y2675000D03*
D13*
X24130000Y7115000D03*
X24130000Y9655000D03*
X24130000Y12195000D03*
X24130000Y14735000D03*
X24130000Y17275000D03*
X24130000Y19815000D03*
X24130000Y22355000D03*
X24130000Y24895000D03*
X24130000Y27435000D03*
X24130000Y29975000D03*
X24130000Y32515000D03*
X24130000Y35055000D03*
X24130000Y37595000D03*
X24130000Y40135000D03*
X24130000Y42675000D03*
X24130000Y45215000D03*
X24130000Y47755000D03*
X24130000Y50295000D03*
X24130000Y52835000D03*
D14*
X24130000Y55375000D03*
D13*
X3810000Y7115000D03*
X3810000Y9655000D03*
X3810000Y12195000D03*
X3810000Y14735000D03*
X3810000Y17275000D03*
X3810000Y19815000D03*
X3810000Y22355000D03*
X3810000Y24895000D03*
X3810000Y27435000D03*
X3810000Y29975000D03*
X3810000Y32515000D03*
X3810000Y35055000D03*
X3810000Y37595000D03*
X3810000Y40135000D03*
X3810000Y42675000D03*
X3810000Y45215000D03*
X3810000Y47755000D03*
X3810000Y50295000D03*
X3810000Y52835000D03*
D14*
X3810000Y55375000D03*
D15*
X19685000Y16010000D03*
X19685000Y52840000D03*
X26035000Y43950000D03*
X9525000Y16010000D03*
X9525000Y52840000D03*
X19685000Y31250000D03*
X26035000Y2675000D03*
X1905000Y33790000D03*
X9525000Y31250000D03*
X26035000Y57920000D03*
D16*
X17780000Y3945000D02*
X17780000Y23630000D01*
X17780000Y23630000D02*
X19055000Y24905000D01*
X3810000Y29975000D02*
X2535000Y29975000D01*
X2535000Y29975000D02*
X1905000Y29345000D01*
X1905000Y5850000D02*
X3175000Y4580000D01*
X3175000Y4580000D02*
X5080000Y4580000D01*
X5695000Y3925000D02*
X5695000Y2675000D01*
X5080000Y4580000D02*
X5715000Y3945000D01*
X5695000Y2675000D02*
X16510000Y2675000D01*
X16510000Y2675000D02*
X17780000Y3945000D01*
X5715000Y3945000D02*
X5695000Y3925000D01*
X1905000Y29345000D02*
X1905000Y5850000D01*
X19055000Y24905000D02*
X21595000Y24905000D01*
D17*
X3810000Y33593900D02*
X3945000Y33593900D01*
X6355000Y40145000D02*
X6355000Y39116100D01*
X4888900Y34537800D02*
X4888900Y37650000D01*
X3810000Y32515000D02*
X3810000Y33593900D01*
X4888900Y37650000D02*
X6355000Y39116100D01*
X3945000Y33593900D02*
X4888900Y34537800D01*
X3810000Y28513900D02*
X3961600Y28513900D01*
X3810000Y27435000D02*
X3810000Y28513900D01*
X5326100Y29878400D02*
X5326100Y29985000D01*
X6355000Y29985000D02*
X5326100Y29985000D01*
X3961600Y28513900D02*
X5326100Y29878400D01*
X3945000Y20893900D02*
X4888900Y21837800D01*
X4888900Y24950000D02*
X6355000Y26416100D01*
X6355000Y27445000D02*
X6355000Y26416100D01*
X3810000Y20893900D02*
X3945000Y20893900D01*
X4888900Y21837800D02*
X4888900Y24950000D01*
X3810000Y19815000D02*
X3810000Y20893900D01*
X6355000Y14745000D02*
X6355000Y17285000D01*
X3810000Y7115000D02*
X3810000Y8193900D01*
X3945000Y8193900D02*
X4888900Y9137800D01*
X4888900Y12250000D02*
X6355000Y13716100D01*
X6355000Y14745000D02*
X6355000Y13716100D01*
X3810000Y8193900D02*
X3945000Y8193900D01*
X4888900Y9137800D02*
X4888900Y12250000D01*
X23995000Y23816100D02*
X23051100Y22872200D01*
X21595000Y17285000D02*
X21595000Y18313900D01*
X23051100Y22872200D02*
X23051100Y19770000D01*
X24130000Y23816100D02*
X23995000Y23816100D01*
X24130000Y24895000D02*
X24130000Y23816100D01*
X23051100Y19770000D02*
X21595000Y18313900D01*
X22633900Y9655000D02*
X22623900Y9665000D01*
X21595000Y9665000D02*
X22623900Y9665000D01*
X24130000Y9655000D02*
X22633900Y9655000D01*
G04 #@! TA.AperFunction,Conductor*
G36*
X27442121Y59479998D02*
G01*
X27488614Y59426342D01*
X27500000Y59374000D01*
X27500000Y626000D01*
X27479998Y557879D01*
X27426342Y511386D01*
X27374000Y500000D01*
X626000Y500000D01*
X557879Y520002D01*
X511386Y573658D01*
X500000Y626000D01*
X500000Y1588938D01*
X2473493Y1588938D01*
X2482789Y1576923D01*
X2533994Y1541069D01*
X2543489Y1535586D01*
X2740947Y1443510D01*
X2751239Y1439764D01*
X2961688Y1383375D01*
X2972481Y1381472D01*
X3189525Y1362483D01*
X3200475Y1362483D01*
X3417519Y1381472D01*
X3428312Y1383375D01*
X3638761Y1439764D01*
X3649053Y1443510D01*
X3846511Y1535586D01*
X3856006Y1541069D01*
X3908048Y1577509D01*
X3916424Y1587988D01*
X3909356Y1601434D01*
X3207812Y2302978D01*
X3193868Y2310592D01*
X3192035Y2310461D01*
X3185420Y2306210D01*
X2479923Y1600713D01*
X2473493Y1588938D01*
X500000Y1588938D01*
X500000Y2669525D01*
X1882483Y2669525D01*
X1901472Y2452481D01*
X1903375Y2441688D01*
X1959764Y2231239D01*
X1963510Y2220947D01*
X2055586Y2023489D01*
X2061069Y2013994D01*
X2097509Y1961952D01*
X2107988Y1953576D01*
X2121434Y1960644D01*
X2822978Y2662188D01*
X2830592Y2676132D01*
X2830461Y2677965D01*
X2826210Y2684580D01*
X2120713Y3390077D01*
X2108938Y3396507D01*
X2096923Y3387211D01*
X2061069Y3336006D01*
X2055586Y3326511D01*
X1963510Y3129053D01*
X1959764Y3118761D01*
X1903375Y2908312D01*
X1901472Y2897519D01*
X1882483Y2680475D01*
X1882483Y2669525D01*
X500000Y2669525D01*
X500000Y29321658D01*
X949883Y29321658D01*
X950683Y29315326D01*
X953506Y29292979D01*
X954500Y29277187D01*
X954500Y5865432D01*
X954451Y5861914D01*
X953062Y5812167D01*
X952164Y5780028D01*
X962075Y5723821D01*
X963343Y5714678D01*
X969112Y5657890D01*
X975704Y5636855D01*
X977166Y5632189D01*
X981016Y5616393D01*
X984585Y5596153D01*
X984587Y5596144D01*
X985695Y5589863D01*
X988044Y5583930D01*
X1006706Y5536794D01*
X1009788Y5528091D01*
X1026856Y5473627D01*
X1029950Y5468044D01*
X1029951Y5468043D01*
X1039918Y5450062D01*
X1046862Y5435371D01*
X1056779Y5410325D01*
X1078184Y5377615D01*
X1088028Y5362572D01*
X1092798Y5354664D01*
X1120472Y5304739D01*
X1124626Y5299893D01*
X1124627Y5299891D01*
X1138001Y5284288D01*
X1147766Y5271282D01*
X1162513Y5248746D01*
X1166758Y5244032D01*
X1203543Y5207247D01*
X1210116Y5200150D01*
X1246136Y5158125D01*
X1268986Y5140400D01*
X1280848Y5129942D01*
X2471696Y3939094D01*
X2505722Y3876782D01*
X2500657Y3805967D01*
X2481023Y3771328D01*
X2473576Y3762012D01*
X2480644Y3748566D01*
X4269287Y1959923D01*
X4281062Y1953493D01*
X4293077Y1962789D01*
X4328931Y2013994D01*
X4334414Y2023489D01*
X4417680Y2202054D01*
X4464597Y2255339D01*
X4532875Y2274800D01*
X4600835Y2254258D01*
X4646300Y2201556D01*
X4694369Y2097286D01*
X4816405Y1924609D01*
X4820539Y1920582D01*
X4949507Y1794947D01*
X4967865Y1777063D01*
X4972661Y1773858D01*
X4972664Y1773856D01*
X5050027Y1722164D01*
X5143677Y1659589D01*
X5148985Y1657308D01*
X5148986Y1657308D01*
X5332650Y1578400D01*
X5332653Y1578399D01*
X5337953Y1576122D01*
X5343582Y1574848D01*
X5343583Y1574848D01*
X5538550Y1530731D01*
X5538553Y1530731D01*
X5544186Y1529456D01*
X5549957Y1529229D01*
X5549959Y1529229D01*
X5611989Y1526792D01*
X5755470Y1521154D01*
X5761179Y1521982D01*
X5761183Y1521982D01*
X5959015Y1550667D01*
X5959019Y1550668D01*
X5964730Y1551496D01*
X6043987Y1578400D01*
X6159483Y1617605D01*
X6159488Y1617607D01*
X6164955Y1619463D01*
X6323823Y1708434D01*
X6385390Y1724500D01*
X16494568Y1724500D01*
X16498086Y1724451D01*
X16573589Y1722342D01*
X16573592Y1722342D01*
X16579972Y1722164D01*
X16636191Y1732077D01*
X16645322Y1733343D01*
X16702110Y1739112D01*
X16723145Y1745704D01*
X16727811Y1747166D01*
X16743607Y1751016D01*
X16763847Y1754585D01*
X16763856Y1754587D01*
X16770137Y1755695D01*
X16776070Y1758044D01*
X16823206Y1776706D01*
X16831909Y1779788D01*
X16836064Y1781090D01*
X16886373Y1796856D01*
X16909939Y1809919D01*
X16924629Y1816862D01*
X16949675Y1826779D01*
X16997431Y1858030D01*
X17005336Y1862798D01*
X17049672Y1887374D01*
X17055261Y1890472D01*
X17075712Y1908001D01*
X17088718Y1917766D01*
X17099175Y1924609D01*
X17111254Y1932513D01*
X17115968Y1936758D01*
X17152753Y1973543D01*
X17159850Y1980116D01*
X17197032Y2011985D01*
X17201875Y2016136D01*
X17219600Y2038986D01*
X17230058Y2050848D01*
X18441189Y3261979D01*
X18443711Y3264432D01*
X18503235Y3320721D01*
X18506896Y3325950D01*
X18506899Y3325953D01*
X18535973Y3367475D01*
X18541543Y3374839D01*
X18573579Y3414120D01*
X18573580Y3414122D01*
X18577615Y3419069D01*
X18590100Y3442950D01*
X18598540Y3456832D01*
X18613991Y3478898D01*
X18636664Y3531293D01*
X18640622Y3539591D01*
X18667077Y3590194D01*
X18671075Y3604135D01*
X18674502Y3616087D01*
X18679985Y3631400D01*
X18688143Y3650251D01*
X18688145Y3650256D01*
X18690680Y3656115D01*
X18702355Y3712000D01*
X18704561Y3720916D01*
X18720303Y3775813D01*
X18722371Y3802682D01*
X18724662Y3818779D01*
X18725206Y3821379D01*
X18730168Y3845133D01*
X18730500Y3851468D01*
X18730500Y3903494D01*
X18730871Y3913161D01*
X18731210Y3917559D01*
X18735117Y3968342D01*
X18731494Y3997021D01*
X18730500Y4012813D01*
X18730500Y6280331D01*
X20287001Y6280331D01*
X20287371Y6273510D01*
X20292895Y6222648D01*
X20296521Y6207396D01*
X20341676Y6086946D01*
X20350214Y6071351D01*
X20426715Y5969276D01*
X20439276Y5956715D01*
X20541351Y5880214D01*
X20556946Y5871676D01*
X20677394Y5826522D01*
X20692649Y5822895D01*
X20743514Y5817369D01*
X20750328Y5817000D01*
X21322885Y5817000D01*
X21338124Y5821475D01*
X21339329Y5822865D01*
X21341000Y5830548D01*
X21341000Y6852885D01*
X21336525Y6868124D01*
X21335135Y6869329D01*
X21327452Y6871000D01*
X20305116Y6871000D01*
X20289877Y6866525D01*
X20288672Y6865135D01*
X20287001Y6857452D01*
X20287001Y6280331D01*
X18730500Y6280331D01*
X18730500Y23184100D01*
X18750502Y23252221D01*
X18767405Y23273195D01*
X19411805Y23917595D01*
X19474117Y23951621D01*
X19500900Y23954500D01*
X20908309Y23954500D01*
X20978311Y23933265D01*
X21001763Y23917595D01*
X21043677Y23889589D01*
X21048985Y23887308D01*
X21048986Y23887308D01*
X21232650Y23808400D01*
X21232653Y23808399D01*
X21237953Y23806122D01*
X21243582Y23804848D01*
X21243583Y23804848D01*
X21438550Y23760731D01*
X21438553Y23760731D01*
X21444186Y23759456D01*
X21449958Y23759229D01*
X21455687Y23758475D01*
X21455327Y23755743D01*
X21511604Y23736784D01*
X21555950Y23681341D01*
X21563282Y23610724D01*
X21531271Y23547353D01*
X21470081Y23511349D01*
X21460704Y23509368D01*
X21301650Y23482038D01*
X21301649Y23482038D01*
X21295953Y23481059D01*
X21097575Y23407873D01*
X21092614Y23404921D01*
X21092613Y23404921D01*
X20935588Y23311501D01*
X20915856Y23299762D01*
X20756881Y23160345D01*
X20625976Y22994292D01*
X20623287Y22989181D01*
X20623285Y22989178D01*
X20597256Y22939705D01*
X20527523Y22807164D01*
X20464820Y22605227D01*
X20439967Y22395246D01*
X20453796Y22184251D01*
X20455217Y22178655D01*
X20455218Y22178650D01*
X20477784Y22089800D01*
X20505845Y21979310D01*
X20594369Y21787286D01*
X20716405Y21614609D01*
X20867865Y21467063D01*
X20872661Y21463858D01*
X20872664Y21463856D01*
X20996314Y21381236D01*
X21043677Y21349589D01*
X21048985Y21347308D01*
X21048986Y21347308D01*
X21232650Y21268400D01*
X21232653Y21268399D01*
X21237953Y21266122D01*
X21243582Y21264848D01*
X21243583Y21264848D01*
X21438550Y21220731D01*
X21438553Y21220731D01*
X21444186Y21219456D01*
X21449958Y21219229D01*
X21455687Y21218475D01*
X21455327Y21215743D01*
X21511604Y21196784D01*
X21555950Y21141341D01*
X21563282Y21070724D01*
X21531271Y21007353D01*
X21470081Y20971349D01*
X21460704Y20969368D01*
X21301650Y20942038D01*
X21301649Y20942038D01*
X21295953Y20941059D01*
X21097575Y20867873D01*
X21092614Y20864921D01*
X21092613Y20864921D01*
X20935588Y20771501D01*
X20915856Y20759762D01*
X20756881Y20620345D01*
X20625976Y20454292D01*
X20623287Y20449181D01*
X20623285Y20449178D01*
X20609792Y20423531D01*
X20527523Y20267164D01*
X20464820Y20065227D01*
X20439967Y19855246D01*
X20453796Y19644251D01*
X20455217Y19638655D01*
X20455218Y19638650D01*
X20477784Y19549800D01*
X20505845Y19439310D01*
X20594369Y19247286D01*
X20716405Y19074609D01*
X20867865Y18927063D01*
X20872661Y18923858D01*
X20872664Y18923856D01*
X20996314Y18841236D01*
X21043677Y18809589D01*
X21174974Y18753180D01*
X21191346Y18746146D01*
X21246040Y18700878D01*
X21267577Y18633227D01*
X21249120Y18564671D01*
X21242973Y18555537D01*
X21213638Y18515821D01*
X21211373Y18509371D01*
X21207483Y18503743D01*
X21204645Y18494768D01*
X21204642Y18494763D01*
X21190756Y18450854D01*
X21189503Y18447098D01*
X21174730Y18405031D01*
X21133287Y18347386D01*
X21107803Y18333210D01*
X21108209Y18332360D01*
X21102991Y18329871D01*
X21097575Y18327873D01*
X21092614Y18324921D01*
X21092613Y18324921D01*
X20935588Y18231501D01*
X20915856Y18219762D01*
X20756881Y18080345D01*
X20625976Y17914292D01*
X20623287Y17909181D01*
X20623285Y17909178D01*
X20609792Y17883531D01*
X20527523Y17727164D01*
X20464820Y17525227D01*
X20439967Y17315246D01*
X20453796Y17104251D01*
X20455217Y17098655D01*
X20455218Y17098650D01*
X20480460Y16999262D01*
X20505845Y16899310D01*
X20594369Y16707286D01*
X20716405Y16534609D01*
X20867865Y16387063D01*
X20872661Y16383858D01*
X20872664Y16383856D01*
X20996314Y16301236D01*
X21043677Y16269589D01*
X21048985Y16267308D01*
X21048986Y16267308D01*
X21232650Y16188400D01*
X21232653Y16188399D01*
X21237953Y16186122D01*
X21243582Y16184848D01*
X21243583Y16184848D01*
X21438550Y16140731D01*
X21438553Y16140731D01*
X21444186Y16139456D01*
X21449958Y16139229D01*
X21455687Y16138475D01*
X21455327Y16135743D01*
X21511604Y16116784D01*
X21555950Y16061341D01*
X21563282Y15990724D01*
X21531271Y15927353D01*
X21470081Y15891349D01*
X21460704Y15889368D01*
X21301650Y15862038D01*
X21301649Y15862038D01*
X21295953Y15861059D01*
X21097575Y15787873D01*
X21092614Y15784921D01*
X21092613Y15784921D01*
X20935588Y15691501D01*
X20915856Y15679762D01*
X20756881Y15540345D01*
X20625976Y15374292D01*
X20623287Y15369181D01*
X20623285Y15369178D01*
X20609792Y15343531D01*
X20527523Y15187164D01*
X20464820Y14985227D01*
X20439967Y14775246D01*
X20453796Y14564251D01*
X20455217Y14558655D01*
X20455218Y14558650D01*
X20480460Y14459262D01*
X20505845Y14359310D01*
X20594369Y14167286D01*
X20716405Y13994609D01*
X20867865Y13847063D01*
X20872661Y13843858D01*
X20872664Y13843856D01*
X20974396Y13775881D01*
X21043677Y13729589D01*
X21048985Y13727308D01*
X21048986Y13727308D01*
X21232650Y13648400D01*
X21232653Y13648399D01*
X21237953Y13646122D01*
X21243582Y13644848D01*
X21243583Y13644848D01*
X21438550Y13600731D01*
X21438553Y13600731D01*
X21444186Y13599456D01*
X21449958Y13599229D01*
X21455687Y13598475D01*
X21455327Y13595743D01*
X21511604Y13576784D01*
X21555950Y13521341D01*
X21563282Y13450724D01*
X21531271Y13387353D01*
X21470081Y13351349D01*
X21460704Y13349368D01*
X21301650Y13322038D01*
X21301649Y13322038D01*
X21295953Y13321059D01*
X21097575Y13247873D01*
X21092614Y13244921D01*
X21092613Y13244921D01*
X20935588Y13151501D01*
X20915856Y13139762D01*
X20756881Y13000345D01*
X20625976Y12834292D01*
X20623287Y12829181D01*
X20623285Y12829178D01*
X20609792Y12803531D01*
X20527523Y12647164D01*
X20464820Y12445227D01*
X20439967Y12235246D01*
X20453796Y12024251D01*
X20455217Y12018655D01*
X20455218Y12018650D01*
X20480460Y11919262D01*
X20505845Y11819310D01*
X20594369Y11627286D01*
X20716405Y11454609D01*
X20867865Y11307063D01*
X20872661Y11303858D01*
X20872664Y11303856D01*
X20996314Y11221236D01*
X21043677Y11189589D01*
X21048985Y11187308D01*
X21048986Y11187308D01*
X21232650Y11108400D01*
X21232653Y11108399D01*
X21237953Y11106122D01*
X21243582Y11104848D01*
X21243583Y11104848D01*
X21438550Y11060731D01*
X21438553Y11060731D01*
X21444186Y11059456D01*
X21449958Y11059229D01*
X21455687Y11058475D01*
X21455327Y11055743D01*
X21511604Y11036784D01*
X21555950Y10981341D01*
X21563282Y10910724D01*
X21531271Y10847353D01*
X21470081Y10811349D01*
X21460704Y10809368D01*
X21301650Y10782038D01*
X21301649Y10782038D01*
X21295953Y10781059D01*
X21097575Y10707873D01*
X21092614Y10704921D01*
X21092613Y10704921D01*
X20935588Y10611501D01*
X20915856Y10599762D01*
X20756881Y10460345D01*
X20625976Y10294292D01*
X20623287Y10289181D01*
X20623285Y10289178D01*
X20609792Y10263531D01*
X20527523Y10107164D01*
X20464820Y9905227D01*
X20439967Y9695246D01*
X20453796Y9484251D01*
X20455217Y9478655D01*
X20455218Y9478650D01*
X20473263Y9407599D01*
X20505845Y9279310D01*
X20508262Y9274067D01*
X20532616Y9221239D01*
X20594369Y9087286D01*
X20716405Y8914609D01*
X20867865Y8767063D01*
X20872665Y8763856D01*
X21022462Y8663764D01*
X21067990Y8609287D01*
X21076838Y8538844D01*
X21046196Y8474800D01*
X20985794Y8437488D01*
X20952460Y8432999D01*
X20750331Y8432999D01*
X20743510Y8432629D01*
X20692648Y8427105D01*
X20677396Y8423479D01*
X20556946Y8378324D01*
X20541351Y8369786D01*
X20439276Y8293285D01*
X20426715Y8280724D01*
X20350214Y8178649D01*
X20341676Y8163054D01*
X20296522Y8042606D01*
X20292895Y8027351D01*
X20287369Y7976486D01*
X20287000Y7969672D01*
X20287000Y7397115D01*
X20291475Y7381876D01*
X20292865Y7380671D01*
X20300548Y7379000D01*
X21723000Y7379000D01*
X21791121Y7358998D01*
X21837614Y7305342D01*
X21849000Y7253000D01*
X21849000Y5835116D01*
X21853475Y5819877D01*
X21854865Y5818672D01*
X21862548Y5817001D01*
X22439669Y5817001D01*
X22446490Y5817371D01*
X22497352Y5822895D01*
X22512604Y5826521D01*
X22633054Y5871676D01*
X22648649Y5880214D01*
X22750724Y5956715D01*
X22763285Y5969276D01*
X22839786Y6071351D01*
X22848324Y6086946D01*
X22893478Y6207394D01*
X22897105Y6222649D01*
X22902631Y6273514D01*
X22903000Y6280328D01*
X22903000Y6374351D01*
X22923002Y6442472D01*
X22976658Y6488965D01*
X23046932Y6499069D01*
X23111512Y6469575D01*
X23131895Y6447073D01*
X23213222Y6331998D01*
X23371264Y6178039D01*
X23376060Y6174834D01*
X23376063Y6174832D01*
X23460261Y6118573D01*
X23554717Y6055460D01*
X23560020Y6053182D01*
X23560023Y6053180D01*
X23682251Y6000667D01*
X23757436Y5968365D01*
X23837088Y5950342D01*
X23966995Y5920946D01*
X23967001Y5920945D01*
X23972632Y5919671D01*
X23978403Y5919444D01*
X23978405Y5919444D01*
X24046211Y5916780D01*
X24193098Y5911009D01*
X24302275Y5926839D01*
X24405738Y5941840D01*
X24405743Y5941841D01*
X24411452Y5942669D01*
X24416916Y5944524D01*
X24416921Y5944525D01*
X24614907Y6011732D01*
X24614912Y6011734D01*
X24620379Y6013590D01*
X24642757Y6026122D01*
X24725190Y6072287D01*
X24812884Y6121398D01*
X24879112Y6176479D01*
X24978086Y6258796D01*
X24982518Y6262482D01*
X25044256Y6336713D01*
X25119908Y6427674D01*
X25119910Y6427677D01*
X25123602Y6432116D01*
X25231410Y6624621D01*
X25233266Y6630088D01*
X25233268Y6630093D01*
X25300475Y6828079D01*
X25300476Y6828084D01*
X25302331Y6833548D01*
X25303159Y6839257D01*
X25303160Y6839262D01*
X25333458Y7048228D01*
X25333991Y7051902D01*
X25335643Y7115000D01*
X25315454Y7334711D01*
X25313646Y7341124D01*
X25257134Y7541500D01*
X25255565Y7547064D01*
X25157980Y7744947D01*
X25025967Y7921733D01*
X24895210Y8042604D01*
X24868189Y8067582D01*
X24868186Y8067584D01*
X24863949Y8071501D01*
X24677350Y8189236D01*
X24474955Y8269983D01*
X24419096Y8313804D01*
X24395795Y8380868D01*
X24412451Y8449883D01*
X24463775Y8498937D01*
X24481144Y8506326D01*
X24614907Y8551732D01*
X24614912Y8551734D01*
X24620379Y8553590D01*
X24642757Y8566122D01*
X24720147Y8609463D01*
X24812884Y8661398D01*
X24836737Y8681236D01*
X24978086Y8798796D01*
X24982518Y8802482D01*
X25055038Y8889677D01*
X25119908Y8967674D01*
X25119910Y8967677D01*
X25123602Y8972116D01*
X25231410Y9164621D01*
X25233266Y9170088D01*
X25233268Y9170093D01*
X25300475Y9368079D01*
X25300476Y9368084D01*
X25302331Y9373548D01*
X25303159Y9379257D01*
X25303160Y9379262D01*
X25322346Y9511587D01*
X25333991Y9591902D01*
X25335643Y9655000D01*
X25315454Y9874711D01*
X25255565Y10087064D01*
X25157980Y10284947D01*
X25025967Y10461733D01*
X24880770Y10595952D01*
X24868189Y10607582D01*
X24868186Y10607584D01*
X24863949Y10611501D01*
X24677350Y10729236D01*
X24474955Y10809983D01*
X24419096Y10853804D01*
X24395795Y10920868D01*
X24412451Y10989883D01*
X24463775Y11038937D01*
X24481144Y11046326D01*
X24614907Y11091732D01*
X24614912Y11091734D01*
X24620379Y11093590D01*
X24642757Y11106122D01*
X24725190Y11152287D01*
X24812884Y11201398D01*
X24836737Y11221236D01*
X24978086Y11338796D01*
X24982518Y11342482D01*
X25044256Y11416713D01*
X25119908Y11507674D01*
X25119910Y11507677D01*
X25123602Y11512116D01*
X25231410Y11704621D01*
X25233266Y11710088D01*
X25233268Y11710093D01*
X25300475Y11908079D01*
X25300476Y11908084D01*
X25302331Y11913548D01*
X25303159Y11919257D01*
X25303160Y11919262D01*
X25333458Y12128228D01*
X25333991Y12131902D01*
X25335643Y12195000D01*
X25315454Y12414711D01*
X25313646Y12421124D01*
X25257134Y12621500D01*
X25255565Y12627064D01*
X25157980Y12824947D01*
X25112319Y12886095D01*
X25029420Y12997109D01*
X25029420Y12997110D01*
X25025967Y13001733D01*
X24880770Y13135952D01*
X24868189Y13147582D01*
X24868186Y13147584D01*
X24863949Y13151501D01*
X24677350Y13269236D01*
X24474955Y13349983D01*
X24419096Y13393804D01*
X24395795Y13460868D01*
X24412451Y13529883D01*
X24463775Y13578937D01*
X24481144Y13586326D01*
X24614907Y13631732D01*
X24614912Y13631734D01*
X24620379Y13633590D01*
X24625576Y13636500D01*
X24725190Y13692287D01*
X24812884Y13741398D01*
X24836737Y13761236D01*
X24978086Y13878796D01*
X24982518Y13882482D01*
X25044256Y13956713D01*
X25119908Y14047674D01*
X25119910Y14047677D01*
X25123602Y14052116D01*
X25231410Y14244621D01*
X25233266Y14250088D01*
X25233268Y14250093D01*
X25300475Y14448079D01*
X25300476Y14448084D01*
X25302331Y14453548D01*
X25303159Y14459257D01*
X25303160Y14459262D01*
X25333458Y14668228D01*
X25333991Y14671902D01*
X25335643Y14735000D01*
X25315454Y14954711D01*
X25313646Y14961124D01*
X25257134Y15161500D01*
X25255565Y15167064D01*
X25157980Y15364947D01*
X25025967Y15541733D01*
X24880770Y15675952D01*
X24868189Y15687582D01*
X24868186Y15687584D01*
X24863949Y15691501D01*
X24677350Y15809236D01*
X24474955Y15889983D01*
X24419096Y15933804D01*
X24395795Y16000868D01*
X24412451Y16069883D01*
X24463775Y16118937D01*
X24481144Y16126326D01*
X24614907Y16171732D01*
X24614912Y16171734D01*
X24620379Y16173590D01*
X24642757Y16186122D01*
X24725190Y16232287D01*
X24812884Y16281398D01*
X24836737Y16301236D01*
X24978086Y16418796D01*
X24982518Y16422482D01*
X25044256Y16496713D01*
X25119908Y16587674D01*
X25119910Y16587677D01*
X25123602Y16592116D01*
X25231410Y16784621D01*
X25233266Y16790088D01*
X25233268Y16790093D01*
X25300475Y16988079D01*
X25300476Y16988084D01*
X25302331Y16993548D01*
X25303159Y16999257D01*
X25303160Y16999262D01*
X25333458Y17208228D01*
X25333991Y17211902D01*
X25335643Y17275000D01*
X25315454Y17494711D01*
X25313646Y17501124D01*
X25257134Y17701500D01*
X25255565Y17707064D01*
X25157980Y17904947D01*
X25025967Y18081733D01*
X24910718Y18188268D01*
X24868189Y18227582D01*
X24868186Y18227584D01*
X24863949Y18231501D01*
X24677350Y18349236D01*
X24474955Y18429983D01*
X24419096Y18473804D01*
X24395795Y18540868D01*
X24412451Y18609883D01*
X24463775Y18658937D01*
X24481144Y18666326D01*
X24614907Y18711732D01*
X24614912Y18711734D01*
X24620379Y18713590D01*
X24642757Y18726122D01*
X24725190Y18772287D01*
X24812884Y18821398D01*
X24836737Y18841236D01*
X24978086Y18958796D01*
X24982518Y18962482D01*
X25044257Y19036715D01*
X25119908Y19127674D01*
X25119910Y19127677D01*
X25123602Y19132116D01*
X25231410Y19324621D01*
X25233266Y19330088D01*
X25233268Y19330093D01*
X25300475Y19528079D01*
X25300476Y19528084D01*
X25302331Y19533548D01*
X25303159Y19539257D01*
X25303160Y19539262D01*
X25333458Y19748228D01*
X25333991Y19751902D01*
X25335643Y19815000D01*
X25315454Y20034711D01*
X25313646Y20041124D01*
X25257134Y20241500D01*
X25255565Y20247064D01*
X25157980Y20444947D01*
X25025967Y20621733D01*
X24880770Y20755952D01*
X24868189Y20767582D01*
X24868186Y20767584D01*
X24863949Y20771501D01*
X24677350Y20889236D01*
X24474955Y20969983D01*
X24419096Y21013804D01*
X24395795Y21080868D01*
X24412451Y21149883D01*
X24463775Y21198937D01*
X24481144Y21206326D01*
X24614907Y21251732D01*
X24614912Y21251734D01*
X24620379Y21253590D01*
X24635313Y21261953D01*
X24725190Y21312287D01*
X24812884Y21361398D01*
X24836737Y21381236D01*
X24978086Y21498796D01*
X24982518Y21502482D01*
X25055038Y21589677D01*
X25119908Y21667674D01*
X25119910Y21667677D01*
X25123602Y21672116D01*
X25231410Y21864621D01*
X25233266Y21870088D01*
X25233268Y21870093D01*
X25300475Y22068079D01*
X25300476Y22068084D01*
X25302331Y22073548D01*
X25303159Y22079257D01*
X25303160Y22079262D01*
X25333458Y22288228D01*
X25333991Y22291902D01*
X25335643Y22355000D01*
X25315454Y22574711D01*
X25313646Y22581124D01*
X25257134Y22781500D01*
X25255565Y22787064D01*
X25157980Y22984947D01*
X25100410Y23062043D01*
X25029420Y23157109D01*
X25029420Y23157110D01*
X25025967Y23161733D01*
X24880770Y23295952D01*
X24868189Y23307582D01*
X24868186Y23307584D01*
X24863949Y23311501D01*
X24677350Y23429236D01*
X24587875Y23464933D01*
X24532017Y23508752D01*
X24508716Y23575816D01*
X24519022Y23625798D01*
X24517522Y23626272D01*
X24518468Y23629262D01*
X24520844Y23634637D01*
X24521412Y23637390D01*
X24523692Y23642044D01*
X24526488Y23649105D01*
X24531217Y23657247D01*
X24533400Y23666662D01*
X24540800Y23698589D01*
X24543412Y23708134D01*
X24545373Y23714334D01*
X24584987Y23773252D01*
X24614256Y23791443D01*
X24614904Y23791732D01*
X24620379Y23793590D01*
X24625422Y23796414D01*
X24625426Y23796416D01*
X24736284Y23858500D01*
X24812884Y23901398D01*
X24836737Y23921236D01*
X24978086Y24038796D01*
X24982518Y24042482D01*
X25051015Y24124840D01*
X25119908Y24207674D01*
X25119910Y24207677D01*
X25123602Y24212116D01*
X25231410Y24404621D01*
X25233266Y24410088D01*
X25233268Y24410093D01*
X25300475Y24608079D01*
X25300476Y24608084D01*
X25302331Y24613548D01*
X25303159Y24619257D01*
X25303160Y24619262D01*
X25333458Y24828228D01*
X25333991Y24831902D01*
X25335643Y24895000D01*
X25315454Y25114711D01*
X25313646Y25121124D01*
X25257134Y25321500D01*
X25255565Y25327064D01*
X25157980Y25524947D01*
X25125820Y25568015D01*
X25029420Y25697109D01*
X25029420Y25697110D01*
X25025967Y25701733D01*
X24896228Y25821663D01*
X24868189Y25847582D01*
X24868186Y25847584D01*
X24863949Y25851501D01*
X24678702Y25968383D01*
X24678700Y25968385D01*
X24677350Y25969236D01*
X24677517Y25969501D01*
X24628071Y26016198D01*
X24611002Y26085112D01*
X24633901Y26152314D01*
X24681454Y26192871D01*
X24823095Y26262261D01*
X24831945Y26267536D01*
X25005328Y26391208D01*
X25013200Y26397861D01*
X25164052Y26548188D01*
X25170730Y26556035D01*
X25295003Y26728980D01*
X25300313Y26737817D01*
X25394670Y26928733D01*
X25398469Y26938328D01*
X25460377Y27142090D01*
X25462555Y27152163D01*
X25463986Y27163038D01*
X25461775Y27177222D01*
X25448617Y27181000D01*
X24002000Y27181000D01*
X23933879Y27201002D01*
X23887386Y27254658D01*
X23876000Y27307000D01*
X23876000Y27563000D01*
X23896002Y27631121D01*
X23949658Y27677614D01*
X24002000Y27689000D01*
X25448344Y27689000D01*
X25461875Y27692973D01*
X25463180Y27702053D01*
X25421214Y27869125D01*
X25417894Y27878876D01*
X25332972Y28074186D01*
X25328105Y28083261D01*
X25212426Y28262074D01*
X25206136Y28270243D01*
X25062806Y28427760D01*
X25055273Y28434785D01*
X24888139Y28566778D01*
X24879552Y28572483D01*
X24693115Y28675402D01*
X24684687Y28679190D01*
X24630752Y28725359D01*
X24610340Y28793358D01*
X24629932Y28861598D01*
X24674771Y28904051D01*
X24787724Y28967308D01*
X24812884Y28981398D01*
X24864709Y29024500D01*
X24978086Y29118796D01*
X24982518Y29122482D01*
X25072421Y29230578D01*
X25119908Y29287674D01*
X25119910Y29287677D01*
X25123602Y29292116D01*
X25231410Y29484621D01*
X25233266Y29490088D01*
X25233268Y29490093D01*
X25300475Y29688079D01*
X25300476Y29688084D01*
X25302331Y29693548D01*
X25303159Y29699257D01*
X25303160Y29699262D01*
X25333458Y29908228D01*
X25333991Y29911902D01*
X25335643Y29975000D01*
X25315454Y30194711D01*
X25313646Y30201124D01*
X25273942Y30341902D01*
X25255565Y30407064D01*
X25157980Y30604947D01*
X25140150Y30628825D01*
X25029420Y30777109D01*
X25029420Y30777110D01*
X25025967Y30781733D01*
X24906731Y30891954D01*
X24868189Y30927582D01*
X24868186Y30927584D01*
X24863949Y30931501D01*
X24677350Y31049236D01*
X24474955Y31129983D01*
X24419096Y31173804D01*
X24395795Y31240868D01*
X24412451Y31309883D01*
X24463775Y31358937D01*
X24481144Y31366326D01*
X24614907Y31411732D01*
X24614912Y31411734D01*
X24620379Y31413590D01*
X24642757Y31426122D01*
X24787724Y31507308D01*
X24812884Y31521398D01*
X24879112Y31576479D01*
X24978086Y31658796D01*
X24982518Y31662482D01*
X25044256Y31736713D01*
X25119908Y31827674D01*
X25119910Y31827677D01*
X25123602Y31832116D01*
X25231410Y32024621D01*
X25233266Y32030088D01*
X25233268Y32030093D01*
X25300475Y32228079D01*
X25300476Y32228084D01*
X25302331Y32233548D01*
X25303159Y32239257D01*
X25303160Y32239262D01*
X25333458Y32448228D01*
X25333991Y32451902D01*
X25335643Y32515000D01*
X25315454Y32734711D01*
X25313646Y32741124D01*
X25257134Y32941500D01*
X25255565Y32947064D01*
X25157980Y33144947D01*
X25025967Y33321733D01*
X24880770Y33455952D01*
X24868189Y33467582D01*
X24868186Y33467584D01*
X24863949Y33471501D01*
X24677350Y33589236D01*
X24474955Y33669983D01*
X24419096Y33713804D01*
X24395795Y33780868D01*
X24412451Y33849883D01*
X24463775Y33898937D01*
X24481144Y33906326D01*
X24614907Y33951732D01*
X24614912Y33951734D01*
X24620379Y33953590D01*
X24642757Y33966122D01*
X24787724Y34047308D01*
X24812884Y34061398D01*
X24879112Y34116479D01*
X24978086Y34198796D01*
X24982518Y34202482D01*
X25055038Y34289677D01*
X25119908Y34367674D01*
X25119910Y34367677D01*
X25123602Y34372116D01*
X25231410Y34564621D01*
X25233266Y34570088D01*
X25233268Y34570093D01*
X25300475Y34768079D01*
X25300476Y34768084D01*
X25302331Y34773548D01*
X25303159Y34779257D01*
X25303160Y34779262D01*
X25333458Y34988228D01*
X25333991Y34991902D01*
X25335643Y35055000D01*
X25315454Y35274711D01*
X25313646Y35281124D01*
X25257134Y35481500D01*
X25255565Y35487064D01*
X25157980Y35684947D01*
X25036976Y35846991D01*
X25029420Y35857109D01*
X25029420Y35857110D01*
X25025967Y35861733D01*
X24880770Y35995952D01*
X24868189Y36007582D01*
X24868186Y36007584D01*
X24863949Y36011501D01*
X24677350Y36129236D01*
X24474955Y36209983D01*
X24419096Y36253804D01*
X24395795Y36320868D01*
X24412451Y36389883D01*
X24463775Y36438937D01*
X24481144Y36446326D01*
X24614907Y36491732D01*
X24614912Y36491734D01*
X24620379Y36493590D01*
X24642757Y36506122D01*
X24725190Y36552287D01*
X24812884Y36601398D01*
X24879112Y36656479D01*
X24978086Y36738796D01*
X24982518Y36742482D01*
X25044256Y36816713D01*
X25119908Y36907674D01*
X25119910Y36907677D01*
X25123602Y36912116D01*
X25231410Y37104621D01*
X25233266Y37110088D01*
X25233268Y37110093D01*
X25300475Y37308079D01*
X25300476Y37308084D01*
X25302331Y37313548D01*
X25303159Y37319257D01*
X25303160Y37319262D01*
X25333458Y37528228D01*
X25333991Y37531902D01*
X25335643Y37595000D01*
X25315454Y37814711D01*
X25313646Y37821124D01*
X25257134Y38021500D01*
X25255565Y38027064D01*
X25157980Y38224947D01*
X25112319Y38286095D01*
X25029420Y38397109D01*
X25029420Y38397110D01*
X25025967Y38401733D01*
X24880770Y38535952D01*
X24868189Y38547582D01*
X24868186Y38547584D01*
X24863949Y38551501D01*
X24677350Y38669236D01*
X24474955Y38749983D01*
X24419096Y38793804D01*
X24395795Y38860868D01*
X24412451Y38929883D01*
X24463775Y38978937D01*
X24481144Y38986326D01*
X24614907Y39031732D01*
X24614912Y39031734D01*
X24620379Y39033590D01*
X24625576Y39036500D01*
X24787724Y39127308D01*
X24812884Y39141398D01*
X24879112Y39196479D01*
X24978086Y39278796D01*
X24982518Y39282482D01*
X25044256Y39356713D01*
X25119908Y39447674D01*
X25119910Y39447677D01*
X25123602Y39452116D01*
X25231410Y39644621D01*
X25233266Y39650088D01*
X25233268Y39650093D01*
X25300475Y39848079D01*
X25300476Y39848084D01*
X25302331Y39853548D01*
X25303159Y39859257D01*
X25303160Y39859262D01*
X25333458Y40068228D01*
X25333991Y40071902D01*
X25335643Y40135000D01*
X25315454Y40354711D01*
X25313646Y40361124D01*
X25257134Y40561500D01*
X25255565Y40567064D01*
X25157980Y40764947D01*
X25025967Y40941733D01*
X24880770Y41075952D01*
X24868189Y41087582D01*
X24868186Y41087584D01*
X24863949Y41091501D01*
X24677350Y41209236D01*
X24474955Y41289983D01*
X24419096Y41333804D01*
X24395795Y41400868D01*
X24412451Y41469883D01*
X24463775Y41518937D01*
X24481144Y41526326D01*
X24614907Y41571732D01*
X24614912Y41571734D01*
X24620379Y41573590D01*
X24642757Y41586122D01*
X24787724Y41667308D01*
X24812884Y41681398D01*
X24879112Y41736479D01*
X24978086Y41818796D01*
X24982518Y41822482D01*
X25044256Y41896713D01*
X25119908Y41987674D01*
X25119910Y41987677D01*
X25123602Y41992116D01*
X25231410Y42184621D01*
X25233266Y42190088D01*
X25233268Y42190093D01*
X25300475Y42388079D01*
X25300476Y42388084D01*
X25302331Y42393548D01*
X25303159Y42399257D01*
X25303160Y42399262D01*
X25333458Y42608228D01*
X25333991Y42611902D01*
X25335643Y42675000D01*
X25315454Y42894711D01*
X25313646Y42901124D01*
X25257134Y43101500D01*
X25255565Y43107064D01*
X25157980Y43304947D01*
X25025967Y43481733D01*
X24880770Y43615952D01*
X24868189Y43627582D01*
X24868186Y43627584D01*
X24863949Y43631501D01*
X24677350Y43749236D01*
X24474955Y43829983D01*
X24419096Y43873804D01*
X24395795Y43940868D01*
X24412451Y44009883D01*
X24463775Y44058937D01*
X24481144Y44066326D01*
X24614907Y44111732D01*
X24614912Y44111734D01*
X24620379Y44113590D01*
X24642757Y44126122D01*
X24787724Y44207308D01*
X24812884Y44221398D01*
X24879112Y44276479D01*
X24978086Y44358796D01*
X24982518Y44362482D01*
X25044256Y44436713D01*
X25119908Y44527674D01*
X25119910Y44527677D01*
X25123602Y44532116D01*
X25231410Y44724621D01*
X25233266Y44730088D01*
X25233268Y44730093D01*
X25300475Y44928079D01*
X25300476Y44928084D01*
X25302331Y44933548D01*
X25303159Y44939257D01*
X25303160Y44939262D01*
X25333458Y45148228D01*
X25333991Y45151902D01*
X25335643Y45215000D01*
X25315454Y45434711D01*
X25313646Y45441124D01*
X25257134Y45641500D01*
X25255565Y45647064D01*
X25157980Y45844947D01*
X25025967Y46021733D01*
X24880770Y46155952D01*
X24868189Y46167582D01*
X24868186Y46167584D01*
X24863949Y46171501D01*
X24677350Y46289236D01*
X24474955Y46369983D01*
X24419096Y46413804D01*
X24395795Y46480868D01*
X24412451Y46549883D01*
X24463775Y46598937D01*
X24481144Y46606326D01*
X24614907Y46651732D01*
X24614912Y46651734D01*
X24620379Y46653590D01*
X24642757Y46666122D01*
X24787724Y46747308D01*
X24812884Y46761398D01*
X24879112Y46816479D01*
X24978086Y46898796D01*
X24982518Y46902482D01*
X25044256Y46976713D01*
X25119908Y47067674D01*
X25119910Y47067677D01*
X25123602Y47072116D01*
X25231410Y47264621D01*
X25233266Y47270088D01*
X25233268Y47270093D01*
X25300475Y47468079D01*
X25300476Y47468084D01*
X25302331Y47473548D01*
X25303159Y47479257D01*
X25303160Y47479262D01*
X25333458Y47688228D01*
X25333991Y47691902D01*
X25335643Y47755000D01*
X25315454Y47974711D01*
X25313646Y47981124D01*
X25257134Y48181500D01*
X25255565Y48187064D01*
X25157980Y48384947D01*
X25025967Y48561733D01*
X24880770Y48695952D01*
X24868189Y48707582D01*
X24868186Y48707584D01*
X24863949Y48711501D01*
X24677350Y48829236D01*
X24474955Y48909983D01*
X24419096Y48953804D01*
X24395795Y49020868D01*
X24412451Y49089883D01*
X24463775Y49138937D01*
X24481144Y49146326D01*
X24614907Y49191732D01*
X24614912Y49191734D01*
X24620379Y49193590D01*
X24642757Y49206122D01*
X24787724Y49287308D01*
X24812884Y49301398D01*
X24879112Y49356479D01*
X24978086Y49438796D01*
X24982518Y49442482D01*
X25044256Y49516713D01*
X25119908Y49607674D01*
X25119910Y49607677D01*
X25123602Y49612116D01*
X25231410Y49804621D01*
X25233266Y49810088D01*
X25233268Y49810093D01*
X25300475Y50008079D01*
X25300476Y50008084D01*
X25302331Y50013548D01*
X25303159Y50019257D01*
X25303160Y50019262D01*
X25333458Y50228228D01*
X25333991Y50231902D01*
X25335643Y50295000D01*
X25315454Y50514711D01*
X25313646Y50521124D01*
X25257134Y50721500D01*
X25255565Y50727064D01*
X25157980Y50924947D01*
X25025967Y51101733D01*
X24880770Y51235952D01*
X24868189Y51247582D01*
X24868186Y51247584D01*
X24863949Y51251501D01*
X24677350Y51369236D01*
X24474955Y51449983D01*
X24419096Y51493804D01*
X24395795Y51560868D01*
X24412451Y51629883D01*
X24463775Y51678937D01*
X24481144Y51686326D01*
X24614907Y51731732D01*
X24614912Y51731734D01*
X24620379Y51733590D01*
X24642757Y51746122D01*
X24787724Y51827308D01*
X24812884Y51841398D01*
X24879112Y51896479D01*
X24978086Y51978796D01*
X24982518Y51982482D01*
X25044256Y52056713D01*
X25119908Y52147674D01*
X25119910Y52147677D01*
X25123602Y52152116D01*
X25231410Y52344621D01*
X25233266Y52350088D01*
X25233268Y52350093D01*
X25300475Y52548079D01*
X25300476Y52548084D01*
X25302331Y52553548D01*
X25303159Y52559257D01*
X25303160Y52559262D01*
X25333458Y52768228D01*
X25333991Y52771902D01*
X25335643Y52835000D01*
X25315454Y53054711D01*
X25313646Y53061124D01*
X25257134Y53261500D01*
X25255565Y53267064D01*
X25157980Y53464947D01*
X25025967Y53641733D01*
X24880770Y53775952D01*
X24868189Y53787582D01*
X24868186Y53787584D01*
X24863949Y53791501D01*
X24677350Y53909236D01*
X24637348Y53925195D01*
X24621620Y53931470D01*
X24565760Y53975291D01*
X24542460Y54042355D01*
X24559116Y54111370D01*
X24610440Y54160424D01*
X24668310Y54174500D01*
X25013218Y54174500D01*
X25017768Y54175170D01*
X25017771Y54175170D01*
X25072426Y54183216D01*
X25072427Y54183216D01*
X25082112Y54184642D01*
X25176804Y54231133D01*
X25177507Y54231478D01*
X25177509Y54231479D01*
X25186855Y54236068D01*
X25269293Y54318650D01*
X25320536Y54423482D01*
X25330500Y54491782D01*
X25330500Y56258218D01*
X25324682Y56297743D01*
X25321784Y56317426D01*
X25321784Y56317427D01*
X25320358Y56327112D01*
X25278967Y56411416D01*
X25273522Y56422507D01*
X25273521Y56422509D01*
X25268932Y56431855D01*
X25209976Y56490708D01*
X25193721Y56506935D01*
X25193720Y56506935D01*
X25186350Y56514293D01*
X25081518Y56565536D01*
X25051027Y56569984D01*
X25017744Y56574840D01*
X25017740Y56574840D01*
X25013218Y56575500D01*
X23246782Y56575500D01*
X23242232Y56574830D01*
X23242229Y56574830D01*
X23187574Y56566784D01*
X23187573Y56566784D01*
X23177888Y56565358D01*
X23127992Y56540860D01*
X23082493Y56518522D01*
X23082491Y56518521D01*
X23073145Y56513932D01*
X22990707Y56431350D01*
X22986134Y56421994D01*
X22986133Y56421993D01*
X22982468Y56414495D01*
X22939464Y56326518D01*
X22929500Y56258218D01*
X22929500Y55802971D01*
X22909498Y55734850D01*
X22855842Y55688357D01*
X22785568Y55678253D01*
X22720988Y55707747D01*
X22682232Y55768767D01*
X22673686Y55799069D01*
X22662553Y55821646D01*
X22582719Y55983531D01*
X22580165Y55988710D01*
X22453651Y56158133D01*
X22298381Y56301663D01*
X22119554Y56414495D01*
X21923160Y56492848D01*
X21917503Y56493973D01*
X21917497Y56493975D01*
X21721442Y56532972D01*
X21721440Y56532972D01*
X21715775Y56534099D01*
X21710000Y56534175D01*
X21709996Y56534175D01*
X21603976Y56535563D01*
X21504346Y56536867D01*
X21498649Y56535888D01*
X21498648Y56535888D01*
X21301650Y56502038D01*
X21301649Y56502038D01*
X21295953Y56501059D01*
X21097575Y56427873D01*
X21092614Y56424921D01*
X21092613Y56424921D01*
X21075089Y56414495D01*
X20915856Y56319762D01*
X20756881Y56180345D01*
X20625976Y56014292D01*
X20623287Y56009181D01*
X20623285Y56009178D01*
X20609792Y55983531D01*
X20527523Y55827164D01*
X20464820Y55625227D01*
X20439967Y55415246D01*
X20453796Y55204251D01*
X20455217Y55198655D01*
X20455218Y55198650D01*
X20476843Y55113503D01*
X20505845Y54999310D01*
X20594369Y54807286D01*
X20716405Y54634609D01*
X20780238Y54572426D01*
X20858327Y54496355D01*
X20867865Y54487063D01*
X20872661Y54483858D01*
X20872664Y54483856D01*
X20976173Y54414694D01*
X21043677Y54369589D01*
X21048985Y54367308D01*
X21048986Y54367308D01*
X21232650Y54288400D01*
X21232653Y54288399D01*
X21237953Y54286122D01*
X21243582Y54284848D01*
X21243583Y54284848D01*
X21438550Y54240731D01*
X21438553Y54240731D01*
X21444186Y54239456D01*
X21449958Y54239229D01*
X21455687Y54238475D01*
X21455327Y54235743D01*
X21511604Y54216784D01*
X21555950Y54161341D01*
X21563282Y54090724D01*
X21531271Y54027353D01*
X21470081Y53991349D01*
X21460704Y53989368D01*
X21301650Y53962038D01*
X21301649Y53962038D01*
X21295953Y53961059D01*
X21097575Y53887873D01*
X21092614Y53884921D01*
X21092613Y53884921D01*
X20935588Y53791501D01*
X20915856Y53779762D01*
X20756881Y53640345D01*
X20625976Y53474292D01*
X20623287Y53469181D01*
X20623285Y53469178D01*
X20609792Y53443531D01*
X20527523Y53287164D01*
X20464820Y53085227D01*
X20439967Y52875246D01*
X20453796Y52664251D01*
X20455217Y52658655D01*
X20455218Y52658650D01*
X20480460Y52559262D01*
X20505845Y52459310D01*
X20594369Y52267286D01*
X20716405Y52094609D01*
X20867865Y51947063D01*
X20872661Y51943858D01*
X20872664Y51943856D01*
X21015936Y51848125D01*
X21043677Y51829589D01*
X21048985Y51827308D01*
X21048986Y51827308D01*
X21232650Y51748400D01*
X21232653Y51748399D01*
X21237953Y51746122D01*
X21243582Y51744848D01*
X21243583Y51744848D01*
X21438550Y51700731D01*
X21438553Y51700731D01*
X21444186Y51699456D01*
X21449958Y51699229D01*
X21455687Y51698475D01*
X21455327Y51695743D01*
X21511604Y51676784D01*
X21555950Y51621341D01*
X21563282Y51550724D01*
X21531271Y51487353D01*
X21470081Y51451349D01*
X21460704Y51449368D01*
X21301650Y51422038D01*
X21301649Y51422038D01*
X21295953Y51421059D01*
X21097575Y51347873D01*
X21092614Y51344921D01*
X21092613Y51344921D01*
X20935588Y51251501D01*
X20915856Y51239762D01*
X20756881Y51100345D01*
X20625976Y50934292D01*
X20623287Y50929181D01*
X20623285Y50929178D01*
X20609792Y50903531D01*
X20527523Y50747164D01*
X20464820Y50545227D01*
X20439967Y50335246D01*
X20453796Y50124251D01*
X20455217Y50118655D01*
X20455218Y50118650D01*
X20480460Y50019262D01*
X20505845Y49919310D01*
X20594369Y49727286D01*
X20716405Y49554609D01*
X20867865Y49407063D01*
X20872661Y49403858D01*
X20872664Y49403856D01*
X21015936Y49308125D01*
X21043677Y49289589D01*
X21048985Y49287308D01*
X21048986Y49287308D01*
X21232650Y49208400D01*
X21232653Y49208399D01*
X21237953Y49206122D01*
X21243582Y49204848D01*
X21243583Y49204848D01*
X21438550Y49160731D01*
X21438553Y49160731D01*
X21444186Y49159456D01*
X21449958Y49159229D01*
X21455687Y49158475D01*
X21455327Y49155743D01*
X21511604Y49136784D01*
X21555950Y49081341D01*
X21563282Y49010724D01*
X21531271Y48947353D01*
X21470081Y48911349D01*
X21460704Y48909368D01*
X21301650Y48882038D01*
X21301649Y48882038D01*
X21295953Y48881059D01*
X21097575Y48807873D01*
X21092614Y48804921D01*
X21092613Y48804921D01*
X20935588Y48711501D01*
X20915856Y48699762D01*
X20756881Y48560345D01*
X20625976Y48394292D01*
X20623287Y48389181D01*
X20623285Y48389178D01*
X20609792Y48363531D01*
X20527523Y48207164D01*
X20464820Y48005227D01*
X20439967Y47795246D01*
X20453796Y47584251D01*
X20455217Y47578655D01*
X20455218Y47578650D01*
X20480460Y47479262D01*
X20505845Y47379310D01*
X20594369Y47187286D01*
X20716405Y47014609D01*
X20867865Y46867063D01*
X20872661Y46863858D01*
X20872664Y46863856D01*
X21015936Y46768125D01*
X21043677Y46749589D01*
X21048985Y46747308D01*
X21048986Y46747308D01*
X21232650Y46668400D01*
X21232653Y46668399D01*
X21237953Y46666122D01*
X21243582Y46664848D01*
X21243583Y46664848D01*
X21438550Y46620731D01*
X21438553Y46620731D01*
X21444186Y46619456D01*
X21449958Y46619229D01*
X21455687Y46618475D01*
X21455327Y46615743D01*
X21511604Y46596784D01*
X21555950Y46541341D01*
X21563282Y46470724D01*
X21531271Y46407353D01*
X21470081Y46371349D01*
X21460704Y46369368D01*
X21301650Y46342038D01*
X21301649Y46342038D01*
X21295953Y46341059D01*
X21097575Y46267873D01*
X21092614Y46264921D01*
X21092613Y46264921D01*
X20935588Y46171501D01*
X20915856Y46159762D01*
X20756881Y46020345D01*
X20625976Y45854292D01*
X20623287Y45849181D01*
X20623285Y45849178D01*
X20609792Y45823531D01*
X20527523Y45667164D01*
X20464820Y45465227D01*
X20439967Y45255246D01*
X20453796Y45044251D01*
X20455217Y45038655D01*
X20455218Y45038650D01*
X20480460Y44939262D01*
X20505845Y44839310D01*
X20594369Y44647286D01*
X20716405Y44474609D01*
X20867865Y44327063D01*
X20872661Y44323858D01*
X20872664Y44323856D01*
X21015936Y44228125D01*
X21043677Y44209589D01*
X21048985Y44207308D01*
X21048986Y44207308D01*
X21232650Y44128400D01*
X21232653Y44128399D01*
X21237953Y44126122D01*
X21243582Y44124848D01*
X21243583Y44124848D01*
X21438550Y44080731D01*
X21438553Y44080731D01*
X21444186Y44079456D01*
X21449958Y44079229D01*
X21455687Y44078475D01*
X21455327Y44075743D01*
X21511604Y44056784D01*
X21555950Y44001341D01*
X21563282Y43930724D01*
X21531271Y43867353D01*
X21470081Y43831349D01*
X21460704Y43829368D01*
X21301650Y43802038D01*
X21301649Y43802038D01*
X21295953Y43801059D01*
X21097575Y43727873D01*
X21092614Y43724921D01*
X21092613Y43724921D01*
X20935588Y43631501D01*
X20915856Y43619762D01*
X20756881Y43480345D01*
X20625976Y43314292D01*
X20623287Y43309181D01*
X20623285Y43309178D01*
X20609792Y43283531D01*
X20527523Y43127164D01*
X20464820Y42925227D01*
X20439967Y42715246D01*
X20453796Y42504251D01*
X20455217Y42498655D01*
X20455218Y42498650D01*
X20480460Y42399262D01*
X20505845Y42299310D01*
X20594369Y42107286D01*
X20716405Y41934609D01*
X20867865Y41787063D01*
X20872661Y41783858D01*
X20872664Y41783856D01*
X21015936Y41688125D01*
X21043677Y41669589D01*
X21048985Y41667308D01*
X21048986Y41667308D01*
X21232650Y41588400D01*
X21232653Y41588399D01*
X21237953Y41586122D01*
X21243582Y41584848D01*
X21243583Y41584848D01*
X21438550Y41540731D01*
X21438553Y41540731D01*
X21444186Y41539456D01*
X21449958Y41539229D01*
X21455687Y41538475D01*
X21455327Y41535743D01*
X21511604Y41516784D01*
X21555950Y41461341D01*
X21563282Y41390724D01*
X21531271Y41327353D01*
X21470081Y41291349D01*
X21460704Y41289368D01*
X21301650Y41262038D01*
X21301649Y41262038D01*
X21295953Y41261059D01*
X21097575Y41187873D01*
X21092614Y41184921D01*
X21092613Y41184921D01*
X20935588Y41091501D01*
X20915856Y41079762D01*
X20756881Y40940345D01*
X20625976Y40774292D01*
X20623287Y40769181D01*
X20623285Y40769178D01*
X20609792Y40743531D01*
X20527523Y40587164D01*
X20464820Y40385227D01*
X20439967Y40175246D01*
X20453796Y39964251D01*
X20455217Y39958655D01*
X20455218Y39958650D01*
X20480460Y39859262D01*
X20505845Y39759310D01*
X20594369Y39567286D01*
X20716405Y39394609D01*
X20867865Y39247063D01*
X20872661Y39243858D01*
X20872664Y39243856D01*
X20974396Y39175881D01*
X21043677Y39129589D01*
X21048985Y39127308D01*
X21048986Y39127308D01*
X21232650Y39048400D01*
X21232653Y39048399D01*
X21237953Y39046122D01*
X21243582Y39044848D01*
X21243583Y39044848D01*
X21438550Y39000731D01*
X21438553Y39000731D01*
X21444186Y38999456D01*
X21449958Y38999229D01*
X21455687Y38998475D01*
X21455327Y38995743D01*
X21511604Y38976784D01*
X21555950Y38921341D01*
X21563282Y38850724D01*
X21531271Y38787353D01*
X21470081Y38751349D01*
X21460704Y38749368D01*
X21301650Y38722038D01*
X21301649Y38722038D01*
X21295953Y38721059D01*
X21097575Y38647873D01*
X21092614Y38644921D01*
X21092613Y38644921D01*
X20935588Y38551501D01*
X20915856Y38539762D01*
X20756881Y38400345D01*
X20625976Y38234292D01*
X20623287Y38229181D01*
X20623285Y38229178D01*
X20609792Y38203531D01*
X20527523Y38047164D01*
X20464820Y37845227D01*
X20439967Y37635246D01*
X20453796Y37424251D01*
X20455217Y37418655D01*
X20455218Y37418650D01*
X20480460Y37319262D01*
X20505845Y37219310D01*
X20594369Y37027286D01*
X20716405Y36854609D01*
X20867865Y36707063D01*
X20872661Y36703858D01*
X20872664Y36703856D01*
X21015936Y36608125D01*
X21043677Y36589589D01*
X21048985Y36587308D01*
X21048986Y36587308D01*
X21232650Y36508400D01*
X21232653Y36508399D01*
X21237953Y36506122D01*
X21243582Y36504848D01*
X21243583Y36504848D01*
X21438550Y36460731D01*
X21438553Y36460731D01*
X21444186Y36459456D01*
X21449958Y36459229D01*
X21455687Y36458475D01*
X21455327Y36455743D01*
X21511604Y36436784D01*
X21555950Y36381341D01*
X21563282Y36310724D01*
X21531271Y36247353D01*
X21470081Y36211349D01*
X21460704Y36209368D01*
X21301650Y36182038D01*
X21301649Y36182038D01*
X21295953Y36181059D01*
X21097575Y36107873D01*
X21092614Y36104921D01*
X21092613Y36104921D01*
X20935588Y36011501D01*
X20915856Y35999762D01*
X20756881Y35860345D01*
X20625976Y35694292D01*
X20623287Y35689181D01*
X20623285Y35689178D01*
X20609792Y35663531D01*
X20527523Y35507164D01*
X20464820Y35305227D01*
X20439967Y35095246D01*
X20453796Y34884251D01*
X20455217Y34878655D01*
X20455218Y34878650D01*
X20480460Y34779262D01*
X20505845Y34679310D01*
X20594369Y34487286D01*
X20716405Y34314609D01*
X20867865Y34167063D01*
X20872661Y34163858D01*
X20872664Y34163856D01*
X21015936Y34068125D01*
X21043677Y34049589D01*
X21048985Y34047308D01*
X21048986Y34047308D01*
X21232650Y33968400D01*
X21232653Y33968399D01*
X21237953Y33966122D01*
X21243582Y33964848D01*
X21243583Y33964848D01*
X21438550Y33920731D01*
X21438553Y33920731D01*
X21444186Y33919456D01*
X21449958Y33919229D01*
X21455687Y33918475D01*
X21455327Y33915743D01*
X21511604Y33896784D01*
X21555950Y33841341D01*
X21563282Y33770724D01*
X21531271Y33707353D01*
X21470081Y33671349D01*
X21460704Y33669368D01*
X21301650Y33642038D01*
X21301649Y33642038D01*
X21295953Y33641059D01*
X21097575Y33567873D01*
X21092614Y33564921D01*
X21092613Y33564921D01*
X20935588Y33471501D01*
X20915856Y33459762D01*
X20756881Y33320345D01*
X20625976Y33154292D01*
X20623287Y33149181D01*
X20623285Y33149178D01*
X20609792Y33123531D01*
X20527523Y32967164D01*
X20464820Y32765227D01*
X20439967Y32555246D01*
X20453796Y32344251D01*
X20455217Y32338655D01*
X20455218Y32338650D01*
X20480460Y32239262D01*
X20505845Y32139310D01*
X20594369Y31947286D01*
X20716405Y31774609D01*
X20867865Y31627063D01*
X20872661Y31623858D01*
X20872664Y31623856D01*
X21015936Y31528125D01*
X21043677Y31509589D01*
X21048985Y31507308D01*
X21048986Y31507308D01*
X21232650Y31428400D01*
X21232653Y31428399D01*
X21237953Y31426122D01*
X21243582Y31424848D01*
X21243583Y31424848D01*
X21438550Y31380731D01*
X21438553Y31380731D01*
X21444186Y31379456D01*
X21449958Y31379229D01*
X21455687Y31378475D01*
X21455327Y31375743D01*
X21511604Y31356784D01*
X21555950Y31301341D01*
X21563282Y31230724D01*
X21531271Y31167353D01*
X21470081Y31131349D01*
X21460704Y31129368D01*
X21301650Y31102038D01*
X21301649Y31102038D01*
X21295953Y31101059D01*
X21097575Y31027873D01*
X21092614Y31024921D01*
X21092613Y31024921D01*
X20929130Y30927659D01*
X20915856Y30919762D01*
X20756881Y30780345D01*
X20625976Y30614292D01*
X20623287Y30609181D01*
X20623285Y30609178D01*
X20609792Y30583531D01*
X20527523Y30427164D01*
X20464820Y30225227D01*
X20439967Y30015246D01*
X20453796Y29804251D01*
X20455217Y29798655D01*
X20455218Y29798650D01*
X20480322Y29699806D01*
X20505845Y29599310D01*
X20508262Y29594067D01*
X20577044Y29444867D01*
X20594369Y29407286D01*
X20716405Y29234609D01*
X20867865Y29087063D01*
X20872661Y29083858D01*
X20872664Y29083856D01*
X20961497Y29024500D01*
X21043677Y28969589D01*
X21048985Y28967308D01*
X21048986Y28967308D01*
X21232650Y28888400D01*
X21232653Y28888399D01*
X21237953Y28886122D01*
X21243582Y28884848D01*
X21243583Y28884848D01*
X21438550Y28840731D01*
X21438553Y28840731D01*
X21444186Y28839456D01*
X21449958Y28839229D01*
X21455687Y28838475D01*
X21455327Y28835743D01*
X21511604Y28816784D01*
X21555950Y28761341D01*
X21563282Y28690724D01*
X21531271Y28627353D01*
X21470081Y28591349D01*
X21460704Y28589368D01*
X21301650Y28562038D01*
X21301649Y28562038D01*
X21295953Y28561059D01*
X21097575Y28487873D01*
X21092614Y28484921D01*
X21092613Y28484921D01*
X20935588Y28391501D01*
X20915856Y28379762D01*
X20756881Y28240345D01*
X20625976Y28074292D01*
X20623287Y28069181D01*
X20623285Y28069178D01*
X20609792Y28043531D01*
X20527523Y27887164D01*
X20464820Y27685227D01*
X20439967Y27475246D01*
X20453796Y27264251D01*
X20455217Y27258655D01*
X20455218Y27258650D01*
X20477784Y27169800D01*
X20505845Y27059310D01*
X20594369Y26867286D01*
X20716405Y26694609D01*
X20867865Y26547063D01*
X20872661Y26543858D01*
X20872664Y26543856D01*
X20974396Y26475881D01*
X21043677Y26429589D01*
X21048985Y26427308D01*
X21048986Y26427308D01*
X21232650Y26348400D01*
X21232653Y26348399D01*
X21237953Y26346122D01*
X21243582Y26344848D01*
X21243583Y26344848D01*
X21438550Y26300731D01*
X21438553Y26300731D01*
X21444186Y26299456D01*
X21449958Y26299229D01*
X21455687Y26298475D01*
X21455327Y26295743D01*
X21511604Y26276784D01*
X21555950Y26221341D01*
X21563282Y26150724D01*
X21531271Y26087353D01*
X21470081Y26051349D01*
X21460704Y26049368D01*
X21301650Y26022038D01*
X21301649Y26022038D01*
X21295953Y26021059D01*
X21097575Y25947873D01*
X21092617Y25944923D01*
X21092608Y25944919D01*
X20972084Y25873215D01*
X20907662Y25855500D01*
X19070416Y25855500D01*
X19066898Y25855549D01*
X18991408Y25857658D01*
X18991406Y25857658D01*
X18985027Y25857836D01*
X18978742Y25856728D01*
X18978732Y25856727D01*
X18928818Y25847925D01*
X18919678Y25846656D01*
X18880350Y25842661D01*
X18869239Y25841533D01*
X18869238Y25841533D01*
X18862890Y25840888D01*
X18847242Y25835984D01*
X18837186Y25832833D01*
X18821387Y25828981D01*
X18817144Y25828233D01*
X18794863Y25824304D01*
X18741793Y25803292D01*
X18733111Y25800218D01*
X18678627Y25783144D01*
X18673055Y25780055D01*
X18673045Y25780051D01*
X18655058Y25770080D01*
X18640357Y25763131D01*
X18615324Y25753220D01*
X18609979Y25749722D01*
X18567569Y25721970D01*
X18559670Y25717205D01*
X18509739Y25689528D01*
X18504890Y25685372D01*
X18489286Y25671998D01*
X18476283Y25662235D01*
X18453746Y25647487D01*
X18449032Y25643242D01*
X18412247Y25606457D01*
X18405150Y25599884D01*
X18363125Y25563864D01*
X18345400Y25541014D01*
X18334942Y25529152D01*
X17118811Y24313021D01*
X17116290Y24310569D01*
X17056765Y24254279D01*
X17024132Y24207674D01*
X17024026Y24207522D01*
X17018467Y24200171D01*
X16982385Y24155930D01*
X16972661Y24137329D01*
X16969905Y24132058D01*
X16961462Y24118171D01*
X16946009Y24096102D01*
X16923331Y24043695D01*
X16919377Y24035407D01*
X16892923Y23984806D01*
X16888925Y23970865D01*
X16885498Y23958913D01*
X16880015Y23943600D01*
X16871857Y23924749D01*
X16871855Y23924744D01*
X16869320Y23918885D01*
X16857645Y23863000D01*
X16855439Y23854084D01*
X16839697Y23799187D01*
X16837635Y23772383D01*
X16837630Y23772322D01*
X16835339Y23756228D01*
X16829832Y23729867D01*
X16829500Y23723532D01*
X16829500Y23671506D01*
X16829129Y23661842D01*
X16824883Y23606658D01*
X16825683Y23600326D01*
X16828506Y23577979D01*
X16829500Y23562187D01*
X16829500Y4390900D01*
X16809498Y4322779D01*
X16792595Y4301805D01*
X16153195Y3662405D01*
X16090883Y3628379D01*
X16064100Y3625500D01*
X6778297Y3625500D01*
X6710176Y3645502D01*
X6663683Y3699158D01*
X6654422Y3772741D01*
X6655303Y3775812D01*
X6656355Y3789488D01*
X6659314Y3808598D01*
X6660986Y3815728D01*
X6662445Y3821948D01*
X6664406Y3892158D01*
X6664728Y3898307D01*
X6669628Y3961982D01*
X6669628Y3961986D01*
X6670117Y3968342D01*
X6668398Y3981950D01*
X6667454Y4001253D01*
X6667659Y4008589D01*
X6667659Y4008592D01*
X6667837Y4014972D01*
X6663588Y4039067D01*
X6655635Y4084173D01*
X6654715Y4090261D01*
X6646715Y4153583D01*
X6645915Y4159919D01*
X6641494Y4172906D01*
X6636688Y4191623D01*
X6635414Y4198848D01*
X6634305Y4205137D01*
X6608441Y4270465D01*
X6606316Y4276240D01*
X6603350Y4284953D01*
X6583685Y4342716D01*
X6576745Y4354546D01*
X6568276Y4371908D01*
X6563221Y4384675D01*
X6524744Y4443474D01*
X6521506Y4448697D01*
X6489205Y4503754D01*
X6489201Y4503759D01*
X6485971Y4509265D01*
X6476791Y4519461D01*
X6465002Y4534770D01*
X6460141Y4542198D01*
X6460138Y4542202D01*
X6457487Y4546253D01*
X6453242Y4550968D01*
X6407191Y4597019D01*
X6402649Y4601804D01*
X6356763Y4652766D01*
X6344136Y4662075D01*
X6329817Y4674393D01*
X5763021Y5241189D01*
X5760568Y5243711D01*
X5708666Y5298596D01*
X5708665Y5298597D01*
X5704279Y5303235D01*
X5657514Y5335980D01*
X5650171Y5341533D01*
X5605930Y5377615D01*
X5582053Y5390098D01*
X5568171Y5398538D01*
X5546102Y5413991D01*
X5493695Y5436669D01*
X5485407Y5440623D01*
X5434806Y5467077D01*
X5408913Y5474502D01*
X5393600Y5479985D01*
X5374749Y5488143D01*
X5374744Y5488145D01*
X5368885Y5490680D01*
X5313000Y5502355D01*
X5304084Y5504561D01*
X5249187Y5520303D01*
X5222318Y5522371D01*
X5206228Y5524661D01*
X5192108Y5527611D01*
X5184612Y5529177D01*
X5184609Y5529177D01*
X5179867Y5530168D01*
X5173532Y5530500D01*
X5121506Y5530500D01*
X5111842Y5530871D01*
X5098930Y5531864D01*
X5063017Y5534628D01*
X5063014Y5534628D01*
X5056658Y5535117D01*
X5035950Y5532501D01*
X5027979Y5531494D01*
X5012187Y5530500D01*
X3620900Y5530500D01*
X3552779Y5550502D01*
X3531805Y5567405D01*
X3349355Y5749855D01*
X3315329Y5812167D01*
X3320394Y5882982D01*
X3362941Y5939818D01*
X3429461Y5964629D01*
X3466258Y5961843D01*
X3646995Y5920946D01*
X3647001Y5920945D01*
X3652632Y5919671D01*
X3658403Y5919444D01*
X3658405Y5919444D01*
X3726211Y5916780D01*
X3873098Y5911009D01*
X3982275Y5926839D01*
X4085738Y5941840D01*
X4085743Y5941841D01*
X4091452Y5942669D01*
X4096916Y5944524D01*
X4096921Y5944525D01*
X4294907Y6011732D01*
X4294912Y6011734D01*
X4300379Y6013590D01*
X4322757Y6026122D01*
X4405190Y6072287D01*
X4492884Y6121398D01*
X4559112Y6176479D01*
X4658086Y6258796D01*
X4662518Y6262482D01*
X4724256Y6336713D01*
X4799908Y6427674D01*
X4799910Y6427677D01*
X4803602Y6432116D01*
X4911410Y6624621D01*
X4913266Y6630088D01*
X4913268Y6630093D01*
X4980475Y6828079D01*
X4980476Y6828084D01*
X4982331Y6833548D01*
X4985775Y6857300D01*
X5015346Y6921846D01*
X5075118Y6960158D01*
X5146114Y6960072D01*
X5205794Y6921617D01*
X5232594Y6870235D01*
X5265845Y6739310D01*
X5354369Y6547286D01*
X5476405Y6374609D01*
X5627865Y6227063D01*
X5632661Y6223858D01*
X5632664Y6223856D01*
X5775936Y6128125D01*
X5803677Y6109589D01*
X5808985Y6107308D01*
X5808986Y6107308D01*
X5992650Y6028400D01*
X5992653Y6028399D01*
X5997953Y6026122D01*
X6003582Y6024848D01*
X6003583Y6024848D01*
X6198550Y5980731D01*
X6198553Y5980731D01*
X6204186Y5979456D01*
X6209957Y5979229D01*
X6209959Y5979229D01*
X6271989Y5976792D01*
X6415470Y5971154D01*
X6421179Y5971982D01*
X6421183Y5971982D01*
X6619015Y6000667D01*
X6619019Y6000668D01*
X6624730Y6001496D01*
X6703987Y6028400D01*
X6819483Y6067605D01*
X6819488Y6067607D01*
X6824955Y6069463D01*
X6829998Y6072287D01*
X7004395Y6169954D01*
X7004399Y6169957D01*
X7009442Y6172781D01*
X7172012Y6307988D01*
X7307219Y6470558D01*
X7310043Y6475601D01*
X7310046Y6475605D01*
X7407713Y6650002D01*
X7407714Y6650004D01*
X7410537Y6655045D01*
X7412393Y6660512D01*
X7412395Y6660517D01*
X7476647Y6849800D01*
X7478504Y6855270D01*
X7479935Y6865135D01*
X7508314Y7060860D01*
X7508314Y7060862D01*
X7508846Y7064530D01*
X7510429Y7125000D01*
X7491081Y7335560D01*
X7478359Y7380671D01*
X7435255Y7533504D01*
X7433686Y7539069D01*
X7429744Y7547064D01*
X7342719Y7723531D01*
X7340165Y7728710D01*
X7213651Y7898133D01*
X7058381Y8041663D01*
X6879554Y8154495D01*
X6786657Y8191557D01*
X6730798Y8235378D01*
X6707498Y8302442D01*
X6724154Y8371457D01*
X6775478Y8420512D01*
X6793701Y8427568D01*
X6793587Y8427881D01*
X6809053Y8433510D01*
X7006511Y8525586D01*
X7016007Y8531069D01*
X7194467Y8656028D01*
X7202875Y8663084D01*
X7356916Y8817125D01*
X7363972Y8825533D01*
X7488931Y9003993D01*
X7494414Y9013489D01*
X7586490Y9210947D01*
X7590236Y9221239D01*
X7636394Y9393503D01*
X7636058Y9407599D01*
X7628116Y9411000D01*
X6227000Y9411000D01*
X6158879Y9431002D01*
X6112386Y9484658D01*
X6101000Y9537000D01*
X6101000Y9793000D01*
X6121002Y9861121D01*
X6174658Y9907614D01*
X6227000Y9919000D01*
X7622967Y9919000D01*
X7636498Y9922973D01*
X7637727Y9931522D01*
X7590236Y10108761D01*
X7586490Y10119053D01*
X7494414Y10316511D01*
X7488931Y10326007D01*
X7363972Y10504467D01*
X7356916Y10512875D01*
X7202875Y10666916D01*
X7194467Y10673972D01*
X7016007Y10798931D01*
X7006511Y10804414D01*
X6809050Y10896491D01*
X6793783Y10902048D01*
X6736611Y10944142D01*
X6711273Y11010463D01*
X6725814Y11079955D01*
X6775616Y11130554D01*
X6796368Y11139759D01*
X6824955Y11149463D01*
X6829998Y11152287D01*
X7004395Y11249954D01*
X7004399Y11249957D01*
X7009442Y11252781D01*
X7172012Y11387988D01*
X7307219Y11550558D01*
X7310043Y11555601D01*
X7310046Y11555605D01*
X7407713Y11730002D01*
X7407714Y11730004D01*
X7410537Y11735045D01*
X7412393Y11740512D01*
X7412395Y11740517D01*
X7473070Y11919262D01*
X7478504Y11935270D01*
X7488855Y12006654D01*
X7508314Y12140860D01*
X7508314Y12140862D01*
X7508846Y12144530D01*
X7510429Y12205000D01*
X7491081Y12415560D01*
X7433686Y12619069D01*
X7429744Y12627064D01*
X7342719Y12803531D01*
X7340165Y12808710D01*
X7213651Y12978133D01*
X7058381Y13121663D01*
X6879554Y13234495D01*
X6761086Y13281759D01*
X6705228Y13325578D01*
X6681927Y13392642D01*
X6698583Y13461658D01*
X6706426Y13473648D01*
X6736363Y13514179D01*
X6738629Y13520631D01*
X6742517Y13526257D01*
X6746760Y13539671D01*
X6759248Y13579161D01*
X6760502Y13582918D01*
X6761699Y13586326D01*
X6775525Y13625695D01*
X6816967Y13683339D01*
X6832840Y13693879D01*
X6853480Y13705438D01*
X7009442Y13792781D01*
X7172012Y13927988D01*
X7307219Y14090558D01*
X7310043Y14095601D01*
X7310046Y14095605D01*
X7407713Y14270002D01*
X7407714Y14270004D01*
X7410537Y14275045D01*
X7412393Y14280512D01*
X7412395Y14280517D01*
X7473070Y14459262D01*
X7478504Y14475270D01*
X7488158Y14541846D01*
X7508314Y14680860D01*
X7508314Y14680862D01*
X7508846Y14684530D01*
X7510429Y14745000D01*
X7491081Y14955560D01*
X7433686Y15159069D01*
X7429744Y15167064D01*
X7342719Y15343531D01*
X7340165Y15348710D01*
X7213651Y15518133D01*
X7058381Y15661663D01*
X6879554Y15774495D01*
X6861009Y15781894D01*
X6805152Y15825712D01*
X6781700Y15898923D01*
X6781700Y16131390D01*
X6801702Y16199511D01*
X6846134Y16241324D01*
X6859505Y16248812D01*
X7009442Y16332781D01*
X7172012Y16467988D01*
X7307219Y16630558D01*
X7310043Y16635601D01*
X7310046Y16635605D01*
X7407713Y16810002D01*
X7407714Y16810004D01*
X7410537Y16815045D01*
X7412393Y16820512D01*
X7412395Y16820517D01*
X7473070Y16999262D01*
X7478504Y17015270D01*
X7488158Y17081846D01*
X7508314Y17220860D01*
X7508314Y17220862D01*
X7508846Y17224530D01*
X7510429Y17285000D01*
X7491081Y17495560D01*
X7433686Y17699069D01*
X7429744Y17707064D01*
X7342719Y17883531D01*
X7340165Y17888710D01*
X7213651Y18058133D01*
X7058381Y18201663D01*
X6976478Y18253340D01*
X6884434Y18311416D01*
X6884433Y18311416D01*
X6879554Y18314495D01*
X6683160Y18392848D01*
X6677503Y18393973D01*
X6677497Y18393975D01*
X6480234Y18433212D01*
X6417324Y18466119D01*
X6382192Y18527814D01*
X6385992Y18598709D01*
X6427517Y18656295D01*
X6486734Y18681487D01*
X6619015Y18700667D01*
X6619019Y18700668D01*
X6624730Y18701496D01*
X6703987Y18728400D01*
X6819483Y18767605D01*
X6819488Y18767607D01*
X6824955Y18769463D01*
X6829998Y18772287D01*
X7004395Y18869954D01*
X7004399Y18869957D01*
X7009442Y18872781D01*
X7172012Y19007988D01*
X7307219Y19170558D01*
X7310043Y19175601D01*
X7310046Y19175605D01*
X7407713Y19350002D01*
X7407714Y19350004D01*
X7410537Y19355045D01*
X7412393Y19360512D01*
X7412395Y19360517D01*
X7476647Y19549800D01*
X7478504Y19555270D01*
X7488158Y19621846D01*
X7508314Y19760860D01*
X7508314Y19760862D01*
X7508846Y19764530D01*
X7510429Y19825000D01*
X7491081Y20035560D01*
X7433686Y20239069D01*
X7429744Y20247064D01*
X7342719Y20423531D01*
X7340165Y20428710D01*
X7213651Y20598133D01*
X7058381Y20741663D01*
X6938801Y20817113D01*
X6884434Y20851416D01*
X6884433Y20851416D01*
X6879554Y20854495D01*
X6683160Y20932848D01*
X6677503Y20933973D01*
X6677497Y20933975D01*
X6480234Y20973212D01*
X6417324Y21006119D01*
X6382192Y21067814D01*
X6385992Y21138709D01*
X6427517Y21196295D01*
X6486734Y21221487D01*
X6619015Y21240667D01*
X6619019Y21240668D01*
X6624730Y21241496D01*
X6703987Y21268400D01*
X6819483Y21307605D01*
X6819488Y21307607D01*
X6824955Y21309463D01*
X6829998Y21312287D01*
X7004395Y21409954D01*
X7004399Y21409957D01*
X7009442Y21412781D01*
X7172012Y21547988D01*
X7307219Y21710558D01*
X7310043Y21715601D01*
X7310046Y21715605D01*
X7407713Y21890002D01*
X7407714Y21890004D01*
X7410537Y21895045D01*
X7412393Y21900512D01*
X7412395Y21900517D01*
X7476647Y22089800D01*
X7478504Y22095270D01*
X7508846Y22304530D01*
X7510429Y22365000D01*
X7491081Y22575560D01*
X7433686Y22779069D01*
X7429744Y22787064D01*
X7342719Y22963531D01*
X7340165Y22968710D01*
X7213651Y23138133D01*
X7090231Y23252221D01*
X7062622Y23277743D01*
X7062620Y23277745D01*
X7058381Y23281663D01*
X6879554Y23394495D01*
X6683160Y23472848D01*
X6677503Y23473973D01*
X6677497Y23473975D01*
X6480234Y23513212D01*
X6417324Y23546119D01*
X6382192Y23607814D01*
X6385992Y23678709D01*
X6427517Y23736295D01*
X6486734Y23761487D01*
X6619015Y23780667D01*
X6619019Y23780668D01*
X6624730Y23781496D01*
X6703987Y23808400D01*
X6819483Y23847605D01*
X6819488Y23847607D01*
X6824955Y23849463D01*
X6829998Y23852287D01*
X7004395Y23949954D01*
X7004399Y23949957D01*
X7009442Y23952781D01*
X7172012Y24087988D01*
X7307219Y24250558D01*
X7310043Y24255601D01*
X7310046Y24255605D01*
X7407713Y24430002D01*
X7407714Y24430004D01*
X7410537Y24435045D01*
X7412393Y24440512D01*
X7412395Y24440517D01*
X7473070Y24619262D01*
X7478504Y24635270D01*
X7488855Y24706654D01*
X7508314Y24840860D01*
X7508314Y24840862D01*
X7508846Y24844530D01*
X7510429Y24905000D01*
X7491081Y25115560D01*
X7433686Y25319069D01*
X7429744Y25327064D01*
X7342719Y25503531D01*
X7340165Y25508710D01*
X7213651Y25678133D01*
X7097988Y25785051D01*
X7062622Y25817743D01*
X7062620Y25817745D01*
X7058381Y25821663D01*
X7017302Y25847582D01*
X6884434Y25931416D01*
X6884433Y25931416D01*
X6879554Y25934495D01*
X6761086Y25981759D01*
X6705228Y26025578D01*
X6681927Y26092642D01*
X6698583Y26161658D01*
X6706426Y26173648D01*
X6736363Y26214179D01*
X6738629Y26220631D01*
X6742517Y26226257D01*
X6746760Y26239671D01*
X6759248Y26279161D01*
X6760502Y26282918D01*
X6761699Y26286326D01*
X6775525Y26325695D01*
X6816967Y26383339D01*
X6832840Y26393879D01*
X7009442Y26492781D01*
X7172012Y26627988D01*
X7307219Y26790558D01*
X7310043Y26795601D01*
X7310046Y26795605D01*
X7407713Y26970002D01*
X7407714Y26970004D01*
X7410537Y26975045D01*
X7412393Y26980512D01*
X7412395Y26980517D01*
X7476647Y27169800D01*
X7478504Y27175270D01*
X7488158Y27241846D01*
X7508314Y27380860D01*
X7508314Y27380862D01*
X7508846Y27384530D01*
X7510429Y27445000D01*
X7491081Y27655560D01*
X7433686Y27859069D01*
X7429744Y27867064D01*
X7342719Y28043531D01*
X7340165Y28048710D01*
X7213651Y28218133D01*
X7072872Y28348268D01*
X7062622Y28357743D01*
X7062620Y28357745D01*
X7058381Y28361663D01*
X6879554Y28474495D01*
X6683160Y28552848D01*
X6677503Y28553973D01*
X6677497Y28553975D01*
X6480234Y28593212D01*
X6417324Y28626119D01*
X6382192Y28687814D01*
X6385992Y28758709D01*
X6427517Y28816295D01*
X6486734Y28841487D01*
X6619015Y28860667D01*
X6619019Y28860668D01*
X6624730Y28861496D01*
X6733741Y28898500D01*
X6819483Y28927605D01*
X6819488Y28927607D01*
X6824955Y28929463D01*
X6863930Y28951290D01*
X7004395Y29029954D01*
X7004399Y29029957D01*
X7009442Y29032781D01*
X7172012Y29167988D01*
X7307219Y29330558D01*
X7310043Y29335601D01*
X7310046Y29335605D01*
X7407713Y29510002D01*
X7407714Y29510004D01*
X7410537Y29515045D01*
X7412393Y29520512D01*
X7412395Y29520517D01*
X7473255Y29699806D01*
X7478504Y29715270D01*
X7488855Y29786654D01*
X7508314Y29920860D01*
X7508314Y29920862D01*
X7508846Y29924530D01*
X7510429Y29985000D01*
X7491081Y30195560D01*
X7433686Y30399069D01*
X7429744Y30407064D01*
X7342719Y30583531D01*
X7340165Y30588710D01*
X7213651Y30758133D01*
X7108805Y30855052D01*
X7062622Y30897743D01*
X7062620Y30897745D01*
X7058381Y30901663D01*
X6879554Y31014495D01*
X6683160Y31092848D01*
X6677503Y31093973D01*
X6677497Y31093975D01*
X6480234Y31133212D01*
X6417324Y31166119D01*
X6382192Y31227814D01*
X6385992Y31298709D01*
X6427517Y31356295D01*
X6486734Y31381487D01*
X6619015Y31400667D01*
X6619019Y31400668D01*
X6624730Y31401496D01*
X6703987Y31428400D01*
X6819483Y31467605D01*
X6819488Y31467607D01*
X6824955Y31469463D01*
X6829998Y31472287D01*
X7004395Y31569954D01*
X7004399Y31569957D01*
X7009442Y31572781D01*
X7172012Y31707988D01*
X7307219Y31870558D01*
X7310043Y31875601D01*
X7310046Y31875605D01*
X7407713Y32050002D01*
X7407714Y32050004D01*
X7410537Y32055045D01*
X7412393Y32060512D01*
X7412395Y32060517D01*
X7473070Y32239262D01*
X7478504Y32255270D01*
X7488158Y32321846D01*
X7508314Y32460860D01*
X7508314Y32460862D01*
X7508846Y32464530D01*
X7510429Y32525000D01*
X7491081Y32735560D01*
X7433686Y32939069D01*
X7429744Y32947064D01*
X7342719Y33123531D01*
X7340165Y33128710D01*
X7213651Y33298133D01*
X7058381Y33441663D01*
X6879554Y33554495D01*
X6683160Y33632848D01*
X6677503Y33633973D01*
X6677497Y33633975D01*
X6480234Y33673212D01*
X6417324Y33706119D01*
X6382192Y33767814D01*
X6385992Y33838709D01*
X6427517Y33896295D01*
X6486734Y33921487D01*
X6619015Y33940667D01*
X6619019Y33940668D01*
X6624730Y33941496D01*
X6703987Y33968400D01*
X6819483Y34007605D01*
X6819488Y34007607D01*
X6824955Y34009463D01*
X6829998Y34012287D01*
X7004395Y34109954D01*
X7004399Y34109957D01*
X7009442Y34112781D01*
X7172012Y34247988D01*
X7307219Y34410558D01*
X7310043Y34415601D01*
X7310046Y34415605D01*
X7407713Y34590002D01*
X7407714Y34590004D01*
X7410537Y34595045D01*
X7412393Y34600512D01*
X7412395Y34600517D01*
X7473070Y34779262D01*
X7478504Y34795270D01*
X7488855Y34866654D01*
X7508314Y35000860D01*
X7508314Y35000862D01*
X7508846Y35004530D01*
X7510429Y35065000D01*
X7491081Y35275560D01*
X7433686Y35479069D01*
X7429744Y35487064D01*
X7342719Y35663531D01*
X7340165Y35668710D01*
X7213651Y35838133D01*
X7113286Y35930910D01*
X7062622Y35977743D01*
X7062620Y35977745D01*
X7058381Y35981663D01*
X6879554Y36094495D01*
X6683160Y36172848D01*
X6677503Y36173973D01*
X6677497Y36173975D01*
X6480234Y36213212D01*
X6417324Y36246119D01*
X6382192Y36307814D01*
X6385992Y36378709D01*
X6427517Y36436295D01*
X6486734Y36461487D01*
X6619015Y36480667D01*
X6619019Y36480668D01*
X6624730Y36481496D01*
X6703987Y36508400D01*
X6819483Y36547605D01*
X6819488Y36547607D01*
X6824955Y36549463D01*
X6829998Y36552287D01*
X7004395Y36649954D01*
X7004399Y36649957D01*
X7009442Y36652781D01*
X7172012Y36787988D01*
X7307219Y36950558D01*
X7310043Y36955601D01*
X7310046Y36955605D01*
X7407713Y37130002D01*
X7407714Y37130004D01*
X7410537Y37135045D01*
X7412393Y37140512D01*
X7412395Y37140517D01*
X7473070Y37319262D01*
X7478504Y37335270D01*
X7488855Y37406654D01*
X7508314Y37540860D01*
X7508314Y37540862D01*
X7508846Y37544530D01*
X7510429Y37605000D01*
X7491081Y37815560D01*
X7433686Y38019069D01*
X7429744Y38027064D01*
X7342719Y38203531D01*
X7340165Y38208710D01*
X7213651Y38378133D01*
X7058381Y38521663D01*
X6879554Y38634495D01*
X6761086Y38681759D01*
X6705228Y38725578D01*
X6681927Y38792642D01*
X6698583Y38861658D01*
X6706426Y38873648D01*
X6736363Y38914179D01*
X6738629Y38920631D01*
X6742517Y38926257D01*
X6746760Y38939671D01*
X6759248Y38979161D01*
X6760502Y38982918D01*
X6761699Y38986326D01*
X6775525Y39025695D01*
X6816967Y39083339D01*
X6832840Y39093879D01*
X6853480Y39105438D01*
X7009442Y39192781D01*
X7172012Y39327988D01*
X7307219Y39490558D01*
X7310043Y39495601D01*
X7310046Y39495605D01*
X7407713Y39670002D01*
X7407714Y39670004D01*
X7410537Y39675045D01*
X7412393Y39680512D01*
X7412395Y39680517D01*
X7473070Y39859262D01*
X7478504Y39875270D01*
X7488158Y39941846D01*
X7508314Y40080860D01*
X7508314Y40080862D01*
X7508846Y40084530D01*
X7510429Y40145000D01*
X7491081Y40355560D01*
X7433686Y40559069D01*
X7429744Y40567064D01*
X7342719Y40743531D01*
X7340165Y40748710D01*
X7213651Y40918133D01*
X7058381Y41061663D01*
X6879554Y41174495D01*
X6683160Y41252848D01*
X6677503Y41253973D01*
X6677497Y41253975D01*
X6480234Y41293212D01*
X6417324Y41326119D01*
X6382192Y41387814D01*
X6385992Y41458709D01*
X6427517Y41516295D01*
X6486734Y41541487D01*
X6619015Y41560667D01*
X6619019Y41560668D01*
X6624730Y41561496D01*
X6703987Y41588400D01*
X6819483Y41627605D01*
X6819488Y41627607D01*
X6824955Y41629463D01*
X6829998Y41632287D01*
X7004395Y41729954D01*
X7004399Y41729957D01*
X7009442Y41732781D01*
X7172012Y41867988D01*
X7307219Y42030558D01*
X7310043Y42035601D01*
X7310046Y42035605D01*
X7407713Y42210002D01*
X7407714Y42210004D01*
X7410537Y42215045D01*
X7412393Y42220512D01*
X7412395Y42220517D01*
X7473070Y42399262D01*
X7478504Y42415270D01*
X7488158Y42481846D01*
X7508314Y42620860D01*
X7508314Y42620862D01*
X7508846Y42624530D01*
X7510429Y42685000D01*
X7491081Y42895560D01*
X7433686Y43099069D01*
X7429744Y43107064D01*
X7342719Y43283531D01*
X7340165Y43288710D01*
X7213651Y43458133D01*
X7058381Y43601663D01*
X6879554Y43714495D01*
X6683160Y43792848D01*
X6677503Y43793973D01*
X6677497Y43793975D01*
X6480234Y43833212D01*
X6417324Y43866119D01*
X6382192Y43927814D01*
X6385992Y43998709D01*
X6427517Y44056295D01*
X6486734Y44081487D01*
X6619015Y44100667D01*
X6619019Y44100668D01*
X6624730Y44101496D01*
X6703987Y44128400D01*
X6819483Y44167605D01*
X6819488Y44167607D01*
X6824955Y44169463D01*
X6829998Y44172287D01*
X7004395Y44269954D01*
X7004399Y44269957D01*
X7009442Y44272781D01*
X7172012Y44407988D01*
X7307219Y44570558D01*
X7310043Y44575601D01*
X7310046Y44575605D01*
X7407713Y44750002D01*
X7407714Y44750004D01*
X7410537Y44755045D01*
X7412393Y44760512D01*
X7412395Y44760517D01*
X7473070Y44939262D01*
X7478504Y44955270D01*
X7488158Y45021846D01*
X7508314Y45160860D01*
X7508314Y45160862D01*
X7508846Y45164530D01*
X7510429Y45225000D01*
X7491081Y45435560D01*
X7433686Y45639069D01*
X7429744Y45647064D01*
X7342719Y45823531D01*
X7340165Y45828710D01*
X7213651Y45998133D01*
X7058381Y46141663D01*
X6879554Y46254495D01*
X6683160Y46332848D01*
X6677503Y46333973D01*
X6677497Y46333975D01*
X6480234Y46373212D01*
X6417324Y46406119D01*
X6382192Y46467814D01*
X6385992Y46538709D01*
X6427517Y46596295D01*
X6486734Y46621487D01*
X6619015Y46640667D01*
X6619019Y46640668D01*
X6624730Y46641496D01*
X6703987Y46668400D01*
X6819483Y46707605D01*
X6819488Y46707607D01*
X6824955Y46709463D01*
X6829998Y46712287D01*
X7004395Y46809954D01*
X7004399Y46809957D01*
X7009442Y46812781D01*
X7172012Y46947988D01*
X7307219Y47110558D01*
X7310043Y47115601D01*
X7310046Y47115605D01*
X7407713Y47290002D01*
X7407714Y47290004D01*
X7410537Y47295045D01*
X7412393Y47300512D01*
X7412395Y47300517D01*
X7473070Y47479262D01*
X7478504Y47495270D01*
X7488158Y47561846D01*
X7508314Y47700860D01*
X7508314Y47700862D01*
X7508846Y47704530D01*
X7510429Y47765000D01*
X7491081Y47975560D01*
X7433686Y48179069D01*
X7429744Y48187064D01*
X7342719Y48363531D01*
X7340165Y48368710D01*
X7213651Y48538133D01*
X7058381Y48681663D01*
X6879554Y48794495D01*
X6683160Y48872848D01*
X6677503Y48873973D01*
X6677497Y48873975D01*
X6480234Y48913212D01*
X6417324Y48946119D01*
X6382192Y49007814D01*
X6385992Y49078709D01*
X6427517Y49136295D01*
X6486734Y49161487D01*
X6619015Y49180667D01*
X6619019Y49180668D01*
X6624730Y49181496D01*
X6703987Y49208400D01*
X6819483Y49247605D01*
X6819488Y49247607D01*
X6824955Y49249463D01*
X6829998Y49252287D01*
X7004395Y49349954D01*
X7004399Y49349957D01*
X7009442Y49352781D01*
X7172012Y49487988D01*
X7307219Y49650558D01*
X7310043Y49655601D01*
X7310046Y49655605D01*
X7407713Y49830002D01*
X7407714Y49830004D01*
X7410537Y49835045D01*
X7412393Y49840512D01*
X7412395Y49840517D01*
X7473070Y50019262D01*
X7478504Y50035270D01*
X7488158Y50101846D01*
X7508314Y50240860D01*
X7508314Y50240862D01*
X7508846Y50244530D01*
X7510429Y50305000D01*
X7491081Y50515560D01*
X7433686Y50719069D01*
X7429744Y50727064D01*
X7342719Y50903531D01*
X7340165Y50908710D01*
X7213651Y51078133D01*
X7058381Y51221663D01*
X6879554Y51334495D01*
X6683160Y51412848D01*
X6677503Y51413973D01*
X6677497Y51413975D01*
X6480234Y51453212D01*
X6417324Y51486119D01*
X6382192Y51547814D01*
X6385992Y51618709D01*
X6427517Y51676295D01*
X6486734Y51701487D01*
X6619015Y51720667D01*
X6619019Y51720668D01*
X6624730Y51721496D01*
X6703987Y51748400D01*
X6819483Y51787605D01*
X6819488Y51787607D01*
X6824955Y51789463D01*
X6829998Y51792287D01*
X7004395Y51889954D01*
X7004399Y51889957D01*
X7009442Y51892781D01*
X7172012Y52027988D01*
X7307219Y52190558D01*
X7310043Y52195601D01*
X7310046Y52195605D01*
X7407713Y52370002D01*
X7407714Y52370004D01*
X7410537Y52375045D01*
X7412393Y52380512D01*
X7412395Y52380517D01*
X7473070Y52559262D01*
X7478504Y52575270D01*
X7488158Y52641846D01*
X7508314Y52780860D01*
X7508314Y52780862D01*
X7508846Y52784530D01*
X7510429Y52845000D01*
X7491081Y53055560D01*
X7433686Y53259069D01*
X7429744Y53267064D01*
X7342719Y53443531D01*
X7340165Y53448710D01*
X7213651Y53618133D01*
X7058381Y53761663D01*
X6879554Y53874495D01*
X6786657Y53911557D01*
X6730798Y53955378D01*
X6707498Y54022442D01*
X6724154Y54091457D01*
X6775478Y54140512D01*
X6793701Y54147568D01*
X6793587Y54147881D01*
X6809053Y54153510D01*
X7006511Y54245586D01*
X7016007Y54251069D01*
X7194467Y54376028D01*
X7202875Y54383084D01*
X7356916Y54537125D01*
X7363972Y54545533D01*
X7488931Y54723993D01*
X7494414Y54733489D01*
X7586490Y54930947D01*
X7590236Y54941239D01*
X7636394Y55113503D01*
X7636058Y55127599D01*
X7628116Y55131000D01*
X6227000Y55131000D01*
X6158879Y55151002D01*
X6112386Y55204658D01*
X6101000Y55257000D01*
X6101000Y55657115D01*
X6609000Y55657115D01*
X6613475Y55641876D01*
X6614865Y55640671D01*
X6622548Y55639000D01*
X7622967Y55639000D01*
X7636498Y55642973D01*
X7637727Y55651522D01*
X7590236Y55828761D01*
X7586490Y55839053D01*
X7494414Y56036511D01*
X7488931Y56046007D01*
X7363972Y56224467D01*
X7356916Y56232875D01*
X7202875Y56386916D01*
X7194467Y56393972D01*
X7016007Y56518931D01*
X7006511Y56524414D01*
X6809053Y56616490D01*
X6798761Y56620236D01*
X6626497Y56666394D01*
X6612401Y56666058D01*
X6609000Y56658116D01*
X6609000Y55657115D01*
X6101000Y55657115D01*
X6101000Y56652967D01*
X6097027Y56666498D01*
X6088478Y56667727D01*
X5911239Y56620236D01*
X5900947Y56616490D01*
X5703489Y56524414D01*
X5693993Y56518931D01*
X5515533Y56393972D01*
X5507125Y56386916D01*
X5353084Y56232875D01*
X5346028Y56224467D01*
X5239713Y56072633D01*
X5184256Y56028305D01*
X5113637Y56020996D01*
X5050276Y56053027D01*
X5014291Y56114228D01*
X5010500Y56144904D01*
X5010500Y56258218D01*
X5004682Y56297743D01*
X5001784Y56317426D01*
X5001784Y56317427D01*
X5000358Y56327112D01*
X4958967Y56411416D01*
X4953522Y56422507D01*
X4953521Y56422509D01*
X4948932Y56431855D01*
X4889976Y56490708D01*
X4873721Y56506935D01*
X4873720Y56506935D01*
X4866350Y56514293D01*
X4761518Y56565536D01*
X4731027Y56569984D01*
X4697744Y56574840D01*
X4697740Y56574840D01*
X4693218Y56575500D01*
X2926782Y56575500D01*
X2922232Y56574830D01*
X2922229Y56574830D01*
X2867574Y56566784D01*
X2867573Y56566784D01*
X2857888Y56565358D01*
X2807992Y56540860D01*
X2762493Y56518522D01*
X2762491Y56518521D01*
X2753145Y56513932D01*
X2670707Y56431350D01*
X2666134Y56421994D01*
X2666133Y56421993D01*
X2662468Y56414495D01*
X2619464Y56326518D01*
X2609500Y56258218D01*
X2609500Y54491782D01*
X2610170Y54487232D01*
X2610170Y54487229D01*
X2618186Y54432781D01*
X2619642Y54422888D01*
X2623958Y54414098D01*
X2664125Y54332287D01*
X2671068Y54318145D01*
X2753650Y54235707D01*
X2858482Y54184464D01*
X2888973Y54180016D01*
X2922256Y54175160D01*
X2922260Y54175160D01*
X2926782Y54174500D01*
X3266570Y54174500D01*
X3334691Y54154498D01*
X3381184Y54100842D01*
X3391288Y54030568D01*
X3361794Y53965988D01*
X3310180Y53930288D01*
X3301382Y53927042D01*
X3290957Y53923196D01*
X3285996Y53920244D01*
X3285995Y53920244D01*
X3212694Y53876634D01*
X3101341Y53810386D01*
X2935457Y53664910D01*
X2798863Y53491640D01*
X2696131Y53296380D01*
X2630703Y53085667D01*
X2604770Y52866560D01*
X2619200Y52646396D01*
X2620621Y52640800D01*
X2620622Y52640795D01*
X2665293Y52464905D01*
X2673511Y52432548D01*
X2675928Y52427306D01*
X2675928Y52427305D01*
X2714046Y52344621D01*
X2765883Y52232179D01*
X2893222Y52051998D01*
X3051264Y51898039D01*
X3056060Y51894834D01*
X3056063Y51894832D01*
X3140261Y51838573D01*
X3234717Y51775460D01*
X3240020Y51773182D01*
X3240023Y51773180D01*
X3408653Y51700731D01*
X3437436Y51688365D01*
X3443071Y51687090D01*
X3443074Y51687089D01*
X3444484Y51686770D01*
X3445083Y51686436D01*
X3448562Y51685306D01*
X3448340Y51684623D01*
X3506511Y51652228D01*
X3540016Y51589634D01*
X3534362Y51518863D01*
X3491344Y51462384D01*
X3460287Y51445665D01*
X3296376Y51385196D01*
X3296368Y51385192D01*
X3290957Y51383196D01*
X3285996Y51380244D01*
X3285995Y51380244D01*
X3212694Y51336634D01*
X3101341Y51270386D01*
X2935457Y51124910D01*
X2798863Y50951640D01*
X2696131Y50756380D01*
X2630703Y50545667D01*
X2604770Y50326560D01*
X2619200Y50106396D01*
X2620621Y50100800D01*
X2620622Y50100795D01*
X2665293Y49924905D01*
X2673511Y49892548D01*
X2675928Y49887306D01*
X2675928Y49887305D01*
X2714046Y49804621D01*
X2765883Y49692179D01*
X2893222Y49511998D01*
X3051264Y49358039D01*
X3056060Y49354834D01*
X3056063Y49354832D01*
X3140261Y49298573D01*
X3234717Y49235460D01*
X3240020Y49233182D01*
X3240023Y49233180D01*
X3408653Y49160731D01*
X3437436Y49148365D01*
X3443071Y49147090D01*
X3443074Y49147089D01*
X3444484Y49146770D01*
X3445083Y49146436D01*
X3448562Y49145306D01*
X3448340Y49144623D01*
X3506511Y49112228D01*
X3540016Y49049634D01*
X3534362Y48978863D01*
X3491344Y48922384D01*
X3460287Y48905665D01*
X3296376Y48845196D01*
X3296368Y48845192D01*
X3290957Y48843196D01*
X3285996Y48840244D01*
X3285995Y48840244D01*
X3212694Y48796634D01*
X3101341Y48730386D01*
X2935457Y48584910D01*
X2798863Y48411640D01*
X2696131Y48216380D01*
X2630703Y48005667D01*
X2604770Y47786560D01*
X2619200Y47566396D01*
X2620621Y47560800D01*
X2620622Y47560795D01*
X2665293Y47384905D01*
X2673511Y47352548D01*
X2675928Y47347306D01*
X2675928Y47347305D01*
X2714046Y47264621D01*
X2765883Y47152179D01*
X2893222Y46971998D01*
X3051264Y46818039D01*
X3056060Y46814834D01*
X3056063Y46814832D01*
X3140261Y46758573D01*
X3234717Y46695460D01*
X3240020Y46693182D01*
X3240023Y46693180D01*
X3408653Y46620731D01*
X3437436Y46608365D01*
X3443071Y46607090D01*
X3443074Y46607089D01*
X3444484Y46606770D01*
X3445083Y46606436D01*
X3448562Y46605306D01*
X3448340Y46604623D01*
X3506511Y46572228D01*
X3540016Y46509634D01*
X3534362Y46438863D01*
X3491344Y46382384D01*
X3460287Y46365665D01*
X3296376Y46305196D01*
X3296368Y46305192D01*
X3290957Y46303196D01*
X3285996Y46300244D01*
X3285995Y46300244D01*
X3212694Y46256634D01*
X3101341Y46190386D01*
X2935457Y46044910D01*
X2798863Y45871640D01*
X2696131Y45676380D01*
X2630703Y45465667D01*
X2604770Y45246560D01*
X2619200Y45026396D01*
X2620621Y45020800D01*
X2620622Y45020795D01*
X2665293Y44844905D01*
X2673511Y44812548D01*
X2675928Y44807306D01*
X2675928Y44807305D01*
X2714046Y44724621D01*
X2765883Y44612179D01*
X2893222Y44431998D01*
X3051264Y44278039D01*
X3056060Y44274834D01*
X3056063Y44274832D01*
X3140261Y44218573D01*
X3234717Y44155460D01*
X3240020Y44153182D01*
X3240023Y44153180D01*
X3408653Y44080731D01*
X3437436Y44068365D01*
X3443071Y44067090D01*
X3443074Y44067089D01*
X3444484Y44066770D01*
X3445083Y44066436D01*
X3448562Y44065306D01*
X3448340Y44064623D01*
X3506511Y44032228D01*
X3540016Y43969634D01*
X3534362Y43898863D01*
X3491344Y43842384D01*
X3460287Y43825665D01*
X3296376Y43765196D01*
X3296368Y43765192D01*
X3290957Y43763196D01*
X3285996Y43760244D01*
X3285995Y43760244D01*
X3212694Y43716634D01*
X3101341Y43650386D01*
X2935457Y43504910D01*
X2798863Y43331640D01*
X2696131Y43136380D01*
X2630703Y42925667D01*
X2604770Y42706560D01*
X2619200Y42486396D01*
X2620621Y42480800D01*
X2620622Y42480795D01*
X2665293Y42304905D01*
X2673511Y42272548D01*
X2675928Y42267306D01*
X2675928Y42267305D01*
X2714046Y42184621D01*
X2765883Y42072179D01*
X2893222Y41891998D01*
X3051264Y41738039D01*
X3056060Y41734834D01*
X3056063Y41734832D01*
X3140261Y41678573D01*
X3234717Y41615460D01*
X3240020Y41613182D01*
X3240023Y41613180D01*
X3408653Y41540731D01*
X3437436Y41528365D01*
X3443071Y41527090D01*
X3443074Y41527089D01*
X3444484Y41526770D01*
X3445083Y41526436D01*
X3448562Y41525306D01*
X3448340Y41524623D01*
X3506511Y41492228D01*
X3540016Y41429634D01*
X3534362Y41358863D01*
X3491344Y41302384D01*
X3460287Y41285665D01*
X3296376Y41225196D01*
X3296368Y41225192D01*
X3290957Y41223196D01*
X3285996Y41220244D01*
X3285995Y41220244D01*
X3212694Y41176634D01*
X3101341Y41110386D01*
X2935457Y40964910D01*
X2798863Y40791640D01*
X2696131Y40596380D01*
X2630703Y40385667D01*
X2604770Y40166560D01*
X2619200Y39946396D01*
X2620621Y39940800D01*
X2620622Y39940795D01*
X2665293Y39764905D01*
X2673511Y39732548D01*
X2675928Y39727306D01*
X2675928Y39727305D01*
X2714046Y39644621D01*
X2765883Y39532179D01*
X2893222Y39351998D01*
X3051264Y39198039D01*
X3056060Y39194834D01*
X3056063Y39194832D01*
X3140261Y39138573D01*
X3234717Y39075460D01*
X3240020Y39073182D01*
X3240023Y39073180D01*
X3408653Y39000731D01*
X3437436Y38988365D01*
X3443071Y38987090D01*
X3443074Y38987089D01*
X3444484Y38986770D01*
X3445083Y38986436D01*
X3448562Y38985306D01*
X3448340Y38984623D01*
X3506511Y38952228D01*
X3540016Y38889634D01*
X3534362Y38818863D01*
X3491344Y38762384D01*
X3460287Y38745665D01*
X3296376Y38685196D01*
X3296368Y38685192D01*
X3290957Y38683196D01*
X3285996Y38680244D01*
X3285995Y38680244D01*
X3212694Y38636634D01*
X3101341Y38570386D01*
X2935457Y38424910D01*
X2798863Y38251640D01*
X2696131Y38056380D01*
X2630703Y37845667D01*
X2604770Y37626560D01*
X2619200Y37406396D01*
X2620621Y37400800D01*
X2620622Y37400795D01*
X2665293Y37224905D01*
X2673511Y37192548D01*
X2675928Y37187306D01*
X2675928Y37187305D01*
X2714046Y37104621D01*
X2765883Y36992179D01*
X2893222Y36811998D01*
X3051264Y36658039D01*
X3056060Y36654834D01*
X3056063Y36654832D01*
X3140261Y36598573D01*
X3234717Y36535460D01*
X3240020Y36533182D01*
X3240023Y36533180D01*
X3413904Y36458475D01*
X3437436Y36448365D01*
X3443071Y36447090D01*
X3443074Y36447089D01*
X3444484Y36446770D01*
X3445083Y36446436D01*
X3448562Y36445306D01*
X3448340Y36444623D01*
X3506511Y36412228D01*
X3540016Y36349634D01*
X3534362Y36278863D01*
X3491344Y36222384D01*
X3460287Y36205665D01*
X3296376Y36145196D01*
X3296368Y36145192D01*
X3290957Y36143196D01*
X3285996Y36140244D01*
X3285995Y36140244D01*
X3212694Y36096634D01*
X3101341Y36030386D01*
X2935457Y35884910D01*
X2798863Y35711640D01*
X2696131Y35516380D01*
X2630703Y35305667D01*
X2604770Y35086560D01*
X2619200Y34866396D01*
X2620621Y34860800D01*
X2620622Y34860795D01*
X2665293Y34684905D01*
X2673511Y34652548D01*
X2675928Y34647306D01*
X2675928Y34647305D01*
X2712470Y34568039D01*
X2765883Y34452179D01*
X2893222Y34271998D01*
X3051264Y34118039D01*
X3056060Y34114834D01*
X3056063Y34114832D01*
X3140261Y34058573D01*
X3234717Y33995460D01*
X3240020Y33993182D01*
X3240023Y33993180D01*
X3355133Y33943725D01*
X3409826Y33898457D01*
X3431363Y33830805D01*
X3421105Y33784162D01*
X3422478Y33783728D01*
X3421532Y33780738D01*
X3419183Y33775425D01*
X3418544Y33772519D01*
X3416308Y33767956D01*
X3413512Y33760895D01*
X3408783Y33752753D01*
X3406657Y33743579D01*
X3406656Y33743578D01*
X3399200Y33711411D01*
X3396589Y33701867D01*
X3393826Y33693131D01*
X3354213Y33634213D01*
X3317301Y33612915D01*
X3305939Y33608723D01*
X3290957Y33603196D01*
X3285996Y33600244D01*
X3285995Y33600244D01*
X3117686Y33500110D01*
X3101341Y33490386D01*
X2935457Y33344910D01*
X2798863Y33171640D01*
X2696131Y32976380D01*
X2630703Y32765667D01*
X2604770Y32546560D01*
X2619200Y32326396D01*
X2620621Y32320800D01*
X2620622Y32320795D01*
X2665293Y32144905D01*
X2673511Y32112548D01*
X2675928Y32107306D01*
X2675928Y32107305D01*
X2714046Y32024621D01*
X2765883Y31912179D01*
X2893222Y31731998D01*
X3051264Y31578039D01*
X3056060Y31574834D01*
X3056063Y31574832D01*
X3140261Y31518573D01*
X3234717Y31455460D01*
X3240020Y31453182D01*
X3240023Y31453180D01*
X3408653Y31380731D01*
X3437436Y31368365D01*
X3443071Y31367090D01*
X3443074Y31367089D01*
X3444484Y31366770D01*
X3445083Y31366436D01*
X3448562Y31365306D01*
X3448340Y31364623D01*
X3506511Y31332228D01*
X3540016Y31269634D01*
X3534362Y31198863D01*
X3491344Y31142384D01*
X3460287Y31125665D01*
X3296376Y31065196D01*
X3296368Y31065192D01*
X3290957Y31063196D01*
X3285996Y31060244D01*
X3285995Y31060244D01*
X3212694Y31016634D01*
X3101341Y30950386D01*
X3099985Y30949197D01*
X3027047Y30925500D01*
X2550452Y30925500D01*
X2546934Y30925549D01*
X2471410Y30927659D01*
X2471407Y30927659D01*
X2465028Y30927837D01*
X2458739Y30926728D01*
X2408807Y30917924D01*
X2399662Y30916655D01*
X2349238Y30911533D01*
X2349236Y30911533D01*
X2342890Y30910888D01*
X2317184Y30902832D01*
X2301394Y30898983D01*
X2281147Y30895413D01*
X2281146Y30895413D01*
X2274864Y30894305D01*
X2268926Y30891954D01*
X2221796Y30873295D01*
X2213094Y30870213D01*
X2158627Y30853144D01*
X2153048Y30850051D01*
X2153047Y30850051D01*
X2135074Y30840088D01*
X2120372Y30833138D01*
X2104303Y30826775D01*
X2095325Y30823221D01*
X2089988Y30819729D01*
X2089985Y30819727D01*
X2047563Y30791966D01*
X2039653Y30787196D01*
X1989739Y30759528D01*
X1969279Y30741992D01*
X1956292Y30732240D01*
X1933747Y30717487D01*
X1929032Y30713242D01*
X1892247Y30676457D01*
X1885150Y30669884D01*
X1843125Y30633864D01*
X1825400Y30611014D01*
X1814942Y30599152D01*
X1243811Y30028021D01*
X1241290Y30025569D01*
X1181765Y29969279D01*
X1150432Y29924530D01*
X1149026Y29922522D01*
X1143467Y29915171D01*
X1107385Y29870930D01*
X1104427Y29865272D01*
X1094905Y29847058D01*
X1086462Y29833171D01*
X1071009Y29811102D01*
X1048331Y29758695D01*
X1044377Y29750407D01*
X1017923Y29699806D01*
X1016163Y29693668D01*
X1010498Y29673913D01*
X1005015Y29658600D01*
X996857Y29639749D01*
X996855Y29639744D01*
X994320Y29633885D01*
X982645Y29578000D01*
X980439Y29569084D01*
X964697Y29514187D01*
X964208Y29507830D01*
X962630Y29487322D01*
X960339Y29471228D01*
X954832Y29444867D01*
X954500Y29438532D01*
X954500Y29386506D01*
X954129Y29376842D01*
X949883Y29321658D01*
X500000Y29321658D01*
X500000Y59374000D01*
X520002Y59442121D01*
X573658Y59488614D01*
X626000Y59500000D01*
X27374000Y59500000D01*
X27442121Y59479998D01*
G37*
G04 #@! TD.AperFunction*
M02*
