M48
; DRILL file {KiCad (6.0.7-1)-1} date 
; FORMAT={-:-/ absolute / metric / decimal}
; #@! TF.CreationDate,2022-09-10T13:51:13+09:00
; #@! TF.GenerationSoftware,Kicad,Pcbnew,(6.0.7-1)-1
; #@! TF.FileFunction,MixedPlating,1,2
FMAT,2
METRIC
; #@! TA.AperFunction,Plated,PTH,ViaDrill
T1C0.300
; #@! TA.AperFunction,Plated,PTH,ComponentDrill
T2C0.800
; #@! TA.AperFunction,Plated,PTH,ComponentDrill
T3C1.000
%
G90
G05
T1
X1.905Y33.79
X9.525Y52.84
X9.525Y31.25
X9.525Y16.01
X19.685Y52.84
X19.685Y31.25
X19.685Y16.01
X26.035Y57.92
X26.035Y43.95
X26.035Y2.675
T2
X3.195Y2.675
X5.695Y2.675
X6.355Y55.385
X6.355Y52.845
X6.355Y50.305
X6.355Y47.765
X6.355Y45.225
X6.355Y42.685
X6.355Y40.145
X6.355Y37.605
X6.355Y35.065
X6.355Y32.525
X6.355Y29.985
X6.355Y27.445
X6.355Y24.905
X6.355Y22.365
X6.355Y19.825
X6.355Y17.285
X6.355Y14.745
X6.355Y12.205
X6.355Y9.665
X6.355Y7.125
X21.595Y55.385
X21.595Y52.845
X21.595Y50.305
X21.595Y47.765
X21.595Y45.225
X21.595Y42.685
X21.595Y40.145
X21.595Y37.605
X21.595Y35.065
X21.595Y32.525
X21.595Y29.985
X21.595Y27.445
X21.595Y24.905
X21.595Y22.365
X21.595Y19.825
X21.595Y17.285
X21.595Y14.745
X21.595Y12.205
X21.595Y9.665
X21.595Y7.125
T3
X3.81Y55.375
X3.81Y52.835
X3.81Y50.295
X3.81Y47.755
X3.81Y45.215
X3.81Y42.675
X3.81Y40.135
X3.81Y37.595
X3.81Y35.055
X3.81Y32.515
X3.81Y29.975
X3.81Y27.435
X3.81Y24.895
X3.81Y22.355
X3.81Y19.815
X3.81Y17.275
X3.81Y14.735
X3.81Y12.195
X3.81Y9.655
X3.81Y7.115
X24.13Y55.375
X24.13Y52.835
X24.13Y50.295
X24.13Y47.755
X24.13Y45.215
X24.13Y42.675
X24.13Y40.135
X24.13Y37.595
X24.13Y35.055
X24.13Y32.515
X24.13Y29.975
X24.13Y27.435
X24.13Y24.895
X24.13Y22.355
X24.13Y19.815
X24.13Y17.275
X24.13Y14.735
X24.13Y12.195
X24.13Y9.655
X24.13Y7.115
T0
M30
