G04 #@! TF.GenerationSoftware,KiCad,Pcbnew,(6.0.7-1)-1*
G04 #@! TF.CreationDate,2022-09-10T00:17:00+09:00*
G04 #@! TF.ProjectId,MEZ6800,4d455a36-3830-4302-9e6b-696361645f70,A*
G04 #@! TF.SameCoordinates,PX5f5e100PY8f0d180*
G04 #@! TF.FileFunction,Soldermask,Top*
G04 #@! TF.FilePolarity,Negative*
%FSLAX46Y46*%
G04 Gerber Fmt 4.6, Leading zero omitted, Abs format (unit mm)*
G04 Created by KiCad (PCBNEW (6.0.7-1)-1) date 2022-09-10 00:17:00*
%MOMM*%
%LPD*%
G01*
G04 APERTURE LIST*
%ADD10O,1.600000X1.600000*%
%ADD11R,1.600000X1.600000*%
%ADD12C,1.600000*%
%ADD13O,1.700000X1.700000*%
%ADD14R,1.700000X1.700000*%
%ADD15C,0.605000*%
G04 APERTURE END LIST*
D10*
X6355000Y7125000D03*
X6355000Y9665000D03*
X6355000Y12205000D03*
X6355000Y14745000D03*
X6355000Y17285000D03*
X6355000Y19825000D03*
X6355000Y22365000D03*
X6355000Y24905000D03*
X6355000Y27445000D03*
X6355000Y29985000D03*
X6355000Y32525000D03*
X6355000Y35065000D03*
X6355000Y37605000D03*
X6355000Y40145000D03*
X6355000Y42685000D03*
X6355000Y45225000D03*
X6355000Y47765000D03*
X6355000Y50305000D03*
X6355000Y52845000D03*
X6355000Y55385000D03*
X21595000Y55385000D03*
X21595000Y52845000D03*
X21595000Y50305000D03*
X21595000Y47765000D03*
X21595000Y45225000D03*
X21595000Y42685000D03*
X21595000Y40145000D03*
X21595000Y37605000D03*
X21595000Y35065000D03*
X21595000Y32525000D03*
X21595000Y29985000D03*
X21595000Y27445000D03*
X21595000Y24905000D03*
X21595000Y22365000D03*
X21595000Y19825000D03*
X21595000Y17285000D03*
X21595000Y14745000D03*
X21595000Y12205000D03*
X21595000Y9665000D03*
D11*
X21595000Y7125000D03*
D12*
X3195000Y2675000D03*
X5695000Y2675000D03*
D13*
X24130000Y7115000D03*
X24130000Y9655000D03*
X24130000Y12195000D03*
X24130000Y14735000D03*
X24130000Y17275000D03*
X24130000Y19815000D03*
X24130000Y22355000D03*
X24130000Y24895000D03*
X24130000Y27435000D03*
X24130000Y29975000D03*
X24130000Y32515000D03*
X24130000Y35055000D03*
X24130000Y37595000D03*
X24130000Y40135000D03*
X24130000Y42675000D03*
X24130000Y45215000D03*
X24130000Y47755000D03*
X24130000Y50295000D03*
X24130000Y52835000D03*
D14*
X24130000Y55375000D03*
D13*
X3810000Y7115000D03*
X3810000Y9655000D03*
X3810000Y12195000D03*
X3810000Y14735000D03*
X3810000Y17275000D03*
X3810000Y19815000D03*
X3810000Y22355000D03*
X3810000Y24895000D03*
X3810000Y27435000D03*
X3810000Y29975000D03*
X3810000Y32515000D03*
X3810000Y35055000D03*
X3810000Y37595000D03*
X3810000Y40135000D03*
X3810000Y42675000D03*
X3810000Y45215000D03*
X3810000Y47755000D03*
X3810000Y50295000D03*
X3810000Y52835000D03*
D14*
X3810000Y55375000D03*
D15*
X19685000Y16010000D03*
X19685000Y52840000D03*
X26035000Y43950000D03*
X9525000Y16010000D03*
X9525000Y52840000D03*
X19685000Y31250000D03*
X26035000Y2675000D03*
X1905000Y33790000D03*
X9525000Y31250000D03*
X26035000Y57920000D03*
M02*
